SplineFontDB: 3.2
FontName: GotoMono
FullName: Goto Mono
FamilyName: Goto Mono
Weight: Book
Copyright: Copyright 2015 Google LLC. All Rights Reserved.
Version: 2.6
ItalicAngle: 0
UnderlinePosition: -125
UnderlineWidth: 50
Ascent: 800
Descent: 200
InvalidEm: 0
sfntRevision: 0x00020189
LayerCount: 2
Layer: 0 0 "Back" 1
Layer: 1 0 "Fore" 0
XUID: [1021 328 1927437058 6966779]
StyleMap: 0x0040
FSType: 0
OS2Version: 3
OS2_WeightWidthSlopeOnly: 0
OS2_UseTypoMetrics: 0
CreationTime: 1604030168
ModificationTime: 1609931441
PfmFamily: 49
TTFWeight: 400
TTFWidth: 5
LineGap: 0
VLineGap: 0
Panose: 2 11 5 9 4 5 4 2 2 4
OS2TypoAscent: 1069
OS2TypoAOffset: 0
OS2TypoDescent: -293
OS2TypoDOffset: 0
OS2TypoLinegap: 0
OS2WinAscent: 1069
OS2WinAOffset: 0
OS2WinDescent: 293
OS2WinDOffset: 0
HheadAscent: 1069
HheadAOffset: 0
HheadDescent: -293
HheadDOffset: 0
OS2SubXSize: 650
OS2SubYSize: 600
OS2SubXOff: 0
OS2SubYOff: 75
OS2SupXSize: 650
OS2SupYSize: 600
OS2SupXOff: 0
OS2SupYOff: 350
OS2StrikeYSize: 50
OS2StrikeYPos: 322
OS2CapHeight: 714
OS2XHeight: 536
OS2Vendor: 'GOOG'
OS2CodePages: 0000019f.dfd70000
OS2UnicodeRanges: e00002ff.0200fcff.08000039.00100000
Lookup: 1 0 0 "'aalt' Access All Alternates lookup 0" { "'aalt' Access All Alternates lookup 0 subtable"  } ['aalt' ('DFLT' <'dflt' > 'cyrl' <'MKD ' 'SRB ' 'dflt' > 'grek' <'dflt' > 'latn' <'APPH' 'CAT ' 'IPPH' 'MAH ' 'MOL ' 'NAV ' 'ROM ' 'dflt' > ) ]
Lookup: 3 0 0 "'aalt' Access All Alternates lookup 1" { "'aalt' Access All Alternates lookup 1 subtable"  } ['aalt' ('DFLT' <'dflt' > 'cyrl' <'MKD ' 'SRB ' 'dflt' > 'grek' <'dflt' > 'latn' <'APPH' 'CAT ' 'IPPH' 'MAH ' 'MOL ' 'NAV ' 'ROM ' 'dflt' > ) ]
Lookup: 4 0 0 "'ccmp' Glyph Composition/Decomposition lookup 2" { "'ccmp' Glyph Composition/Decomposition lookup 2 subtable"  } ['ccmp' ('DFLT' <'dflt' > 'cyrl' <'MKD ' 'SRB ' 'dflt' > 'grek' <'dflt' > 'latn' <'APPH' 'CAT ' 'IPPH' 'MAH ' 'MOL ' 'NAV ' 'ROM ' 'dflt' > ) ]

StartChar: .notdef
Encoding: 1114112 -1 0
Width: 563
Flags: HW
LayerCount: 2
Fore
SplineSet
76 0 m 1
 76 714 l 1
 487 714 l 1
 487 0 l 1
 76 0 l 1
127 51 m 1
 436 51 l 1
 436 663 l 1
 127 663 l 1
 127 51 l 1
EndSplineSet
EndChar

StartChar: exclam
Encoding: 33 33 4
Width: 563
Flags: HW
LayerCount: 2
Fore
SplineSet
248 202 m 1
 231 714 l 1
 337 714 l 1
 321 202 l 1
 248 202 l 1
284 -11 m 0
 249 -11 223 10 223 57 c 0
 223 105 249 124 284 124 c 0
 318 124 344 106 344 57 c 0
 344 10 317 -11 284 -11 c 0
EndSplineSet
Substitution2: "'smcp' Lowercase to Small Capitals lookup 35 subtable" exclam.sc
Substitution2: "'c2sc' Capitals to Small Capitals lookup 34 subtable" exclam.sc
Substitution2: "'aalt' Access All Alternates lookup 0 subtable" exclam.sc
EndChar

StartChar: quotedbl
Encoding: 34 34 5
Width: 563
Flags: HW
LayerCount: 2
Fore
SplineSet
343 456 m 1
 324 714 l 1
 419 714 l 1
 400 456 l 1
 343 456 l 1
164 456 m 1
 145 714 l 1
 239 714 l 1
 221 456 l 1
 164 456 l 1
EndSplineSet
EndChar

StartChar: numbersign
Encoding: 35 35 6
Width: 563
Flags: HW
LayerCount: 2
Fore
SplineSet
99 0 m 1
 132 212 l 1
 27 212 l 1
 27 278 l 1
 144 278 l 1
 171 441 l 1
 58 441 l 1
 58 506 l 1
 182 506 l 1
 216 714 l 1
 285 714 l 1
 250 506 l 1
 365 506 l 1
 399 714 l 1
 465 714 l 1
 431 506 l 1
 537 506 l 1
 537 441 l 1
 420 441 l 1
 393 278 l 1
 507 278 l 1
 507 212 l 1
 382 212 l 1
 346 0 l 1
 278 0 l 1
 314 212 l 1
 200 212 l 1
 166 0 l 1
 99 0 l 1
211 278 m 1
 325 278 l 1
 352 441 l 1
 238 441 l 1
 211 278 l 1
EndSplineSet
EndChar

StartChar: dollar
Encoding: 36 36 7
Width: 563
Flags: HW
LayerCount: 2
Fore
SplineSet
252 35 m 1
 187 36 128 48 87 68 c 1
 87 151 l 1
 130 129 191 110 252 109 c 1
 252 331 l 1
 133 372 77 419 77 517 c 0
 77 614 146 677 252 686 c 1
 252 759 l 1
 310 759 l 1
 310 687 l 1
 371 685 420 671 466 651 c 1
 440 580 l 1
 400 597 357 610 310 613 c 1
 310 394 l 1
 431 354 491 314 491 212 c 0
 491 120 425 54 310 39 c 1
 310 -58 l 1
 252 -58 l 1
 252 35 l 1
252 612 m 1
 189 605 158 569 158 518 c 0
 158 465 181 439 252 416 c 1
 252 612 l 1
310 113 m 1
 379 124 411 160 411 211 c 0
 411 262 386 286 310 310 c 1
 310 113 l 1
EndSplineSet
EndChar

StartChar: percent
Encoding: 37 37 8
Width: 563
Flags: HW
LayerCount: 2
Fore
SplineSet
140 383 m 0
 59 383 0 445 0 553 c 0
 0 661 54 722 142 722 c 0
 222 722 282 661 282 553 c 0
 282 445 227 383 140 383 c 0
141 439 m 0
 187 439 209 476 209 553 c 0
 209 631 187 665 141 665 c 0
 94 665 72 631 72 553 c 0
 72 476 95 439 141 439 c 0
58 62 m 1
 427 652 l 1
 504 652 l 1
 135 62 l 1
 58 62 l 1
421 -9 m 0
 340 -9 281 53 281 161 c 0
 281 269 335 330 423 330 c 0
 503 330 563 269 563 161 c 0
 563 53 508 -9 421 -9 c 0
422 47 m 0
 468 47 490 84 490 161 c 0
 490 239 468 273 422 273 c 0
 375 273 353 239 353 161 c 0
 353 84 376 47 422 47 c 0
EndSplineSet
EndChar

StartChar: ampersand
Encoding: 38 38 9
Width: 563
Flags: HW
LayerCount: 2
Fore
SplineSet
216 -10 m 0
 100 -10 40 70 40 172 c 0
 40 272 97 335 166 392 c 1
 129 448 98 512 98 579 c 0
 98 666 151 725 238 725 c 0
 325 725 377 665 377 579 c 0
 377 494 324 430 267 379 c 1
 395 207 l 1
 417 253 431 303 436 346 c 1
 517 346 l 1
 506 273 482 199 446 138 c 1
 548 0 l 1
 447 0 l 1
 396 71 l 1
 348 22 288 -10 216 -10 c 0
177 578 m 0
 177 530 199 478 224 438 c 1
 260 470 300 517 300 580 c 0
 300 630 276 657 238 657 c 0
 200 657 177 628 177 578 c 0
124 175 m 0
 124 110 162 64 224 64 c 0
 274 64 316 93 350 135 c 1
 210 330 l 1
 164 289 124 242 124 175 c 0
EndSplineSet
Substitution2: "'smcp' Lowercase to Small Capitals lookup 35 subtable" ampersand.sc
Substitution2: "'c2sc' Capitals to Small Capitals lookup 34 subtable" ampersand.sc
Substitution2: "'aalt' Access All Alternates lookup 0 subtable" ampersand.sc
EndChar

StartChar: quotesingle
Encoding: 39 39 10
Width: 563
Flags: HW
LayerCount: 2
Fore
SplineSet
253 456 m 1
 234 714 l 1
 329 714 l 1
 310 456 l 1
 253 456 l 1
EndSplineSet
EndChar

StartChar: parenleft
Encoding: 40 40 11
Width: 563
Flags: HW
LayerCount: 2
Fore
SplineSet
330 -160 m 1
 232 -44 185 110 185 273 c 0
 185 438 233 595 330 714 c 1
 409 714 l 1
 318 587 271 432 271 274 c 0
 271 119 319 -36 408 -160 c 1
 330 -160 l 1
EndSplineSet
Substitution2: "'smcp' Lowercase to Small Capitals lookup 35 subtable" parenleft.sc
Substitution2: "'c2sc' Capitals to Small Capitals lookup 34 subtable" parenleft.sc
Substitution2: "'sups' Superscript lookup 23 subtable" uni207D
Substitution2: "'subs' Subscript lookup 22 subtable" uni208D
AlternateSubs2: "'aalt' Access All Alternates lookup 1 subtable" uni208D uni207D parenleft.sc
EndChar

StartChar: parenright
Encoding: 41 41 12
Width: 563
Flags: HW
LayerCount: 2
Fore
SplineSet
226 714 m 1
 324 598 371 444 371 281 c 0
 371 116 323 -41 226 -160 c 1
 147 -160 l 1
 238 -33 285 122 285 280 c 0
 285 436 237 590 148 714 c 1
 226 714 l 1
EndSplineSet
Substitution2: "'smcp' Lowercase to Small Capitals lookup 35 subtable" parenright.sc
Substitution2: "'c2sc' Capitals to Small Capitals lookup 34 subtable" parenright.sc
Substitution2: "'sups' Superscript lookup 23 subtable" uni207E
Substitution2: "'subs' Subscript lookup 22 subtable" uni208E
AlternateSubs2: "'aalt' Access All Alternates lookup 1 subtable" uni208E uni207E parenright.sc
EndChar

StartChar: asterisk
Encoding: 42 42 13
Width: 563
Flags: HW
LayerCount: 2
Fore
SplineSet
355 368 m 1
 282 511 l 1
 209 369 l 1
 137 414 l 1
 234 539 l 1
 89 556 l 1
 104 632 l 1
 255 592 l 1
 241 752 l 1
 322 752 l 1
 309 592 l 1
 461 635 l 1
 476 554 l 1
 330 538 l 1
 429 413 l 1
 355 368 l 1
EndSplineSet
EndChar

StartChar: plus
Encoding: 43 43 14
Width: 563
Flags: HW
LayerCount: 2
Fore
SplineSet
247 120 m 1
 247 318 l 1
 75 318 l 1
 75 388 l 1
 247 388 l 1
 247 586 l 1
 318 586 l 1
 318 388 l 1
 488 388 l 1
 488 318 l 1
 318 318 l 1
 318 120 l 1
 247 120 l 1
EndSplineSet
Substitution2: "'sups' Superscript lookup 23 subtable" uni207A
Substitution2: "'subs' Subscript lookup 22 subtable" uni208A
AlternateSubs2: "'aalt' Access All Alternates lookup 1 subtable" uni208A uni207A
EndChar

StartChar: comma
Encoding: 44 44 15
Width: 563
Flags: HW
LayerCount: 2
Fore
SplineSet
192 -137 m 1
 213 -53 233 50 243 124 c 1
 344 124 l 1
 352 112 l 1
 332 35 296 -60 262 -137 c 1
 192 -137 l 1
EndSplineSet
EndChar

StartChar: hyphen
Encoding: 45 45 16
Width: 563
Flags: HW
LayerCount: 2
Fore
SplineSet
140 231 m 1
 140 310 l 1
 423 310 l 1
 423 231 l 1
 140 231 l 1
EndSplineSet
EndChar

StartChar: period
Encoding: 46 46 17
Width: 563
Flags: HW
LayerCount: 2
Fore
SplineSet
281 -11 m 0
 247 -11 221 10 221 57 c 0
 221 105 247 124 281 124 c 0
 315 124 342 106 342 57 c 0
 342 10 315 -11 281 -11 c 0
EndSplineSet
EndChar

StartChar: slash
Encoding: 47 47 18
Width: 563
Flags: HW
LayerCount: 2
Fore
SplineSet
83 -1 m 1
 353 715 l 1
 435 715 l 1
 166 -1 l 1
 83 -1 l 1
EndSplineSet
Substitution2: "'frac' Diagonal Fractions lookup 26 subtable" fraction
Substitution2: "'aalt' Access All Alternates lookup 0 subtable" fraction
EndChar

StartChar: zero
Encoding: 48 48 19
Width: 563
Flags: HW
LayerCount: 2
Fore
SplineSet
281 -10 m 0
 117 -10 50 127 50 358 c 0
 50 589 113 724 281 724 c 0
 445 724 514 590 514 358 c 0
 514 127 450 -10 281 -10 c 0
135 358 m 0
 135 302 138 254 146 213 c 1
 377 605 l 1
 353 634 322 648 281 648 c 0
 178 648 135 553 135 358 c 0
281 66 m 0
 385 66 431 161 431 358 c 0
 431 423 426 477 415 521 c 1
 180 122 l 1
 203 86 236 66 281 66 c 0
EndSplineSet
Substitution2: "'zero' Slashed Zero lookup 37 subtable" zero.slash
Substitution2: "'onum' Oldstyle Figures lookup 33 subtable" zero.osf
Substitution2: "'frac' Diagonal Fractions lookup 27 subtable" zero.numr
Substitution2: "'dnom' Denominators lookup 25 subtable" zero.dnom
Substitution2: "'numr' Numerators lookup 24 subtable" zero.numr
Substitution2: "'sups' Superscript lookup 23 subtable" uni2070
Substitution2: "'subs' Subscript lookup 22 subtable" uni2080
AlternateSubs2: "'aalt' Access All Alternates lookup 1 subtable" uni2070 zero.osf zero.dnom zero.numr uni2080
EndChar

StartChar: one
Encoding: 49 49 20
Width: 563
Flags: HW
LayerCount: 2
Fore
SplineSet
122 0 m 1
 122 60 l 1
 264 70 l 1
 264 447 l 2
 264 503 266 579 268 623 c 1
 247 609 235 603 205 587 c 2
 125 543 l 1
 86 609 l 1
 278 714 l 1
 350 714 l 1
 350 70 l 1
 489 60 l 1
 489 0 l 1
 122 0 l 1
EndSplineSet
Substitution2: "'onum' Oldstyle Figures lookup 33 subtable" one.osf
Substitution2: "'frac' Diagonal Fractions lookup 27 subtable" one.numr
Substitution2: "'dnom' Denominators lookup 25 subtable" one.dnom
Substitution2: "'numr' Numerators lookup 24 subtable" one.numr
Substitution2: "'sups' Superscript lookup 23 subtable" uni00B9
Substitution2: "'subs' Subscript lookup 22 subtable" uni2081
AlternateSubs2: "'aalt' Access All Alternates lookup 1 subtable" uni00B9 one.osf one.dnom one.numr uni2081
EndChar

StartChar: two
Encoding: 50 50 21
Width: 563
Flags: HW
LayerCount: 2
Fore
SplineSet
66 0 m 1
 66 75 l 1
 238 263 l 2
 327 360 388 432 388 525 c 0
 388 609 340 647 271 647 c 0
 212 647 159 618 116 581 c 1
 68 641 l 1
 121 688 189 724 276 724 c 0
 398 724 476 653 476 530 c 0
 476 420 413 336 318 231 c 2
 181 84 l 1
 181 80 l 1
 508 80 l 1
 508 0 l 1
 66 0 l 1
EndSplineSet
Substitution2: "'onum' Oldstyle Figures lookup 33 subtable" two.osf
Substitution2: "'frac' Diagonal Fractions lookup 27 subtable" two.numr
Substitution2: "'dnom' Denominators lookup 25 subtable" two.dnom
Substitution2: "'numr' Numerators lookup 24 subtable" two.numr
Substitution2: "'sups' Superscript lookup 23 subtable" uni00B2
Substitution2: "'subs' Subscript lookup 22 subtable" uni2082
AlternateSubs2: "'aalt' Access All Alternates lookup 1 subtable" uni00B2 two.osf two.dnom two.numr uni2082
EndChar

StartChar: three
Encoding: 51 51 22
Width: 563
Flags: HW
LayerCount: 2
Fore
SplineSet
242 -10 m 0
 186 -10 120 -1 66 29 c 1
 66 113 l 1
 120 83 187 67 246 67 c 0
 355 67 403 122 403 203 c 0
 403 294 342 330 232 330 c 2
 167 330 l 1
 167 408 l 1
 233 408 l 2
 331 408 384 462 384 540 c 0
 384 607 344 647 267 647 c 0
 207 647 154 623 114 594 c 1
 70 655 l 1
 120 695 189 724 272 724 c 0
 403 724 474 650 474 546 c 0
 474 453 419 391 332 376 c 1
 332 373 l 1
 439 358 494 299 494 199 c 0
 494 78 413 -10 242 -10 c 0
EndSplineSet
Substitution2: "'onum' Oldstyle Figures lookup 33 subtable" three.osf
Substitution2: "'frac' Diagonal Fractions lookup 27 subtable" three.numr
Substitution2: "'dnom' Denominators lookup 25 subtable" three.dnom
Substitution2: "'numr' Numerators lookup 24 subtable" three.numr
Substitution2: "'sups' Superscript lookup 23 subtable" uni00B3
Substitution2: "'subs' Subscript lookup 22 subtable" uni2083
AlternateSubs2: "'aalt' Access All Alternates lookup 1 subtable" uni00B3 three.osf three.dnom three.numr uni2083
EndChar

StartChar: four
Encoding: 52 52 23
Width: 563
Flags: HW
LayerCount: 2
Fore
SplineSet
335 0 m 1
 335 160 l 1
 46 160 l 1
 46 235 l 1
 319 718 l 1
 421 718 l 1
 421 238 l 1
 517 238 l 1
 517 160 l 1
 421 160 l 1
 421 0 l 1
 335 0 l 1
132 238 m 1
 335 238 l 1
 335 413 l 2
 335 486 339 579 341 625 c 1
 337 625 l 1
 328 595 306 550 293 525 c 2
 132 238 l 1
EndSplineSet
Substitution2: "'onum' Oldstyle Figures lookup 33 subtable" four.osf
Substitution2: "'frac' Diagonal Fractions lookup 27 subtable" four.numr
Substitution2: "'dnom' Denominators lookup 25 subtable" four.dnom
Substitution2: "'numr' Numerators lookup 24 subtable" four.numr
Substitution2: "'sups' Superscript lookup 23 subtable" uni2074
Substitution2: "'subs' Subscript lookup 22 subtable" uni2084
AlternateSubs2: "'aalt' Access All Alternates lookup 1 subtable" uni2074 four.osf four.dnom four.numr uni2084
EndChar

StartChar: five
Encoding: 53 53 24
Width: 563
Flags: HW
LayerCount: 2
Fore
SplineSet
240 -10 m 0
 179 -10 116 3 74 29 c 1
 74 113 l 1
 118 83 177 67 235 67 c 0
 338 67 397 114 397 216 c 0
 397 314 337 365 241 365 c 0
 204 365 160 357 131 350 c 1
 88 378 l 1
 114 714 l 1
 447 714 l 1
 447 634 l 1
 190 634 l 1
 172 428 l 1
 200 433 238 438 269 438 c 0
 393 438 488 366 488 223 c 0
 488 80 398 -10 240 -10 c 0
EndSplineSet
Substitution2: "'onum' Oldstyle Figures lookup 33 subtable" five.osf
Substitution2: "'frac' Diagonal Fractions lookup 27 subtable" five.numr
Substitution2: "'dnom' Denominators lookup 25 subtable" five.dnom
Substitution2: "'numr' Numerators lookup 24 subtable" five.numr
Substitution2: "'sups' Superscript lookup 23 subtable" uni2075
Substitution2: "'subs' Subscript lookup 22 subtable" uni2085
AlternateSubs2: "'aalt' Access All Alternates lookup 1 subtable" uni2075 five.osf five.dnom five.numr uni2085
EndChar

StartChar: six
Encoding: 54 54 25
Width: 563
Flags: HW
LayerCount: 2
Fore
SplineSet
289 -10 m 0
 149 -10 58 91 58 309 c 0
 58 519 122 724 369 724 c 0
 395 724 431 721 451 715 c 1
 451 638 l 1
 429 646 400 650 372 650 c 0
 198 650 151 519 145 364 c 1
 151 364 l 1
 177 413 227 450 306 450 c 0
 428 450 505 370 505 229 c 0
 505 81 422 -10 289 -10 c 0
289 64 m 0
 365 64 419 114 419 228 c 0
 419 326 376 381 292 381 c 0
 206 381 146 314 146 244 c 0
 146 160 191 64 289 64 c 0
EndSplineSet
Substitution2: "'onum' Oldstyle Figures lookup 33 subtable" six.osf
Substitution2: "'frac' Diagonal Fractions lookup 27 subtable" six.numr
Substitution2: "'dnom' Denominators lookup 25 subtable" six.dnom
Substitution2: "'numr' Numerators lookup 24 subtable" six.numr
Substitution2: "'sups' Superscript lookup 23 subtable" uni2076
Substitution2: "'subs' Subscript lookup 22 subtable" uni2086
AlternateSubs2: "'aalt' Access All Alternates lookup 1 subtable" uni2076 six.osf six.dnom six.numr uni2086
EndChar

StartChar: seven
Encoding: 55 55 26
Width: 563
Flags: HW
LayerCount: 2
Fore
SplineSet
156 0 m 1
 415 634 l 1
 56 634 l 1
 56 714 l 1
 506 714 l 1
 506 643 l 1
 251 0 l 1
 156 0 l 1
EndSplineSet
Substitution2: "'onum' Oldstyle Figures lookup 33 subtable" seven.osf
Substitution2: "'frac' Diagonal Fractions lookup 27 subtable" seven.numr
Substitution2: "'dnom' Denominators lookup 25 subtable" seven.dnom
Substitution2: "'numr' Numerators lookup 24 subtable" seven.numr
Substitution2: "'sups' Superscript lookup 23 subtable" uni2077
Substitution2: "'subs' Subscript lookup 22 subtable" uni2087
AlternateSubs2: "'aalt' Access All Alternates lookup 1 subtable" uni2077 seven.osf seven.dnom seven.numr uni2087
EndChar

StartChar: eight
Encoding: 56 56 27
Width: 563
Flags: HW
LayerCount: 2
Fore
SplineSet
276 -10 m 0
 149 -10 63 59 63 180 c 0
 63 280 121 337 199 374 c 1
 135 412 85 468 85 553 c 0
 85 667 177 724 282 724 c 0
 388 724 477 667 477 553 c 0
 477 466 426 414 352 378 c 1
 436 335 499 279 499 183 c 0
 499 68 411 -10 276 -10 c 0
282 414 m 1
 346 443 391 481 391 549 c 0
 391 615 348 650 281 650 c 0
 214 650 171 616 171 548 c 0
 171 475 223 443 282 414 c 1
280 63 m 0
 367 63 413 113 413 186 c 0
 413 255 370 290 270 340 c 1
 194 303 150 255 150 181 c 0
 150 111 190 63 280 63 c 0
EndSplineSet
Substitution2: "'onum' Oldstyle Figures lookup 33 subtable" eight.osf
Substitution2: "'frac' Diagonal Fractions lookup 27 subtable" eight.numr
Substitution2: "'dnom' Denominators lookup 25 subtable" eight.dnom
Substitution2: "'numr' Numerators lookup 24 subtable" eight.numr
Substitution2: "'sups' Superscript lookup 23 subtable" uni2078
Substitution2: "'subs' Subscript lookup 22 subtable" uni2088
AlternateSubs2: "'aalt' Access All Alternates lookup 1 subtable" uni2078 eight.osf eight.dnom eight.numr uni2088
EndChar

StartChar: nine
Encoding: 57 57 28
Width: 563
Flags: HW
LayerCount: 2
Fore
SplineSet
199 -10 m 0
 170 -10 138 -7 117 -1 c 1
 117 77 l 1
 139 68 167 64 195 64 c 0
 358 64 411 196 417 350 c 1
 412 350 l 1
 383 300 333 264 256 264 c 0
 134 264 58 344 58 487 c 0
 58 633 141 724 275 724 c 0
 413 724 504 625 504 398 c 0
 504 208 442 -10 199 -10 c 0
269 333 m 0
 350 333 416 389 416 478 c 0
 416 547 374 650 274 650 c 0
 194 650 143 595 143 488 c 0
 143 384 189 333 269 333 c 0
EndSplineSet
Substitution2: "'onum' Oldstyle Figures lookup 33 subtable" nine.osf
Substitution2: "'frac' Diagonal Fractions lookup 27 subtable" nine.numr
Substitution2: "'dnom' Denominators lookup 25 subtable" nine.dnom
Substitution2: "'numr' Numerators lookup 24 subtable" nine.numr
Substitution2: "'sups' Superscript lookup 23 subtable" uni2079
Substitution2: "'subs' Subscript lookup 22 subtable" uni2089
AlternateSubs2: "'aalt' Access All Alternates lookup 1 subtable" uni2079 nine.osf nine.dnom nine.numr uni2089
EndChar

StartChar: colon
Encoding: 58 58 29
Width: 563
Flags: HW
LayerCount: 2
Fore
SplineSet
282 411 m 0
 247 411 222 431 222 478 c 0
 222 527 247 546 282 546 c 0
 316 546 342 527 342 478 c 0
 342 431 316 411 282 411 c 0
282 -11 m 0
 247 -11 221 10 221 57 c 0
 221 105 247 124 282 124 c 0
 315 124 342 106 342 57 c 0
 342 10 315 -11 282 -11 c 0
EndSplineSet
EndChar

StartChar: semicolon
Encoding: 59 59 30
Width: 563
Flags: HW
LayerCount: 2
Fore
SplineSet
294 411 m 0
 259 411 233 431 233 478 c 0
 233 527 259 546 294 546 c 0
 328 546 354 527 354 478 c 0
 354 431 327 411 294 411 c 0
190 -137 m 1
 211 -53 232 50 242 124 c 1
 343 124 l 1
 350 112 l 1
 331 35 295 -60 260 -137 c 1
 190 -137 l 1
EndSplineSet
EndChar

StartChar: less
Encoding: 60 60 31
Width: 563
Flags: HW
LayerCount: 2
Fore
SplineSet
480 122 m 1
 78 326 l 1
 78 376 l 1
 480 597 l 1
 480 519 l 1
 171 352 l 1
 480 200 l 1
 480 122 l 1
EndSplineSet
EndChar

StartChar: equal
Encoding: 61 61 32
Width: 563
Flags: HW
LayerCount: 2
Fore
SplineSet
63 410 m 1
 63 489 l 1
 501 489 l 1
 501 410 l 1
 63 410 l 1
63 215 m 1
 63 294 l 1
 501 294 l 1
 501 215 l 1
 63 215 l 1
EndSplineSet
Substitution2: "'sups' Superscript lookup 23 subtable" uni207C
Substitution2: "'subs' Subscript lookup 22 subtable" uni208C
AlternateSubs2: "'aalt' Access All Alternates lookup 1 subtable" uni208C uni207C
EndChar

StartChar: greater
Encoding: 62 62 33
Width: 563
Flags: HW
LayerCount: 2
Fore
SplineSet
80 122 m 1
 80 200 l 1
 389 352 l 1
 80 519 l 1
 80 597 l 1
 483 376 l 1
 483 326 l 1
 80 122 l 1
EndSplineSet
EndChar

StartChar: question
Encoding: 63 63 34
Width: 563
Flags: HW
LayerCount: 2
Fore
SplineSet
214 223 m 2
 214 297 235 339 303 393 c 0
 369 447 393 479 393 547 c 0
 393 607 352 647 276 647 c 0
 213 647 166 629 118 605 c 1
 86 677 l 1
 138 703 196 724 275 724 c 0
 401 724 477 658 477 551 c 0
 477 459 442 414 369 353 c 0
 300 296 288 271 288 214 c 2
 288 202 l 1
 214 202 l 1
 214 223 l 2
255 -11 m 0
 220 -11 194 10 194 57 c 0
 194 105 219 124 255 124 c 0
 288 124 315 106 315 57 c 0
 315 10 288 -11 255 -11 c 0
EndSplineSet
Substitution2: "'smcp' Lowercase to Small Capitals lookup 35 subtable" question.sc
Substitution2: "'c2sc' Capitals to Small Capitals lookup 34 subtable" question.sc
Substitution2: "'aalt' Access All Alternates lookup 0 subtable" question.sc
EndChar

StartChar: at
Encoding: 64 64 35
Width: 563
Flags: HW
LayerCount: 2
Fore
SplineSet
305 -89 m 0
 111 -89 10 58 10 294 c 0
 10 545 113 714 300 714 c 0
 457 714 554 577 554 357 c 0
 554 235 524 108 441 108 c 0
 399 108 373 146 367 193 c 1
 365 193 l 1
 346 143 310 108 259 108 c 0
 183 108 138 183 138 296 c 0
 138 428 203 520 306 520 c 0
 350 520 398 508 421 497 c 1
 411 294 l 2
 410 282 410 267 410 257 c 0
 410 190 424 167 443 167 c 0
 477 167 490 247 490 358 c 0
 490 543 416 652 299 652 c 0
 153 652 76 514 76 297 c 0
 76 95 152 -26 308 -26 c 0
 369 -26 422 -11 469 12 c 1
 469 -49 l 1
 421 -74 371 -89 305 -89 c 0
273 167 m 0
 317 167 334 226 339 323 c 2
 346 451 l 1
 335 456 319 461 303 461 c 0
 240 461 213 385 213 294 c 0
 213 207 236 167 273 167 c 0
EndSplineSet
EndChar

StartChar: A
Encoding: 65 65 36
Width: 563
GlyphClass: 2
Flags: HW
AnchorPoint: "Anchor-2" 543 714 basechar 0
AnchorPoint: "Anchor-1" 282 714 basechar 0
AnchorPoint: "Anchor-0" 282 0 basechar 0
LayerCount: 2
Fore
SplineSet
20 0 m 1
 231 716 l 1
 331 716 l 1
 543 0 l 1
 454 0 l 1
 392 222 l 1
 171 222 l 1
 109 0 l 1
 20 0 l 1
254 521 m 2
 192 300 l 1
 370 300 l 1
 308 521 l 2
 300 549 288 594 280 631 c 1
 273 594 261 548 254 521 c 2
EndSplineSet
Substitution2: "'c2sc' Capitals to Small Capitals lookup 34 subtable" a.sc
Substitution2: "Single Substitution lookup 32 subtable" ordfeminine
AlternateSubs2: "'aalt' Access All Alternates lookup 1 subtable" ordfeminine a.sc
EndChar

StartChar: B
Encoding: 66 66 37
Width: 563
GlyphClass: 2
Flags: HW
AnchorPoint: "Anchor-2" 543 714 basechar 0
AnchorPoint: "Anchor-1" 282 714 basechar 0
AnchorPoint: "Anchor-0" 282 0 basechar 0
LayerCount: 2
Fore
SplineSet
84 0 m 1
 84 714 l 1
 262 714 l 2
 406 714 492 665 492 539 c 0
 492 448 447 393 370 379 c 1
 370 374 l 1
 450 359 512 316 512 206 c 0
 512 77 428 0 290 0 c 2
 84 0 l 1
266 412 m 2
 364 412 404 450 404 527 c 0
 404 605 362 637 254 637 c 2
 167 637 l 1
 167 412 l 1
 266 412 l 2
275 77 m 2
 382 77 422 128 422 207 c 0
 422 286 381 335 268 335 c 2
 167 335 l 1
 167 77 l 1
 275 77 l 2
EndSplineSet
Substitution2: "'c2sc' Capitals to Small Capitals lookup 34 subtable" b.sc
Substitution2: "'aalt' Access All Alternates lookup 0 subtable" b.sc
EndChar

StartChar: C
Encoding: 67 67 38
Width: 563
GlyphClass: 2
Flags: HW
AnchorPoint: "Anchor-2" 543 714 basechar 0
AnchorPoint: "Anchor-1" 340 714 basechar 0
AnchorPoint: "Anchor-0" 328 0 basechar 0
LayerCount: 2
Fore
SplineSet
344 -10 m 0
 148 -10 56 137 56 357 c 0
 56 577 160 725 350 725 c 0
 415 725 473 710 523 684 c 1
 489 612 l 1
 450 634 399 647 350 647 c 0
 216 647 146 535 146 357 c 0
 146 180 208 70 349 70 c 0
 396 70 446 80 494 99 c 1
 494 18 l 1
 444 -2 400 -10 344 -10 c 0
EndSplineSet
Substitution2: "'c2sc' Capitals to Small Capitals lookup 34 subtable" c.sc
Substitution2: "'aalt' Access All Alternates lookup 0 subtable" c.sc
EndChar

StartChar: D
Encoding: 68 68 39
Width: 563
GlyphClass: 2
Flags: HW
AnchorPoint: "Anchor-3" 285 357 basechar 0
AnchorPoint: "Anchor-2" 563 714 basechar 0
AnchorPoint: "Anchor-1" 261 714 basechar 0
AnchorPoint: "Anchor-0" 248 0 basechar 0
LayerCount: 2
Fore
SplineSet
61 0 m 1
 61 714 l 1
 240 714 l 2
 416 714 526 593 526 365 c 0
 526 124 416 0 222 0 c 2
 61 0 l 1
215 78 m 2
 366 78 436 175 436 363 c 0
 436 554 362 636 226 636 c 2
 148 636 l 1
 148 78 l 1
 215 78 l 2
EndSplineSet
Substitution2: "'c2sc' Capitals to Small Capitals lookup 34 subtable" d.sc
Substitution2: "'aalt' Access All Alternates lookup 0 subtable" d.sc
EndChar

StartChar: E
Encoding: 69 69 40
Width: 563
GlyphClass: 2
Flags: HW
AnchorPoint: "Anchor-2" 543 714 basechar 0
AnchorPoint: "Anchor-1" 285 714 basechar 0
AnchorPoint: "Anchor-0" 286 0 basechar 0
LayerCount: 2
Fore
SplineSet
84 0 m 1
 84 714 l 1
 488 714 l 1
 488 635 l 1
 172 635 l 1
 172 412 l 1
 469 412 l 1
 469 332 l 1
 172 332 l 1
 172 79 l 1
 488 79 l 1
 488 0 l 1
 84 0 l 1
EndSplineSet
Substitution2: "'c2sc' Capitals to Small Capitals lookup 34 subtable" e.sc
Substitution2: "'aalt' Access All Alternates lookup 0 subtable" e.sc
EndChar

StartChar: F
Encoding: 70 70 41
Width: 563
GlyphClass: 2
Flags: HW
AnchorPoint: "Anchor-2" 543 714 basechar 0
AnchorPoint: "Anchor-1" 295 714 basechar 0
AnchorPoint: "Anchor-0" 295 0 basechar 0
LayerCount: 2
Fore
SplineSet
84 0 m 1
 84 714 l 1
 488 714 l 1
 488 635 l 1
 172 635 l 1
 172 382 l 1
 471 382 l 1
 471 303 l 1
 172 303 l 1
 172 0 l 1
 84 0 l 1
EndSplineSet
Substitution2: "'c2sc' Capitals to Small Capitals lookup 34 subtable" f.sc
Substitution2: "'aalt' Access All Alternates lookup 0 subtable" f.sc
EndChar

StartChar: G
Encoding: 71 71 42
Width: 563
GlyphClass: 2
Flags: HW
AnchorPoint: "Anchor-2" 543 714 basechar 0
AnchorPoint: "Anchor-1" 304 714 basechar 0
AnchorPoint: "Anchor-0" 316 0 basechar 0
LayerCount: 2
Fore
SplineSet
319 -10 m 0
 129 -10 38 126 38 351 c 0
 38 580 136 725 328 725 c 0
 393 725 448 710 497 682 c 1
 465 609 l 1
 427 633 385 646 330 646 c 0
 196 646 127 540 127 353 c 0
 127 191 179 68 321 68 c 0
 360 68 390 75 416 83 c 1
 416 298 l 1
 297 298 l 1
 297 377 l 1
 501 377 l 1
 501 26 l 1
 449 5 389 -10 319 -10 c 0
EndSplineSet
Substitution2: "'c2sc' Capitals to Small Capitals lookup 34 subtable" g.sc
Substitution2: "'aalt' Access All Alternates lookup 0 subtable" g.sc
EndChar

StartChar: H
Encoding: 72 72 43
Width: 563
GlyphClass: 2
Flags: HW
AnchorPoint: "Anchor-3" 282 373 basechar 0
AnchorPoint: "Anchor-2" 563 714 basechar 0
AnchorPoint: "Anchor-1" 282 714 basechar 0
AnchorPoint: "Anchor-0" 282 0 basechar 0
LayerCount: 2
Fore
SplineSet
61 0 m 1
 61 714 l 1
 149 714 l 1
 149 411 l 1
 415 411 l 1
 415 714 l 1
 503 714 l 1
 503 0 l 1
 415 0 l 1
 415 332 l 1
 149 332 l 1
 149 0 l 1
 61 0 l 1
EndSplineSet
Substitution2: "'c2sc' Capitals to Small Capitals lookup 34 subtable" h.sc
Substitution2: "'aalt' Access All Alternates lookup 0 subtable" h.sc
EndChar

StartChar: I
Encoding: 73 73 44
Width: 563
GlyphClass: 2
Flags: HW
AnchorPoint: "Anchor-2" 543 714 basechar 0
AnchorPoint: "Anchor-1" 282 714 basechar 0
AnchorPoint: "Anchor-0" 282 0 basechar 0
LayerCount: 2
Fore
SplineSet
97 0 m 1
 97 61 l 1
 237 73 l 1
 237 641 l 1
 97 653 l 1
 97 714 l 1
 466 714 l 1
 466 653 l 1
 324 641 l 1
 324 73 l 1
 466 61 l 1
 466 0 l 1
 97 0 l 1
EndSplineSet
Substitution2: "'c2sc' Capitals to Small Capitals lookup 34 subtable" i.sc
Substitution2: "'aalt' Access All Alternates lookup 0 subtable" i.sc
EndChar

StartChar: J
Encoding: 74 74 45
Width: 563
GlyphClass: 2
Flags: HW
AnchorPoint: "Anchor-2" 543 714 basechar 0
AnchorPoint: "Anchor-1" 394 714 basechar 0
AnchorPoint: "Anchor-0" 282 0 basechar 0
LayerCount: 2
Fore
SplineSet
225 -10 m 0
 174 -10 117 2 82 19 c 1
 82 101 l 1
 115 86 169 70 218 70 c 0
 301 70 350 118 350 225 c 2
 350 714 l 1
 438 714 l 1
 438 212 l 2
 438 75 365 -10 225 -10 c 0
EndSplineSet
Substitution2: "'c2sc' Capitals to Small Capitals lookup 34 subtable" j.sc
Substitution2: "'aalt' Access All Alternates lookup 0 subtable" j.sc
EndChar

StartChar: K
Encoding: 75 75 46
Width: 563
GlyphClass: 2
Flags: HW
AnchorPoint: "Anchor-2" 543 714 basechar 0
AnchorPoint: "Anchor-1" 282 714 basechar 0
AnchorPoint: "Anchor-0" 291 0 basechar 0
LayerCount: 2
Fore
SplineSet
61 0 m 1
 61 714 l 1
 148 714 l 1
 148 339 l 1
 171 373 195 410 225 453 c 2
 413 714 l 1
 513 714 l 1
 284 392 l 1
 523 0 l 1
 423 0 l 1
 224 331 l 1
 148 247 l 1
 148 0 l 1
 61 0 l 1
EndSplineSet
Substitution2: "'c2sc' Capitals to Small Capitals lookup 34 subtable" k.sc
Substitution2: "'aalt' Access All Alternates lookup 0 subtable" k.sc
EndChar

StartChar: L
Encoding: 76 76 47
Width: 563
GlyphClass: 2
Flags: HW
AnchorPoint: "Anchor-3" 282 357 basechar 0
AnchorPoint: "Anchor-2" 416 714 basechar 0
AnchorPoint: "Anchor-1" 146 714 basechar 0
AnchorPoint: "Anchor-0" 308 0 basechar 0
LayerCount: 2
Fore
SplineSet
100 0 m 1
 100 714 l 1
 188 714 l 1
 188 82 l 1
 488 82 l 1
 488 0 l 1
 100 0 l 1
EndSplineSet
Substitution2: "'c2sc' Capitals to Small Capitals lookup 34 subtable" l.sc
Substitution2: "'aalt' Access All Alternates lookup 0 subtable" l.sc
EndChar

StartChar: M
Encoding: 77 77 48
Width: 563
GlyphClass: 2
Flags: HW
AnchorPoint: "Anchor-2" 563 714 basechar 0
AnchorPoint: "Anchor-1" 286 714 basechar 0
AnchorPoint: "Anchor-0" 282 0 basechar 0
LayerCount: 2
Fore
SplineSet
43 0 m 1
 43 714 l 1
 168 714 l 1
 279 295 l 1
 282 295 l 1
 394 714 l 1
 521 714 l 1
 521 0 l 1
 438 0 l 1
 438 388 l 2
 438 468 442 558 450 632 c 1
 446 632 l 1
 322 188 l 1
 239 188 l 1
 115 632 l 1
 111 632 l 1
 119 573 125 470 125 387 c 2
 125 0 l 1
 43 0 l 1
EndSplineSet
Substitution2: "'c2sc' Capitals to Small Capitals lookup 34 subtable" m.sc
Substitution2: "'aalt' Access All Alternates lookup 0 subtable" m.sc
EndChar

StartChar: N
Encoding: 78 78 49
Width: 563
GlyphClass: 2
Flags: HW
AnchorPoint: "Anchor-2" 563 714 basechar 0
AnchorPoint: "Anchor-1" 287 714 basechar 0
AnchorPoint: "Anchor-0" 282 0 basechar 0
LayerCount: 2
Fore
SplineSet
61 0 m 1
 61 714 l 1
 179 714 l 1
 425 107 l 1
 429 107 l 1
 424 165 419 231 419 307 c 2
 419 714 l 1
 503 714 l 1
 503 0 l 1
 393 0 l 1
 137 625 l 1
 132 625 l 1
 138 555 144 486 144 412 c 2
 144 0 l 1
 61 0 l 1
EndSplineSet
Substitution2: "'c2sc' Capitals to Small Capitals lookup 34 subtable" n.sc
Substitution2: "'aalt' Access All Alternates lookup 0 subtable" n.sc
EndChar

StartChar: O
Encoding: 79 79 50
Width: 563
GlyphClass: 2
Flags: HW
AnchorPoint: "Anchor-3" 282 357 basechar 0
AnchorPoint: "Anchor-2" 563 714 basechar 0
AnchorPoint: "Anchor-1" 282 714 basechar 0
AnchorPoint: "Anchor-0" 282 0 basechar 0
LayerCount: 2
Fore
SplineSet
281 -10 m 0
 106 -10 38 145 38 358 c 0
 38 584 113 726 282 726 c 0
 455 726 526 573 526 359 c 0
 526 143 456 -10 281 -10 c 0
283 68 m 0
 393 68 436 173 436 358 c 0
 436 543 392 648 283 648 c 0
 170 648 127 541 127 358 c 0
 127 174 173 68 283 68 c 0
EndSplineSet
Substitution2: "'c2sc' Capitals to Small Capitals lookup 34 subtable" o.sc
Substitution2: "Single Substitution lookup 32 subtable" ordmasculine
AlternateSubs2: "'aalt' Access All Alternates lookup 1 subtable" ordmasculine o.sc
EndChar

StartChar: P
Encoding: 80 80 51
Width: 563
GlyphClass: 2
Flags: HW
AnchorPoint: "Anchor-2" 563 714 basechar 0
AnchorPoint: "Anchor-1" 282 714 basechar 0
AnchorPoint: "Anchor-0" 282 0 basechar 0
LayerCount: 2
Fore
SplineSet
84 0 m 1
 84 714 l 1
 281 714 l 2
 441 714 512 638 512 505 c 0
 512 382 449 276 269 276 c 2
 171 276 l 1
 171 0 l 1
 84 0 l 1
260 354 m 2
 369 354 422 395 422 500 c 0
 422 596 375 636 275 636 c 2
 171 636 l 1
 171 354 l 1
 260 354 l 2
EndSplineSet
Substitution2: "'c2sc' Capitals to Small Capitals lookup 34 subtable" p.sc
Substitution2: "'aalt' Access All Alternates lookup 0 subtable" p.sc
EndChar

StartChar: Q
Encoding: 81 81 52
Width: 563
GlyphClass: 2
Flags: HW
AnchorPoint: "Anchor-3" 282 357 basechar 0
AnchorPoint: "Anchor-2" 563 714 basechar 0
AnchorPoint: "Anchor-1" 282 714 basechar 0
AnchorPoint: "Anchor-0" 282 -220 basechar 0
LayerCount: 2
Fore
SplineSet
281 -10 m 0
 106 -10 38 145 38 358 c 0
 38 584 113 726 282 726 c 0
 455 726 526 573 526 359 c 0
 526 207 491 87 411 28 c 1
 515 -180 l 1
 418 -180 l 1
 335 -5 l 1
 318 -8 300 -10 281 -10 c 0
283 68 m 0
 393 68 436 173 436 358 c 0
 436 543 392 648 283 648 c 0
 170 648 127 541 127 358 c 0
 127 174 173 68 283 68 c 0
EndSplineSet
Substitution2: "'c2sc' Capitals to Small Capitals lookup 34 subtable" q.sc
Substitution2: "'aalt' Access All Alternates lookup 0 subtable" q.sc
EndChar

StartChar: R
Encoding: 82 82 53
Width: 563
GlyphClass: 2
Flags: HW
AnchorPoint: "Anchor-2" 543 714 basechar 0
AnchorPoint: "Anchor-1" 282 714 basechar 0
AnchorPoint: "Anchor-0" 305 0 basechar 0
LayerCount: 2
Fore
SplineSet
84 0 m 1
 84 714 l 1
 247 714 l 2
 405 714 485 647 485 513 c 0
 485 400 429 344 359 317 c 1
 536 0 l 1
 439 0 l 1
 279 293 l 1
 171 293 l 1
 171 0 l 1
 84 0 l 1
245 370 m 2
 351 370 394 417 394 506 c 0
 394 600 346 637 242 637 c 2
 171 637 l 1
 171 370 l 1
 245 370 l 2
EndSplineSet
Substitution2: "'c2sc' Capitals to Small Capitals lookup 34 subtable" r.sc
Substitution2: "'aalt' Access All Alternates lookup 0 subtable" r.sc
EndChar

StartChar: S
Encoding: 83 83 54
Width: 563
GlyphClass: 2
Flags: HW
AnchorPoint: "Anchor-2" 543 714 basechar 0
AnchorPoint: "Anchor-1" 297 714 basechar 0
AnchorPoint: "Anchor-0" 282 0 basechar 0
LayerCount: 2
Fore
SplineSet
258 -10 m 0
 190 -10 118 5 76 26 c 1
 76 107 l 1
 125 85 194 66 259 66 c 0
 360 66 407 114 407 191 c 0
 407 260 367 280 254 332 c 0
 170 371 88 415 88 536 c 0
 88 661 173 725 306 725 c 0
 372 725 434 709 484 685 c 1
 454 612 l 1
 411 633 356 647 305 647 c 0
 226 647 177 612 177 536 c 0
 177 464 222 441 316 398 c 0
 422 349 496 313 496 192 c 0
 496 63 412 -10 258 -10 c 0
EndSplineSet
Substitution2: "'c2sc' Capitals to Small Capitals lookup 34 subtable" s.sc
Substitution2: "'aalt' Access All Alternates lookup 0 subtable" s.sc
EndChar

StartChar: T
Encoding: 84 84 55
Width: 563
GlyphClass: 2
Flags: HW
AnchorPoint: "Anchor-3" 282 357 basechar 0
AnchorPoint: "Anchor-2" 543 714 basechar 0
AnchorPoint: "Anchor-1" 282 714 basechar 0
AnchorPoint: "Anchor-0" 282 0 basechar 0
LayerCount: 2
Fore
SplineSet
237 0 m 1
 237 635 l 1
 41 635 l 1
 41 714 l 1
 522 714 l 1
 522 635 l 1
 325 635 l 1
 325 0 l 1
 237 0 l 1
EndSplineSet
Substitution2: "'c2sc' Capitals to Small Capitals lookup 34 subtable" t.sc
Substitution2: "'aalt' Access All Alternates lookup 0 subtable" t.sc
EndChar

StartChar: U
Encoding: 85 85 56
Width: 563
GlyphClass: 2
Flags: HW
AnchorPoint: "Anchor-2" 543 714 basechar 0
AnchorPoint: "Anchor-1" 282 714 basechar 0
AnchorPoint: "Anchor-0" 282 0 basechar 0
LayerCount: 2
Fore
SplineSet
281 -10 m 0
 126 -10 61 83 61 241 c 2
 61 714 l 1
 149 714 l 1
 149 245 l 2
 149 133 185 68 282 68 c 0
 384 68 415 138 415 246 c 2
 415 714 l 1
 503 714 l 1
 503 240 l 2
 503 88 439 -10 281 -10 c 0
EndSplineSet
Substitution2: "'c2sc' Capitals to Small Capitals lookup 34 subtable" u.sc
Substitution2: "'aalt' Access All Alternates lookup 0 subtable" u.sc
EndChar

StartChar: V
Encoding: 86 86 57
Width: 563
GlyphClass: 2
Flags: HW
AnchorPoint: "Anchor-2" 543 714 basechar 0
AnchorPoint: "Anchor-1" 282 714 basechar 0
AnchorPoint: "Anchor-0" 282 0 basechar 0
LayerCount: 2
Fore
SplineSet
237 0 m 1
 21 714 l 1
 110 714 l 1
 242 250 l 2
 258 191 272 132 282 85 c 1
 284 85 l 1
 293 131 306 192 324 253 c 2
 453 714 l 1
 542 714 l 1
 328 0 l 1
 237 0 l 1
EndSplineSet
Substitution2: "'c2sc' Capitals to Small Capitals lookup 34 subtable" v.sc
Substitution2: "'aalt' Access All Alternates lookup 0 subtable" v.sc
EndChar

StartChar: W
Encoding: 87 87 58
Width: 563
GlyphClass: 2
Flags: HW
AnchorPoint: "Anchor-2" 543 714 basechar 0
AnchorPoint: "Anchor-1" 282 714 basechar 0
AnchorPoint: "Anchor-0" 282 0 basechar 0
LayerCount: 2
Fore
SplineSet
95 0 m 1
 21 714 l 1
 99 714 l 1
 109 609 119 503 128 398 c 0
 137 311 148 138 149 91 c 1
 151 91 l 1
 158 137 177 242 190 304 c 2
 239 536 l 1
 325 536 l 1
 377 302 l 2
 392 233 411 137 417 91 c 1
 420 91 l 1
 421 138 428 299 436 400 c 0
 445 505 453 609 462 714 c 1
 542 714 l 1
 475 0 l 1
 377 0 l 1
 307 328 l 2
 295 388 287 427 284 448 c 1
 281 448 l 1
 278 427 272 388 259 327 c 2
 191 0 l 1
 95 0 l 1
EndSplineSet
Substitution2: "'c2sc' Capitals to Small Capitals lookup 34 subtable" w.sc
Substitution2: "'aalt' Access All Alternates lookup 0 subtable" w.sc
EndChar

StartChar: X
Encoding: 88 88 59
Width: 563
GlyphClass: 2
Flags: HW
AnchorPoint: "Anchor-2" 543 714 basechar 0
AnchorPoint: "Anchor-1" 282 714 basechar 0
AnchorPoint: "Anchor-0" 282 0 basechar 0
LayerCount: 2
Fore
SplineSet
30 0 m 1
 236 370 l 1
 44 714 l 1
 139 714 l 1
 282 442 l 1
 426 714 l 1
 520 714 l 1
 325 369 l 1
 534 0 l 1
 441 0 l 1
 280 298 l 1
 123 0 l 1
 30 0 l 1
EndSplineSet
Substitution2: "'c2sc' Capitals to Small Capitals lookup 34 subtable" x.sc
Substitution2: "'aalt' Access All Alternates lookup 0 subtable" x.sc
EndChar

StartChar: Y
Encoding: 89 89 60
Width: 563
GlyphClass: 2
Flags: HW
AnchorPoint: "Anchor-2" 543 714 basechar 0
AnchorPoint: "Anchor-1" 282 714 basechar 0
AnchorPoint: "Anchor-0" 282 0 basechar 0
LayerCount: 2
Fore
SplineSet
239 0 m 1
 239 276 l 1
 30 714 l 1
 126 714 l 1
 282 352 l 1
 440 714 l 1
 534 714 l 1
 324 276 l 1
 324 0 l 1
 239 0 l 1
EndSplineSet
Substitution2: "'c2sc' Capitals to Small Capitals lookup 34 subtable" y.sc
Substitution2: "'aalt' Access All Alternates lookup 0 subtable" y.sc
EndChar

StartChar: Z
Encoding: 90 90 61
Width: 563
GlyphClass: 2
Flags: HW
AnchorPoint: "Anchor-2" 543 714 basechar 0
AnchorPoint: "Anchor-1" 293 714 basechar 0
AnchorPoint: "Anchor-0" 297 0 basechar 0
LayerCount: 2
Fore
SplineSet
84 0 m 1
 84 71 l 1
 388 636 l 1
 101 636 l 1
 101 714 l 1
 480 714 l 1
 480 643 l 1
 179 79 l 1
 483 79 l 1
 483 0 l 1
 84 0 l 1
EndSplineSet
Substitution2: "'c2sc' Capitals to Small Capitals lookup 34 subtable" z.sc
Substitution2: "'aalt' Access All Alternates lookup 0 subtable" z.sc
EndChar

StartChar: bracketleft
Encoding: 91 91 62
Width: 563
Flags: HW
LayerCount: 2
Fore
SplineSet
218 -159 m 1
 218 716 l 1
 438 716 l 1
 438 646 l 1
 301 646 l 1
 301 -89 l 1
 438 -89 l 1
 438 -159 l 1
 218 -159 l 1
EndSplineSet
Substitution2: "'smcp' Lowercase to Small Capitals lookup 35 subtable" bracketleft.sc
Substitution2: "'c2sc' Capitals to Small Capitals lookup 34 subtable" bracketleft.sc
Substitution2: "'aalt' Access All Alternates lookup 0 subtable" bracketleft.sc
EndChar

StartChar: backslash
Encoding: 92 92 63
Width: 563
Flags: HW
LayerCount: 2
Fore
SplineSet
458 -1 m 1
 375 -1 l 1
 105 715 l 1
 188 715 l 1
 458 -1 l 1
EndSplineSet
EndChar

StartChar: bracketright
Encoding: 93 93 64
Width: 563
Flags: HW
LayerCount: 2
Fore
SplineSet
346 721 m 1
 346 -154 l 1
 127 -154 l 1
 127 -83 l 1
 263 -83 l 1
 263 651 l 1
 127 651 l 1
 127 721 l 1
 346 721 l 1
EndSplineSet
Substitution2: "'smcp' Lowercase to Small Capitals lookup 35 subtable" bracketright.sc
Substitution2: "'c2sc' Capitals to Small Capitals lookup 34 subtable" bracketright.sc
Substitution2: "'aalt' Access All Alternates lookup 0 subtable" bracketright.sc
EndChar

StartChar: asciicircum
Encoding: 94 94 65
Width: 563
Flags: HW
LayerCount: 2
Fore
SplineSet
47 291 m 1
 250 717 l 1
 299 717 l 1
 516 291 l 1
 437 291 l 1
 275 620 l 1
 125 291 l 1
 47 291 l 1
EndSplineSet
EndChar

StartChar: underscore
Encoding: 95 95 66
Width: 563
Flags: HW
LayerCount: 2
Fore
SplineSet
0 -155 m 1
 0 -76 l 1
 563 -76 l 1
 563 -155 l 1
 0 -155 l 1
EndSplineSet
EndChar

StartChar: grave
Encoding: 96 96 67
Width: 563
Flags: HW
LayerCount: 2
Fore
SplineSet
298 606 m 1
 254 641 183 717 159 756 c 1
 159 766 l 1
 261 766 l 1
 282 721 324 655 354 618 c 1
 354 606 l 1
 298 606 l 1
EndSplineSet
EndChar

StartChar: a
Encoding: 97 97 68
Width: 563
GlyphClass: 2
Flags: HW
AnchorPoint: "Anchor-2" 543 536 basechar 0
AnchorPoint: "Anchor-1" 290 536 basechar 0
AnchorPoint: "Anchor-0" 282 0 basechar 0
LayerCount: 2
Fore
SplineSet
232 -10 m 0
 135 -10 66 42 66 148 c 0
 66 263 146 318 295 322 c 2
 403 325 l 1
 403 351 l 2
 403 444 353 473 279 473 c 0
 225 473 174 457 131 432 c 1
 100 499 l 1
 151 525 208 546 284 546 c 0
 412 546 484 488 484 362 c 2
 484 0 l 1
 416 0 l 1
 403 75 l 1
 399 75 l 1
 358 19 306 -10 232 -10 c 0
250 63 m 0
 330 63 402 111 402 214 c 2
 402 262 l 1
 315 259 l 2
 199 255 152 218 152 151 c 0
 152 88 193 63 250 63 c 0
EndSplineSet
Substitution2: "'smcp' Lowercase to Small Capitals lookup 35 subtable" a.sc
Substitution2: "Single Substitution lookup 32 subtable" ordfeminine
AlternateSubs2: "'aalt' Access All Alternates lookup 1 subtable" ordfeminine a.sc
EndChar

StartChar: b
Encoding: 98 98 69
Width: 563
GlyphClass: 2
Flags: HW
AnchorPoint: "Anchor-2" 543 760 basechar 0
AnchorPoint: "Anchor-1" 282 760 basechar 0
AnchorPoint: "Anchor-0" 282 0 basechar 0
LayerCount: 2
Fore
SplineSet
312 -10 m 0
 239 -10 189 24 157 68 c 1
 151 68 l 1
 140 0 l 1
 73 0 l 1
 73 760 l 1
 158 760 l 1
 158 576 l 2
 158 539 158 503 154 466 c 1
 158 466 l 1
 187 509 236 546 312 546 c 0
 435 546 514 451 514 269 c 0
 514 85 434 -10 312 -10 c 0
292 63 m 0
 382 63 424 136 424 268 c 0
 424 402 381 473 291 473 c 0
 205 473 158 403 158 272 c 0
 158 134 202 63 292 63 c 0
EndSplineSet
Substitution2: "'smcp' Lowercase to Small Capitals lookup 35 subtable" b.sc
Substitution2: "'aalt' Access All Alternates lookup 0 subtable" b.sc
EndChar

StartChar: c
Encoding: 99 99 70
Width: 563
GlyphClass: 2
Flags: HW
AnchorPoint: "Anchor-2" 543 536 basechar 0
AnchorPoint: "Anchor-1" 312 536 basechar 0
AnchorPoint: "Anchor-0" 317 0 basechar 0
LayerCount: 2
Fore
SplineSet
324 -10 m 0
 174 -10 80 71 80 264 c 0
 80 470 185 546 330 546 c 0
 389 546 437 534 481 512 c 1
 454 440 l 1
 414 462 379 470 335 470 c 0
 220 470 169 404 169 266 c 0
 169 124 225 66 332 66 c 0
 385 66 435 80 474 98 c 1
 474 20 l 1
 434 1 379 -10 324 -10 c 0
EndSplineSet
Substitution2: "'smcp' Lowercase to Small Capitals lookup 35 subtable" c.sc
Substitution2: "'aalt' Access All Alternates lookup 0 subtable" c.sc
EndChar

StartChar: d
Encoding: 100 100 71
Width: 563
GlyphClass: 2
Flags: HW
AnchorPoint: "Anchor-3" 282 268 basechar 0
AnchorPoint: "Anchor-2" 543 760 basechar 0
AnchorPoint: "Anchor-1" 282 760 basechar 0
AnchorPoint: "Anchor-0" 282 0 basechar 0
LayerCount: 2
Fore
SplineSet
255 -10 m 0
 131 -10 50 82 50 270 c 0
 50 449 124 546 261 546 c 0
 333 546 379 512 405 468 c 1
 410 468 l 1
 407 490 404 522 404 547 c 2
 404 760 l 1
 491 760 l 1
 491 0 l 1
 421 0 l 1
 409 72 l 1
 405 72 l 1
 377 25 331 -10 255 -10 c 0
275 63 m 0
 366 63 405 134 405 247 c 2
 405 267 l 2
 405 389 374 473 278 473 c 0
 187 473 139 403 139 261 c 0
 139 130 180 63 275 63 c 0
EndSplineSet
Substitution2: "'smcp' Lowercase to Small Capitals lookup 35 subtable" d.sc
Substitution2: "'aalt' Access All Alternates lookup 0 subtable" d.sc
EndChar

StartChar: e
Encoding: 101 101 72
Width: 563
GlyphClass: 2
Flags: HW
AnchorPoint: "Anchor-2" 543 536 basechar 0
AnchorPoint: "Anchor-1" 286 536 basechar 0
AnchorPoint: "Anchor-0" 292 0 basechar 0
LayerCount: 2
Fore
SplineSet
318 -10 m 0
 155 -10 55 88 55 265 c 0
 55 441 148 546 292 546 c 0
 428 546 509 448 509 296 c 2
 509 250 l 1
 143 250 l 1
 147 116 214 64 322 64 c 0
 379 64 431 80 486 107 c 1
 486 28 l 1
 430 1 374 -10 318 -10 c 0
422 322 m 1
 419 414 374 473 292 473 c 0
 209 473 156 416 145 322 c 1
 422 322 l 1
EndSplineSet
Substitution2: "'smcp' Lowercase to Small Capitals lookup 35 subtable" e.sc
Substitution2: "'aalt' Access All Alternates lookup 0 subtable" e.sc
EndChar

StartChar: f
Encoding: 102 102 73
Width: 563
GlyphClass: 2
Flags: HW
AnchorPoint: "Anchor-2" 577 765 basechar 0
AnchorPoint: "Anchor-1" 376 765 basechar 0
AnchorPoint: "Anchor-0" 282 0 basechar 0
LayerCount: 2
Fore
SplineSet
222 0 m 1
 222 462 l 1
 60 462 l 1
 60 523 l 1
 222 537 l 1
 222 593 l 2
 222 724 292 765 403 765 c 0
 456 765 498 756 530 746 c 1
 510 677 l 1
 482 686 444 692 411 692 c 0
 345 692 309 669 309 586 c 2
 309 536 l 1
 500 536 l 1
 500 462 l 1
 309 462 l 1
 309 0 l 1
 222 0 l 1
EndSplineSet
Substitution2: "'smcp' Lowercase to Small Capitals lookup 35 subtable" f.sc
Substitution2: "'aalt' Access All Alternates lookup 0 subtable" f.sc
EndChar

StartChar: g
Encoding: 103 103 74
Width: 563
GlyphClass: 2
Flags: HW
AnchorPoint: "Anchor-2" 543 536 basechar 0
AnchorPoint: "Anchor-1" 282 536 basechar 0
AnchorPoint: "Anchor-0" 282 -245 basechar 0
LayerCount: 2
Fore
SplineSet
259 -245 m 0
 193 -245 132 -231 80 -208 c 1
 80 -128 l 1
 132 -158 203 -173 258 -173 c 0
 366 -173 407 -113 407 -17 c 2
 407 5 l 2
 407 21 408 41 410 65 c 1
 407 65 l 1
 372 10 324 -10 259 -10 c 0
 127 -10 50 92 50 265 c 0
 50 439 127 546 256 546 c 0
 322 546 369 523 405 468 c 1
 410 468 l 1
 421 536 l 1
 491 536 l 1
 491 -14 l 2
 491 -167 417 -245 259 -245 c 0
280 63 m 0
 364 63 411 119 411 246 c 2
 411 267 l 2
 411 412 362 473 277 473 c 0
 183 473 139 399 139 268 c 0
 139 134 185 63 280 63 c 0
EndSplineSet
Substitution2: "'smcp' Lowercase to Small Capitals lookup 35 subtable" g.sc
Substitution2: "'aalt' Access All Alternates lookup 0 subtable" g.sc
EndChar

StartChar: h
Encoding: 104 104 75
Width: 563
GlyphClass: 2
Flags: HW
AnchorPoint: "Anchor-3" 282 268 basechar 0
AnchorPoint: "Anchor-2" 543 760 basechar 0
AnchorPoint: "Anchor-1" 116 760 basechar 0
AnchorPoint: "Anchor-0" 282 0 basechar 0
LayerCount: 2
Fore
SplineSet
73 0 m 1
 73 760 l 1
 160 760 l 1
 160 540 l 2
 160 515 157 478 156 455 c 1
 161 455 l 1
 192 515 246 546 318 546 c 0
 423 546 496 487 496 350 c 2
 496 0 l 1
 409 0 l 1
 409 332 l 2
 409 428 369 473 296 473 c 0
 210 473 160 402 160 278 c 2
 160 0 l 1
 73 0 l 1
EndSplineSet
Substitution2: "'smcp' Lowercase to Small Capitals lookup 35 subtable" h.sc
Substitution2: "'subs' Subscript lookup 22 subtable" uni2095
AlternateSubs2: "'aalt' Access All Alternates lookup 1 subtable" h.sc uni2095
EndChar

StartChar: i
Encoding: 105 105 76
Width: 563
GlyphClass: 2
Flags: HW
AnchorPoint: "Anchor-3" 297 284 basechar 0
AnchorPoint: "Anchor-2" 465 762 basechar 0
AnchorPoint: "Anchor-1" 287 762 basechar 0
AnchorPoint: "Anchor-0" 299 0 basechar 0
LayerCount: 2
Fore
SplineSet
287 633 m 0
 252 633 226 654 226 697 c 0
 226 741 252 762 287 762 c 0
 321 762 348 741 348 697 c 0
 348 654 321 633 287 633 c 0
78 0 m 1
 78 60 l 1
 251 73 l 1
 251 462 l 1
 90 475 l 1
 90 536 l 1
 338 536 l 1
 338 73 l 1
 498 60 l 1
 498 0 l 1
 78 0 l 1
EndSplineSet
Substitution2: "'smcp' Lowercase to Small Capitals lookup 35 subtable" i.sc
Substitution2: "Single Substitution lookup 5 subtable" dotlessi
Substitution2: "Single Substitution lookup 4 subtable" dotlessi
AlternateSubs2: "'aalt' Access All Alternates lookup 1 subtable" dotlessi i.sc
EndChar

StartChar: j
Encoding: 106 106 77
Width: 563
GlyphClass: 2
Flags: HW
AnchorPoint: "Anchor-2" 487 762 basechar 0
AnchorPoint: "Anchor-1" 320 762 basechar 0
AnchorPoint: "Anchor-0" 209 -245 basechar 0
LayerCount: 2
Fore
SplineSet
321 633 m 0
 286 633 262 654 262 697 c 0
 262 741 286 762 321 762 c 0
 355 762 382 741 382 697 c 0
 382 653 355 633 321 633 c 0
180 -245 m 0
 139 -245 88 -238 55 -228 c 1
 55 -150 l 1
 88 -162 135 -171 172 -171 c 0
 252 -171 288 -130 288 -48 c 2
 288 462 l 1
 114 475 l 1
 114 536 l 1
 375 536 l 1
 375 -56 l 2
 375 -180 305 -245 180 -245 c 0
EndSplineSet
Substitution2: "'smcp' Lowercase to Small Capitals lookup 35 subtable" j.sc
Substitution2: "Single Substitution lookup 5 subtable" uni0237
Substitution2: "Single Substitution lookup 4 subtable" uni0237
AlternateSubs2: "'aalt' Access All Alternates lookup 1 subtable" uni0237 j.sc
EndChar

StartChar: k
Encoding: 107 107 78
Width: 563
GlyphClass: 2
Flags: HW
AnchorPoint: "Anchor-2" 474 849 basechar 0
AnchorPoint: "Anchor-1" 318 760 basechar 0
AnchorPoint: "Anchor-0" 315 0 basechar 0
LayerCount: 2
Fore
SplineSet
90 0 m 1
 90 760 l 1
 177 760 l 1
 177 400 l 2
 177 356 174 303 171 255 c 1
 172 255 l 1
 194 285 214 308 238 335 c 2
 416 536 l 1
 523 536 l 1
 312 305 l 1
 536 0 l 1
 434 0 l 1
 253 248 l 1
 177 179 l 1
 177 0 l 1
 90 0 l 1
EndSplineSet
Substitution2: "'smcp' Lowercase to Small Capitals lookup 35 subtable" k.sc
Substitution2: "'subs' Subscript lookup 22 subtable" uni2096
AlternateSubs2: "'aalt' Access All Alternates lookup 1 subtable" k.sc uni2096
EndChar

StartChar: l
Encoding: 108 108 79
Width: 563
GlyphClass: 2
Flags: HW
AnchorPoint: "Anchor-3" 296 381 basechar 0
AnchorPoint: "Anchor-2" 463 760 basechar 0
AnchorPoint: "Anchor-1" 282 760 basechar 0
AnchorPoint: "Anchor-0" 296 0 basechar 0
LayerCount: 2
Fore
SplineSet
78 0 m 1
 78 60 l 1
 252 73 l 1
 252 687 l 1
 83 699 l 1
 83 760 l 1
 339 760 l 1
 339 73 l 1
 498 60 l 1
 498 0 l 1
 78 0 l 1
EndSplineSet
Substitution2: "'smcp' Lowercase to Small Capitals lookup 35 subtable" l.sc
Substitution2: "'subs' Subscript lookup 22 subtable" uni2097
AlternateSubs2: "'aalt' Access All Alternates lookup 1 subtable" l.sc uni2097
EndChar

StartChar: m
Encoding: 109 109 80
Width: 563
GlyphClass: 2
Flags: HW
AnchorPoint: "Anchor-2" 543 536 basechar 0
AnchorPoint: "Anchor-1" 305 536 basechar 0
AnchorPoint: "Anchor-0" 286 0 basechar 0
LayerCount: 2
Fore
SplineSet
41 0 m 1
 41 536 l 1
 102 536 l 1
 114 479 l 1
 119 479 l 1
 142 529 173 546 215 546 c 0
 267 546 293 521 309 472 c 1
 312 472 l 1
 334 521 365 546 417 546 c 0
 494 546 523 492 523 369 c 2
 523 0 l 1
 444 0 l 1
 444 356 l 2
 444 429 437 470 393 470 c 0
 342 470 322 405 322 295 c 2
 322 0 l 1
 242 0 l 1
 242 356 l 2
 242 429 232 470 188 470 c 0
 134 470 120 393 120 291 c 2
 120 0 l 1
 41 0 l 1
EndSplineSet
Substitution2: "'smcp' Lowercase to Small Capitals lookup 35 subtable" m.sc
Substitution2: "'subs' Subscript lookup 22 subtable" uni2098
AlternateSubs2: "'aalt' Access All Alternates lookup 1 subtable" m.sc uni2098
EndChar

StartChar: n
Encoding: 110 110 81
Width: 563
GlyphClass: 2
Flags: HW
AnchorPoint: "Anchor-2" 543 536 basechar 0
AnchorPoint: "Anchor-1" 293 536 basechar 0
AnchorPoint: "Anchor-0" 287 0 basechar 0
LayerCount: 2
Fore
SplineSet
73 0 m 1
 73 536 l 1
 143 536 l 1
 155 460 l 1
 160 460 l 1
 190 519 250 546 323 546 c 0
 429 546 496 487 496 355 c 2
 496 0 l 1
 409 0 l 1
 409 343 l 2
 409 431 376 473 301 473 c 0
 202 473 160 401 160 276 c 2
 160 0 l 1
 73 0 l 1
EndSplineSet
Substitution2: "'smcp' Lowercase to Small Capitals lookup 35 subtable" n.sc
Substitution2: "'sups' Superscript lookup 23 subtable" uni207F
Substitution2: "'subs' Subscript lookup 22 subtable" uni2099
AlternateSubs2: "'aalt' Access All Alternates lookup 1 subtable" uni207F n.sc uni2099
EndChar

StartChar: o
Encoding: 111 111 82
Width: 563
GlyphClass: 2
Flags: HW
AnchorPoint: "Anchor-3" 282 268 basechar 0
AnchorPoint: "Anchor-2" 543 536 basechar 0
AnchorPoint: "Anchor-1" 282 536 basechar 0
AnchorPoint: "Anchor-0" 282 0 basechar 0
LayerCount: 2
Fore
SplineSet
283 -10 m 0
 146 -10 50 85 50 270 c 0
 50 452 143 546 280 546 c 0
 416 546 514 452 514 267 c 0
 514 85 419 -10 283 -10 c 0
282 62 m 0
 377 62 425 138 425 269 c 0
 425 400 376 474 281 474 c 0
 186 474 137 400 137 269 c 0
 137 138 186 62 282 62 c 0
EndSplineSet
Substitution2: "'smcp' Lowercase to Small Capitals lookup 35 subtable" o.sc
Substitution2: "Single Substitution lookup 32 subtable" ordmasculine
AlternateSubs2: "'aalt' Access All Alternates lookup 1 subtable" ordmasculine o.sc
EndChar

StartChar: p
Encoding: 112 112 83
Width: 563
GlyphClass: 2
Flags: HW
AnchorPoint: "Anchor-2" 543 536 basechar 0
AnchorPoint: "Anchor-1" 299 536 basechar 0
AnchorPoint: "Anchor-0" 299 -240 basechar 0
LayerCount: 2
Fore
SplineSet
73 -240 m 1
 73 536 l 1
 144 536 l 1
 155 463 l 1
 159 463 l 1
 189 513 237 546 312 546 c 0
 435 546 514 451 514 269 c 0
 514 86 434 -10 311 -10 c 0
 238 -10 190 27 159 69 c 1
 153 69 l 1
 157 46 159 15 159 -11 c 2
 159 -240 l 1
 73 -240 l 1
292 63 m 0
 382 63 424 133 424 271 c 0
 424 407 383 473 291 473 c 0
 198 473 159 407 159 289 c 2
 159 269 l 2
 159 141 194 63 292 63 c 0
EndSplineSet
Substitution2: "'smcp' Lowercase to Small Capitals lookup 35 subtable" p.sc
Substitution2: "'subs' Subscript lookup 22 subtable" uni209A
AlternateSubs2: "'aalt' Access All Alternates lookup 1 subtable" p.sc uni209A
EndChar

StartChar: q
Encoding: 113 113 84
Width: 563
GlyphClass: 2
Flags: HW
AnchorPoint: "Anchor-2" 543 536 basechar 0
AnchorPoint: "Anchor-1" 265 536 basechar 0
AnchorPoint: "Anchor-0" 265 -240 basechar 0
LayerCount: 2
Fore
SplineSet
404 -11 m 2
 404 16 406 43 408 72 c 1
 404 72 l 1
 376 27 331 -10 258 -10 c 0
 133 -10 50 85 50 267 c 0
 50 450 134 546 259 546 c 0
 332 546 375 509 405 464 c 1
 409 464 l 1
 421 536 l 1
 491 536 l 1
 491 -240 l 1
 404 -240 l 1
 404 -11 l 2
275 63 m 0
 363 63 405 130 405 247 c 2
 405 267 l 2
 405 395 370 473 274 473 c 0
 183 473 139 401 139 266 c 0
 139 139 184 63 275 63 c 0
EndSplineSet
Substitution2: "'smcp' Lowercase to Small Capitals lookup 35 subtable" q.sc
Substitution2: "'aalt' Access All Alternates lookup 0 subtable" q.sc
EndChar

StartChar: r
Encoding: 114 114 85
Width: 563
GlyphClass: 2
Flags: HW
AnchorPoint: "Anchor-2" 543 536 basechar 0
AnchorPoint: "Anchor-1" 311 536 basechar 0
AnchorPoint: "Anchor-0" 246 0 basechar 0
LayerCount: 2
Fore
SplineSet
53 0 m 1
 53 60 l 1
 201 73 l 1
 201 462 l 1
 65 475 l 1
 65 536 l 1
 271 536 l 1
 282 439 l 1
 286 439 l 1
 319 507 362 546 436 546 c 0
 474 546 506 539 535 526 c 1
 511 446 l 1
 489 458 460 465 432 465 c 0
 346 465 289 377 289 268 c 2
 289 73 l 1
 434 60 l 1
 434 0 l 1
 53 0 l 1
EndSplineSet
Substitution2: "'smcp' Lowercase to Small Capitals lookup 35 subtable" r.sc
Substitution2: "'aalt' Access All Alternates lookup 0 subtable" r.sc
EndChar

StartChar: s
Encoding: 115 115 86
Width: 563
GlyphClass: 2
Flags: HW
AnchorPoint: "Anchor-2" 543 536 basechar 0
AnchorPoint: "Anchor-1" 287 536 basechar 0
AnchorPoint: "Anchor-0" 287 0 basechar 0
LayerCount: 2
Fore
SplineSet
262 -10 m 0
 196 -10 137 2 95 24 c 1
 95 105 l 1
 140 83 195 63 267 63 c 0
 354 63 384 93 384 143 c 0
 384 185 363 196 261 243 c 0
 164 287 104 318 104 404 c 0
 104 498 177 546 302 546 c 0
 359 546 406 536 461 512 c 1
 434 443 l 1
 382 466 343 473 301 473 c 0
 225 473 189 450 189 406 c 0
 189 363 224 346 316 304 c 0
 413 261 471 235 471 145 c 0
 471 44 400 -10 262 -10 c 0
EndSplineSet
Substitution2: "'smcp' Lowercase to Small Capitals lookup 35 subtable" s.sc
Substitution2: "'subs' Subscript lookup 22 subtable" uni209B
AlternateSubs2: "'aalt' Access All Alternates lookup 1 subtable" s.sc uni209B
EndChar

StartChar: t
Encoding: 116 116 87
Width: 563
GlyphClass: 2
Flags: HW
AnchorPoint: "Anchor-3" 244 276 basechar 0
AnchorPoint: "Anchor-2" 464 849 basechar 0
AnchorPoint: "Anchor-1" 251 679 basechar 0
AnchorPoint: "Anchor-0" 355 0 basechar 0
LayerCount: 2
Fore
SplineSet
380 -10 m 0
 274 -10 196 28 196 156 c 2
 196 462 l 1
 54 462 l 1
 54 520 l 1
 197 539 l 1
 219 679 l 1
 284 679 l 1
 284 536 l 1
 480 536 l 1
 480 462 l 1
 283 462 l 1
 283 172 l 2
 283 96 314 63 389 63 c 0
 420 63 458 70 489 78 c 1
 489 5 l 1
 458 -3 419 -10 380 -10 c 0
EndSplineSet
Substitution2: "'smcp' Lowercase to Small Capitals lookup 35 subtable" t.sc
Substitution2: "'subs' Subscript lookup 22 subtable" uni209C
AlternateSubs2: "'aalt' Access All Alternates lookup 1 subtable" t.sc uni209C
EndChar

StartChar: u
Encoding: 117 117 88
Width: 563
GlyphClass: 2
Flags: HW
AnchorPoint: "Anchor-2" 543 536 basechar 0
AnchorPoint: "Anchor-1" 282 536 basechar 0
AnchorPoint: "Anchor-0" 282 0 basechar 0
LayerCount: 2
Fore
SplineSet
243 -10 m 0
 126 -10 68 52 68 177 c 2
 68 536 l 1
 155 536 l 1
 155 192 l 2
 155 103 187 63 267 63 c 0
 367 63 404 135 404 259 c 2
 404 536 l 1
 491 536 l 1
 491 0 l 1
 420 0 l 1
 407 72 l 1
 402 72 l 1
 368 13 314 -10 243 -10 c 0
EndSplineSet
Substitution2: "'smcp' Lowercase to Small Capitals lookup 35 subtable" u.sc
Substitution2: "'aalt' Access All Alternates lookup 0 subtable" u.sc
EndChar

StartChar: v
Encoding: 118 118 89
Width: 563
GlyphClass: 2
Flags: HW
AnchorPoint: "Anchor-2" 543 536 basechar 0
AnchorPoint: "Anchor-1" 282 536 basechar 0
AnchorPoint: "Anchor-0" 282 0 basechar 0
LayerCount: 2
Fore
SplineSet
227 0 m 1
 40 536 l 1
 127 536 l 1
 233 220 l 2
 247 177 265 124 280 73 c 1
 283 73 l 1
 298 124 317 177 331 220 c 2
 434 536 l 1
 523 536 l 1
 333 0 l 1
 227 0 l 1
EndSplineSet
Substitution2: "'smcp' Lowercase to Small Capitals lookup 35 subtable" v.sc
Substitution2: "'aalt' Access All Alternates lookup 0 subtable" v.sc
EndChar

StartChar: w
Encoding: 119 119 90
Width: 563
GlyphClass: 2
Flags: HW
AnchorPoint: "Anchor-2" 543 536 basechar 0
AnchorPoint: "Anchor-1" 283 536 basechar 0
AnchorPoint: "Anchor-0" 283 0 basechar 0
LayerCount: 2
Fore
SplineSet
94 0 m 1
 14 536 l 1
 94 536 l 1
 131 267 l 2
 140 199 143 139 147 73 c 1
 150 73 l 1
 155 108 169 196 184 250 c 2
 233 439 l 1
 329 439 l 1
 376 250 l 2
 390 196 407 111 412 73 c 1
 415 73 l 1
 420 136 423 196 433 267 c 2
 472 536 l 1
 550 536 l 1
 468 0 l 1
 362 0 l 1
 318 194 l 2
 305 248 291 304 282 358 c 1
 279 358 l 1
 270 304 255 247 243 193 c 2
 197 0 l 1
 94 0 l 1
EndSplineSet
Substitution2: "'smcp' Lowercase to Small Capitals lookup 35 subtable" w.sc
Substitution2: "'aalt' Access All Alternates lookup 0 subtable" w.sc
EndChar

StartChar: x
Encoding: 120 120 91
Width: 563
GlyphClass: 2
Flags: HW
AnchorPoint: "Anchor-2" 543 536 basechar 0
AnchorPoint: "Anchor-1" 282 536 basechar 0
AnchorPoint: "Anchor-0" 282 0 basechar 0
LayerCount: 2
Fore
SplineSet
40 0 m 1
 230 274 l 1
 49 536 l 1
 148 536 l 1
 281 335 l 1
 416 536 l 1
 515 536 l 1
 331 273 l 1
 523 0 l 1
 424 0 l 1
 282 213 l 1
 139 0 l 1
 40 0 l 1
EndSplineSet
Substitution2: "'smcp' Lowercase to Small Capitals lookup 35 subtable" x.sc
Substitution2: "'aalt' Access All Alternates lookup 0 subtable" x.sc
EndChar

StartChar: y
Encoding: 121 121 92
Width: 563
GlyphClass: 2
Flags: HW
AnchorPoint: "Anchor-2" 543 536 basechar 0
AnchorPoint: "Anchor-1" 282 536 basechar 0
AnchorPoint: "Anchor-0" 282 -245 basechar 0
LayerCount: 2
Fore
SplineSet
126 -245 m 0
 101 -245 77 -241 57 -237 c 1
 57 -168 l 1
 73 -171 96 -174 116 -174 c 0
 172 -174 198 -147 223 -78 c 2
 251 -5 l 1
 40 536 l 1
 126 536 l 1
 245 222 l 2
 262 177 278 124 290 79 c 1
 293 79 l 1
 304 125 321 181 334 223 c 2
 433 536 l 1
 523 536 l 1
 310 -70 l 2
 273 -174 231 -245 126 -245 c 0
EndSplineSet
Substitution2: "'smcp' Lowercase to Small Capitals lookup 35 subtable" y.sc
Substitution2: "'aalt' Access All Alternates lookup 0 subtable" y.sc
EndChar

StartChar: z
Encoding: 122 122 93
Width: 563
GlyphClass: 2
Flags: HW
AnchorPoint: "Anchor-2" 543 536 basechar 0
AnchorPoint: "Anchor-1" 290 536 basechar 0
AnchorPoint: "Anchor-0" 290 0 basechar 0
LayerCount: 2
Fore
SplineSet
81 0 m 1
 81 61 l 1
 381 466 l 1
 96 466 l 1
 96 536 l 1
 475 536 l 1
 475 465 l 1
 183 75 l 1
 483 75 l 1
 483 0 l 1
 81 0 l 1
EndSplineSet
Substitution2: "'smcp' Lowercase to Small Capitals lookup 35 subtable" z.sc
Substitution2: "'aalt' Access All Alternates lookup 0 subtable" z.sc
EndChar

StartChar: braceleft
Encoding: 123 123 94
Width: 563
Flags: HW
LayerCount: 2
Fore
SplineSet
434 -159 m 1
 312 -158 244 -107 244 0 c 2
 244 148 l 2
 244 216 208 244 129 244 c 1
 129 313 l 1
 205 313 244 338 244 408 c 2
 244 557 l 2
 244 662 314 714 434 715 c 1
 434 645 l 1
 366 643 328 617 328 551 c 2
 328 404 l 2
 328 334 296 294 225 281 c 1
 225 276 l 1
 297 263 328 222 328 153 c 2
 328 5 l 2
 328 -61 364 -88 434 -89 c 1
 434 -159 l 1
EndSplineSet
Substitution2: "'smcp' Lowercase to Small Capitals lookup 35 subtable" braceleft.sc
Substitution2: "'c2sc' Capitals to Small Capitals lookup 34 subtable" braceleft.sc
Substitution2: "'aalt' Access All Alternates lookup 0 subtable" braceleft.sc
EndChar

StartChar: bar
Encoding: 124 124 95
Width: 563
Flags: HW
LayerCount: 2
Fore
SplineSet
245 -240 m 1
 245 760 l 1
 319 760 l 1
 319 -240 l 1
 245 -240 l 1
EndSplineSet
EndChar

StartChar: braceright
Encoding: 125 125 96
Width: 563
Flags: HW
LayerCount: 2
Fore
SplineSet
125 715 m 1
 248 714 316 663 316 556 c 2
 316 408 l 2
 316 340 352 312 430 312 c 1
 430 243 l 1
 355 243 316 218 316 148 c 2
 316 -1 l 2
 316 -106 245 -158 125 -159 c 1
 125 -89 l 1
 193 -87 232 -61 232 5 c 2
 232 152 l 2
 232 222 264 262 335 275 c 1
 335 280 l 1
 263 293 232 334 232 403 c 2
 232 551 l 2
 232 617 196 644 125 645 c 1
 125 715 l 1
EndSplineSet
Substitution2: "'smcp' Lowercase to Small Capitals lookup 35 subtable" braceright.sc
Substitution2: "'c2sc' Capitals to Small Capitals lookup 34 subtable" braceright.sc
Substitution2: "'aalt' Access All Alternates lookup 0 subtable" braceright.sc
EndChar

StartChar: asciitilde
Encoding: 126 126 97
Width: 563
Flags: HW
LayerCount: 2
Fore
SplineSet
71 288 m 1
 78 368 98 463 186 463 c 0
 229 463 259 440 302 397 c 0
 329 368 352 346 377 346 c 0
 412 346 426 386 434 463 c 1
 491 463 l 1
 484 389 463 288 378 288 c 0
 337 288 305 308 265 352 c 0
 235 384 214 405 187 405 c 0
 151 405 135 367 128 288 c 1
 71 288 l 1
EndSplineSet
EndChar

StartChar: exclamdown
Encoding: 161 161 99
Width: 563
Flags: HW
LayerCount: 2
Fore
SplineSet
282 540 m 0
 317 540 342 519 342 472 c 0
 342 424 317 405 282 405 c 0
 248 405 221 423 221 472 c 0
 221 519 248 540 282 540 c 0
318 327 m 1
 335 -185 l 1
 228 -185 l 1
 244 327 l 1
 318 327 l 1
EndSplineSet
Substitution2: "'smcp' Lowercase to Small Capitals lookup 35 subtable" exclamdown.sc
Substitution2: "'c2sc' Capitals to Small Capitals lookup 34 subtable" exclamdown.sc
Substitution2: "'aalt' Access All Alternates lookup 0 subtable" exclamdown.sc
EndChar

StartChar: cent
Encoding: 162 162 100
Width: 563
Flags: HW
LayerCount: 2
Fore
SplineSet
285 90 m 1
 160 107 88 190 88 362 c 0
 88 532 162 623 285 640 c 1
 285 724 l 1
 348 724 l 1
 348 644 l 1
 396 642 446 631 476 616 c 1
 450 546 l 1
 417 559 376 570 336 570 c 0
 225 570 175 502 175 363 c 0
 175 224 227 162 333 162 c 0
 384 162 431 174 468 191 c 1
 468 116 l 1
 438 100 396 90 347 88 c 1
 347 -10 l 1
 285 -10 l 1
 285 90 l 1
EndSplineSet
EndChar

StartChar: sterling
Encoding: 163 163 101
Width: 563
Flags: HW
LayerCount: 2
Fore
SplineSet
84 73 m 1
 135 89 168 131 168 214 c 2
 168 322 l 1
 85 322 l 1
 85 388 l 1
 168 388 l 1
 168 538 l 2
 168 656 236 723 350 723 c 0
 406 723 449 709 491 682 c 1
 460 615 l 1
 423 638 391 648 357 648 c 0
 287 648 255 614 255 529 c 2
 255 388 l 1
 419 388 l 1
 419 322 l 1
 255 322 l 1
 255 215 l 2
 255 157 228 102 193 79 c 1
 498 79 l 1
 498 0 l 1
 84 0 l 1
 84 73 l 1
EndSplineSet
EndChar

StartChar: currency
Encoding: 164 164 102
Width: 563
Flags: HW
LayerCount: 2
Fore
SplineSet
395 196 m 1
 362 174 324 161 282 161 c 0
 239 161 199 174 168 197 c 1
 102 132 l 1
 56 178 l 1
 121 244 l 1
 98 277 85 315 85 357 c 0
 85 398 98 438 121 470 c 1
 55 538 l 1
 102 583 l 1
 168 518 l 1
 200 541 239 555 282 555 c 0
 324 555 362 542 395 518 c 1
 462 583 l 1
 508 538 l 1
 443 471 l 1
 465 439 480 399 480 357 c 0
 480 315 466 276 443 243 c 1
 507 177 l 1
 462 131 l 1
 395 196 l 1
282 226 m 0
 359 226 412 279 412 358 c 0
 412 438 357 491 283 491 c 0
 208 491 151 437 151 357 c 0
 151 279 207 226 282 226 c 0
EndSplineSet
EndChar

StartChar: yen
Encoding: 165 165 103
Width: 563
Flags: HW
LayerCount: 2
Fore
SplineSet
238 0 m 1
 238 129 l 1
 107 129 l 1
 107 192 l 1
 238 192 l 1
 238 275 l 1
 107 275 l 1
 107 337 l 1
 214 337 l 1
 43 714 l 1
 134 714 l 1
 281 370 l 1
 430 714 l 1
 520 714 l 1
 347 337 l 1
 458 337 l 1
 458 275 l 1
 324 275 l 1
 324 192 l 1
 458 192 l 1
 458 129 l 1
 324 129 l 1
 324 0 l 1
 238 0 l 1
EndSplineSet
EndChar

StartChar: brokenbar
Encoding: 166 166 104
Width: 563
Flags: HW
LayerCount: 2
Fore
SplineSet
244 375 m 1
 244 760 l 1
 318 760 l 1
 318 375 l 1
 244 375 l 1
244 -240 m 1
 244 146 l 1
 318 146 l 1
 318 -240 l 1
 244 -240 l 1
EndSplineSet
EndChar

StartChar: section
Encoding: 167 167 105
Width: 563
Flags: HW
LayerCount: 2
Fore
SplineSet
253 -10 m 0
 189 -10 137 2 99 23 c 1
 99 96 l 1
 137 74 199 53 256 53 c 0
 336 53 375 84 375 128 c 0
 375 173 346 198 258 236 c 0
 160 280 108 315 108 393 c 0
 108 457 147 498 193 518 c 1
 147 545 121 583 121 637 c 0
 121 718 188 765 302 765 c 0
 364 765 406 753 450 733 c 1
 424 672 l 1
 384 692 351 702 299 702 c 0
 230 702 199 678 199 639 c 0
 199 598 232 572 310 539 c 0
 397 502 463 465 463 382 c 0
 463 317 427 272 385 250 c 1
 430 219 454 184 454 133 c 0
 454 43 378 -10 253 -10 c 0
329 280 m 1
 363 297 391 327 391 369 c 0
 391 418 361 447 251 488 c 1
 210 477 178 444 178 404 c 0
 178 352 221 327 302 293 c 1
 329 280 l 1
EndSplineSet
EndChar

StartChar: dieresis
Encoding: 168 168 106
Width: 563
GlyphClass: 2
Flags: HW
AnchorPoint: "Anchor-1" 282 646 basechar 0
LayerCount: 2
Fore
SplineSet
389 623 m 0
 360 623 336 642 336 683 c 0
 336 724 360 741 389 741 c 0
 418 741 443 724 443 683 c 0
 443 642 418 623 389 623 c 0
175 623 m 0
 146 623 122 642 122 683 c 0
 122 724 146 741 175 741 c 0
 203 741 228 724 228 683 c 0
 228 642 203 623 175 623 c 0
EndSplineSet
EndChar

StartChar: copyright
Encoding: 169 169 107
Width: 563
Flags: HW
LayerCount: 2
Fore
SplineSet
282 114 m 0
 128 114 36 215 36 359 c 0
 36 506 133 606 283 606 c 0
 434 606 528 505 528 361 c 0
 528 213 429 114 282 114 c 0
282 159 m 0
 398 159 478 234 478 358 c 0
 478 481 399 559 281 559 c 0
 164 559 85 484 85 361 c 0
 85 239 163 159 282 159 c 0
293 206 m 0
 200 206 156 268 156 356 c 0
 156 448 205 513 292 513 c 0
 322 513 352 505 377 493 c 1
 356 447 l 1
 334 459 313 464 294 464 c 0
 241 464 211 427 211 356 c 0
 211 291 237 253 292 253 c 0
 314 253 341 259 364 268 c 1
 364 221 l 1
 343 212 321 206 293 206 c 0
EndSplineSet
EndChar

StartChar: ordfeminine
Encoding: 170 170 108
Width: 563
GlyphClass: 2
Flags: HW
AnchorPoint: "Anchor-1" 274 722 basechar 0
AnchorPoint: "Anchor-0" 270 388 basechar 0
LayerCount: 2
Fore
SplineSet
241 383 m 0
 179 383 138 417 138 480 c 0
 138 549 187 583 291 588 c 2
 342 591 l 1
 342 612 l 2
 342 655 315 670 273 670 c 0
 241 670 210 660 182 646 c 1
 161 694 l 1
 194 711 234 722 279 722 c 0
 361 722 404 686 404 609 c 2
 404 389 l 1
 358 389 l 1
 347 432 l 1
 321 401 288 383 241 383 c 0
259 435 m 0
 314 435 342 468 342 520 c 2
 342 544 l 1
 300 542 l 2
 228 538 202 521 202 483 c 0
 202 448 223 435 259 435 c 0
EndSplineSet
EndChar

StartChar: guillemotleft
Encoding: 171 171 109
Width: 563
Flags: HW
LayerCount: 2
Fore
SplineSet
430 56 m 1
 269 257 l 1
 269 270 l 1
 430 472 l 1
 487 435 l 1
 362 264 l 1
 487 93 l 1
 430 56 l 1
236 57 m 1
 77 257 l 1
 77 270 l 1
 236 472 l 1
 294 433 l 1
 169 264 l 1
 293 93 l 1
 236 57 l 1
EndSplineSet
EndChar

StartChar: logicalnot
Encoding: 172 172 110
Width: 563
Flags: HW
LayerCount: 2
Fore
SplineSet
414 125 m 1
 414 318 l 1
 73 318 l 1
 73 388 l 1
 484 388 l 1
 484 125 l 1
 414 125 l 1
EndSplineSet
EndChar

StartChar: uni00AD
Encoding: 173 173 111
Width: 563
Flags: HW
LayerCount: 2
Fore
SplineSet
140 231 m 1
 140 310 l 1
 423 310 l 1
 423 231 l 1
 140 231 l 1
EndSplineSet
EndChar

StartChar: registered
Encoding: 174 174 112
Width: 563
Flags: HW
LayerCount: 2
Fore
SplineSet
282 114 m 0
 128 114 36 215 36 359 c 0
 36 506 133 606 283 606 c 0
 434 606 528 505 528 361 c 0
 528 213 429 114 282 114 c 0
282 159 m 0
 398 159 478 234 478 358 c 0
 478 481 399 559 281 559 c 0
 164 559 85 484 85 361 c 0
 85 239 163 159 282 159 c 0
191 212 m 1
 191 511 l 1
 275 511 l 2
 348 511 383 477 383 423 c 0
 383 374 355 349 329 338 c 1
 408 212 l 1
 348 212 l 1
 282 326 l 1
 240 326 l 1
 240 212 l 1
 191 212 l 1
274 369 m 2
 309 369 332 385 332 419 c 0
 332 451 313 466 273 466 c 2
 240 466 l 1
 240 369 l 1
 274 369 l 2
EndSplineSet
EndChar

StartChar: overscore
Encoding: 175 175 113
Width: 563
Flags: HW
LayerCount: 2
Fore
SplineSet
143 624 m 1
 143 692 l 1
 420 692 l 1
 420 624 l 1
 143 624 l 1
EndSplineSet
EndChar

StartChar: degree
Encoding: 176 176 114
Width: 563
Flags: HW
LayerCount: 2
Fore
SplineSet
282 433 m 0
 196 433 137 493 137 578 c 0
 137 663 200 724 282 724 c 0
 362 724 426 663 426 578 c 0
 426 493 365 433 282 433 c 0
283 490 m 0
 331 490 368 523 368 578 c 0
 368 633 331 667 283 667 c 0
 232 667 195 633 195 578 c 0
 195 523 236 490 283 490 c 0
EndSplineSet
EndChar

StartChar: plusminus
Encoding: 177 177 115
Width: 563
Flags: HW
LayerCount: 2
Fore
SplineSet
245 129 m 1
 245 326 l 1
 72 326 l 1
 72 396 l 1
 245 396 l 1
 245 595 l 1
 316 595 l 1
 316 396 l 1
 488 396 l 1
 488 326 l 1
 316 326 l 1
 316 129 l 1
 245 129 l 1
75 0 m 1
 75 70 l 1
 488 70 l 1
 488 0 l 1
 75 0 l 1
EndSplineSet
EndChar

StartChar: uni00B2
Encoding: 178 178 116
Width: 563
Flags: HW
LayerCount: 2
Fore
SplineSet
144 416 m 1
 144 470 l 1
 251 581 l 2
 326 658 351 685 351 732 c 0
 351 772 324 795 280 795 c 0
 244 795 213 779 182 752 c 1
 147 798 l 1
 183 831 228 853 283 853 c 0
 368 853 419 808 419 736 c 0
 419 668 379 630 298 547 c 2
 227 476 l 1
 432 476 l 1
 432 416 l 1
 144 416 l 1
EndSplineSet
EndChar

StartChar: uni00B3
Encoding: 179 179 117
Width: 563
Flags: HW
LayerCount: 2
Fore
SplineSet
262 408 m 0
 220 408 183 416 146 434 c 1
 146 498 l 1
 186 477 225 466 264 466 c 0
 325 466 353 494 353 538 c 0
 353 586 317 609 252 609 c 2
 204 609 l 1
 204 664 l 1
 252 664 l 2
 312 664 341 693 341 735 c 0
 341 775 314 795 273 795 c 0
 241 795 211 781 180 758 c 1
 146 804 l 1
 184 835 223 853 277 853 c 0
 362 853 410 809 410 742 c 0
 410 691 382 656 344 641 c 1
 344 638 l 1
 393 626 423 591 423 535 c 0
 423 458 366 408 262 408 c 0
EndSplineSet
EndChar

StartChar: acute
Encoding: 180 180 118
Width: 563
Flags: HW
LayerCount: 2
Fore
SplineSet
235 618 m 1
 268 661 306 721 328 766 c 1
 431 766 l 1
 431 756 l 1
 406 718 336 642 291 606 c 1
 235 606 l 1
 235 618 l 1
EndSplineSet
EndChar

StartChar: uni00B5
Encoding: 181 181 119
Width: 563
GlyphClass: 2
Flags: HW
AnchorPoint: "Anchor-2" 543 536 basechar 0
AnchorPoint: "Anchor-1" 282 536 basechar 0
AnchorPoint: "Anchor-0" 282 0 basechar 0
LayerCount: 2
Fore
SplineSet
243 -10 m 0
 209 -10 179 -5 155 6 c 1
 155 -240 l 1
 68 -240 l 1
 68 536 l 1
 155 536 l 1
 155 192 l 2
 155 103 187 63 267 63 c 0
 367 63 404 135 404 259 c 2
 404 536 l 1
 491 536 l 1
 491 0 l 1
 420 0 l 1
 407 72 l 1
 402 72 l 1
 368 13 314 -10 243 -10 c 0
EndSplineSet
EndChar

StartChar: paragraph
Encoding: 182 182 120
Width: 563
Flags: HW
LayerCount: 2
Fore
SplineSet
284 273 m 1
 266 267 241 264 218 264 c 0
 115 264 54 333 54 509 c 0
 54 691 122 760 236 760 c 2
 488 760 l 1
 488 -127 l 1
 430 -127 l 1
 430 704 l 1
 342 704 l 1
 342 -127 l 1
 284 -127 l 1
 284 273 l 1
EndSplineSet
EndChar

StartChar: periodcentered
Encoding: 183 183 121
Width: 563
Flags: HW
LayerCount: 2
Fore
SplineSet
281 271 m 0
 247 271 221 292 221 339 c 0
 221 387 247 406 281 406 c 0
 315 406 342 388 342 339 c 0
 342 292 315 271 281 271 c 0
EndSplineSet
EndChar

StartChar: cedilla
Encoding: 184 184 122
Width: 563
Flags: HW
LayerCount: 2
Fore
SplineSet
237 -240 m 0
 217 -240 198 -238 186 -235 c 1
 186 -180 l 1
 198 -183 218 -185 235 -185 c 0
 280 -185 305 -171 305 -140 c 0
 305 -106 274 -91 220 -83 c 1
 259 3 l 1
 314 3 l 1
 289 -52 l 1
 340 -63 375 -88 375 -141 c 0
 375 -203 327 -240 237 -240 c 0
EndSplineSet
EndChar

StartChar: uni00B9
Encoding: 185 185 123
Width: 563
Flags: HW
LayerCount: 2
Fore
SplineSet
165 416 m 1
 165 465 l 1
 264 471 l 1
 264 687 l 2
 264 719 265 745 267 774 c 1
 256 763 243 754 230 745 c 2
 171 708 l 1
 137 760 l 1
 267 844 l 1
 329 844 l 1
 329 470 l 1
 430 465 l 1
 430 416 l 1
 165 416 l 1
EndSplineSet
EndChar

StartChar: ordmasculine
Encoding: 186 186 124
Width: 563
GlyphClass: 2
Flags: HW
AnchorPoint: "Anchor-1" 282 722 basechar 0
AnchorPoint: "Anchor-0" 281 384 basechar 0
LayerCount: 2
Fore
SplineSet
283 383 m 0
 195 383 142 443 142 553 c 0
 142 661 196 722 285 722 c 0
 371 722 425 664 425 553 c 0
 425 442 372 383 283 383 c 0
284 436 m 0
 339 436 362 474 362 553 c 0
 362 633 338 669 284 669 c 0
 230 669 206 629 206 553 c 0
 206 474 229 436 284 436 c 0
EndSplineSet
EndChar

StartChar: guillemotright
Encoding: 187 187 125
Width: 563
Flags: HW
LayerCount: 2
Fore
SplineSet
134 473 m 1
 295 272 l 1
 295 259 l 1
 134 57 l 1
 77 94 l 1
 202 265 l 1
 77 436 l 1
 134 473 l 1
328 472 m 1
 487 272 l 1
 487 259 l 1
 328 57 l 1
 270 96 l 1
 395 265 l 1
 271 436 l 1
 328 472 l 1
EndSplineSet
EndChar

StartChar: onequarter
Encoding: 188 188 126
Width: 563
Flags: HW
LayerCount: 2
Fore
SplineSet
75 0 m 1
 425 714 l 1
 499 714 l 1
 149 0 l 1
 75 0 l 1
30 367 m 1
 30 418 l 1
 102 424 l 1
 102 562 l 2
 102 596 103 619 104 647 c 1
 93 635 79 624 64 615 c 2
 37 599 l 1
 4 655 l 1
 102 714 l 1
 164 714 l 1
 164 424 l 1
 240 418 l 1
 240 367 l 1
 30 367 l 1
429 0 m 1
 429 78 l 1
 281 78 l 1
 281 130 l 1
 426 349 l 1
 490 349 l 1
 490 134 l 1
 538 134 l 1
 538 78 l 1
 490 78 l 1
 490 0 l 1
 429 0 l 1
347 134 m 1
 429 134 l 1
 429 208 l 2
 429 234 430 247 431 272 c 1
 426 259 415 242 405 226 c 2
 347 134 l 1
EndSplineSet
EndChar

StartChar: onehalf
Encoding: 189 189 127
Width: 563
Flags: HW
LayerCount: 2
Fore
SplineSet
75 0 m 1
 425 714 l 1
 499 714 l 1
 149 0 l 1
 75 0 l 1
30 367 m 1
 30 418 l 1
 102 424 l 1
 102 562 l 2
 102 596 103 619 104 647 c 1
 93 635 79 624 64 615 c 2
 37 599 l 1
 4 655 l 1
 102 714 l 1
 164 714 l 1
 164 424 l 1
 240 418 l 1
 240 367 l 1
 30 367 l 1
312 0 m 1
 312 54 l 1
 394 138 l 2
 452 197 466 214 466 248 c 0
 466 280 447 297 419 297 c 0
 392 297 372 283 348 263 c 1
 315 309 l 1
 344 336 378 355 421 355 c 0
 490 355 531 316 531 252 c 0
 531 200 502 168 444 111 c 2
 394 62 l 1
 539 62 l 1
 539 0 l 1
 312 0 l 1
EndSplineSet
EndChar

StartChar: threequarters
Encoding: 190 190 128
Width: 563
Flags: HW
LayerCount: 2
Fore
SplineSet
113 361 m 0
 81 361 53 366 26 380 c 1
 26 443 l 1
 58 427 87 418 115 418 c 0
 159 418 178 439 178 471 c 0
 178 505 152 518 108 518 c 2
 64 518 l 1
 64 573 l 1
 108 573 l 2
 150 573 170 592 170 622 c 0
 170 652 151 666 124 666 c 0
 100 666 77 654 53 637 c 1
 19 683 l 1
 51 707 81 723 126 723 c 0
 199 723 238 684 238 627 c 0
 238 586 217 560 191 552 c 1
 191 549 l 1
 227 538 246 513 246 471 c 0
 246 406 205 361 113 361 c 0
75 0 m 1
 425 714 l 1
 499 714 l 1
 149 0 l 1
 75 0 l 1
428 0 m 1
 428 78 l 1
 281 78 l 1
 281 130 l 1
 425 349 l 1
 490 349 l 1
 490 134 l 1
 538 134 l 1
 538 78 l 1
 490 78 l 1
 490 0 l 1
 428 0 l 1
347 134 m 1
 428 134 l 1
 428 208 l 2
 428 234 430 247 430 272 c 1
 425 259 415 242 405 226 c 2
 347 134 l 1
EndSplineSet
EndChar

StartChar: questiondown
Encoding: 191 191 129
Width: 563
Flags: HW
LayerCount: 2
Fore
SplineSet
293 540 m 0
 328 540 354 519 354 472 c 0
 354 424 328 405 293 405 c 0
 259 405 233 423 233 472 c 0
 233 519 260 540 293 540 c 0
334 306 m 2
 334 232 313 190 245 136 c 0
 179 82 155 50 155 -18 c 0
 155 -78 196 -118 271 -118 c 0
 334 -118 381 -100 430 -76 c 1
 462 -148 l 1
 410 -174 352 -195 273 -195 c 0
 146 -195 71 -129 71 -22 c 0
 71 70 106 115 178 176 c 0
 248 233 260 258 260 315 c 2
 260 327 l 1
 334 327 l 1
 334 306 l 2
EndSplineSet
Substitution2: "'smcp' Lowercase to Small Capitals lookup 35 subtable" questiondown.sc
Substitution2: "'c2sc' Capitals to Small Capitals lookup 34 subtable" questiondown.sc
Substitution2: "'aalt' Access All Alternates lookup 0 subtable" questiondown.sc
EndChar

StartChar: Agrave
Encoding: 192 192 130
Width: 563
GlyphClass: 2
Flags: HW
AnchorPoint: "Anchor-2" 543 714 basechar 0
AnchorPoint: "Anchor-1" 282 944 basechar 0
AnchorPoint: "Anchor-0" 282 0 basechar 0
LayerCount: 2
Fore
SplineSet
296 784 m 1
 253 819 181 895 157 934 c 1
 157 944 l 1
 259 944 l 1
 281 899 323 833 353 796 c 1
 353 784 l 1
 296 784 l 1
20 0 m 1
 231 716 l 1
 331 716 l 1
 543 0 l 1
 454 0 l 1
 392 222 l 1
 171 222 l 1
 109 0 l 1
 20 0 l 1
254 521 m 2
 192 300 l 1
 370 300 l 1
 308 521 l 2
 300 549 288 594 280 631 c 1
 273 594 261 548 254 521 c 2
EndSplineSet
Substitution2: "'c2sc' Capitals to Small Capitals lookup 34 subtable" agrave.sc
Substitution2: "'aalt' Access All Alternates lookup 0 subtable" agrave.sc
EndChar

StartChar: Aacute
Encoding: 193 193 131
Width: 563
GlyphClass: 2
Flags: HW
AnchorPoint: "Anchor-2" 543 714 basechar 0
AnchorPoint: "Anchor-1" 282 944 basechar 0
AnchorPoint: "Anchor-0" 282 0 basechar 0
LayerCount: 2
Fore
SplineSet
236 796 m 1
 269 839 307 899 329 944 c 1
 432 944 l 1
 432 934 l 1
 407 896 337 820 292 784 c 1
 236 784 l 1
 236 796 l 1
20 0 m 1
 231 716 l 1
 331 716 l 1
 543 0 l 1
 454 0 l 1
 392 222 l 1
 171 222 l 1
 109 0 l 1
 20 0 l 1
254 521 m 2
 192 300 l 1
 370 300 l 1
 308 521 l 2
 300 549 288 594 280 631 c 1
 273 594 261 548 254 521 c 2
EndSplineSet
Substitution2: "'c2sc' Capitals to Small Capitals lookup 34 subtable" aacute.sc
Substitution2: "'aalt' Access All Alternates lookup 0 subtable" aacute.sc
EndChar

StartChar: Acircumflex
Encoding: 194 194 132
Width: 563
GlyphClass: 2
Flags: HW
AnchorPoint: "Anchor-2" 543 714 basechar 0
AnchorPoint: "Anchor-1" 282 944 basechar 0
AnchorPoint: "Anchor-0" 282 0 basechar 0
LayerCount: 2
Fore
SplineSet
127 795 m 1
 163 837 215 900 238 944 c 1
 323 944 l 1
 346 899 401 835 437 795 c 1
 437 784 l 1
 381 784 l 1
 349 807 314 844 280 880 c 1
 246 844 212 806 181 784 c 1
 127 784 l 1
 127 795 l 1
20 0 m 1
 231 716 l 1
 331 716 l 1
 543 0 l 1
 454 0 l 1
 392 222 l 1
 171 222 l 1
 109 0 l 1
 20 0 l 1
254 521 m 2
 192 300 l 1
 370 300 l 1
 308 521 l 2
 300 549 288 594 280 631 c 1
 273 594 261 548 254 521 c 2
EndSplineSet
Substitution2: "'c2sc' Capitals to Small Capitals lookup 34 subtable" acircumflex.sc
Substitution2: "'aalt' Access All Alternates lookup 0 subtable" acircumflex.sc
EndChar

StartChar: Atilde
Encoding: 195 195 133
Width: 563
GlyphClass: 2
Flags: HW
AnchorPoint: "Anchor-2" 543 714 basechar 0
AnchorPoint: "Anchor-1" 282 912 basechar 0
AnchorPoint: "Anchor-0" 282 0 basechar 0
LayerCount: 2
Fore
SplineSet
113 785 m 1
 121 858 153 911 214 911 c 0
 267 911 312 854 352 854 c 0
 380 854 391 874 400 912 c 1
 450 912 l 1
 443 834 407 786 351 786 c 0
 298 786 253 843 213 843 c 0
 184 843 172 823 164 785 c 1
 113 785 l 1
20 0 m 1
 231 716 l 1
 331 716 l 1
 543 0 l 1
 454 0 l 1
 392 222 l 1
 171 222 l 1
 109 0 l 1
 20 0 l 1
254 521 m 2
 192 300 l 1
 370 300 l 1
 308 521 l 2
 300 549 288 594 280 631 c 1
 273 594 261 548 254 521 c 2
EndSplineSet
Substitution2: "'c2sc' Capitals to Small Capitals lookup 34 subtable" atilde.sc
Substitution2: "'aalt' Access All Alternates lookup 0 subtable" atilde.sc
EndChar

StartChar: Adieresis
Encoding: 196 196 134
Width: 563
GlyphClass: 2
Flags: HW
AnchorPoint: "Anchor-2" 543 714 basechar 0
AnchorPoint: "Anchor-1" 282 915 basechar 0
AnchorPoint: "Anchor-0" 282 0 basechar 0
LayerCount: 2
Fore
SplineSet
388 797 m 0
 359 797 335 816 335 857 c 0
 335 898 359 915 388 915 c 0
 417 915 442 898 442 857 c 0
 442 816 417 797 388 797 c 0
174 797 m 0
 145 797 121 816 121 857 c 0
 121 898 145 915 174 915 c 0
 203 915 227 898 227 857 c 0
 227 816 203 797 174 797 c 0
20 0 m 1
 231 716 l 1
 331 716 l 1
 543 0 l 1
 454 0 l 1
 392 222 l 1
 171 222 l 1
 109 0 l 1
 20 0 l 1
254 521 m 2
 192 300 l 1
 370 300 l 1
 308 521 l 2
 300 549 288 594 280 631 c 1
 273 594 261 548 254 521 c 2
EndSplineSet
Substitution2: "'c2sc' Capitals to Small Capitals lookup 34 subtable" adieresis.sc
Substitution2: "'aalt' Access All Alternates lookup 0 subtable" adieresis.sc
EndChar

StartChar: Aring
Encoding: 197 197 135
Width: 563
GlyphClass: 2
Flags: HW
AnchorPoint: "Anchor-2" 543 714 basechar 0
AnchorPoint: "Anchor-1" 282 992 basechar 0
AnchorPoint: "Anchor-0" 282 0 basechar 0
LayerCount: 2
Fore
SplineSet
281 785 m 0
 216 785 174 824 174 889 c 0
 174 953 216 992 281 992 c 0
 343 992 390 953 390 890 c 0
 390 825 345 785 281 785 c 0
281 836 m 0
 313 836 335 856 335 889 c 0
 335 922 314 943 281 943 c 0
 251 943 228 922 228 889 c 0
 228 856 250 836 281 836 c 0
20 0 m 1
 231 716 l 1
 331 716 l 1
 543 0 l 1
 454 0 l 1
 392 222 l 1
 171 222 l 1
 109 0 l 1
 20 0 l 1
254 521 m 2
 192 300 l 1
 370 300 l 1
 308 521 l 2
 300 549 288 594 280 631 c 1
 273 594 261 548 254 521 c 2
EndSplineSet
Substitution2: "'c2sc' Capitals to Small Capitals lookup 34 subtable" aring.sc
Substitution2: "'aalt' Access All Alternates lookup 0 subtable" aring.sc
EndChar

StartChar: AE
Encoding: 198 198 136
Width: 563
GlyphClass: 2
Flags: HW
AnchorPoint: "Anchor-1" 313 714 basechar 0
AnchorPoint: "Anchor-0" 282 0 basechar 0
LayerCount: 2
Fore
SplineSet
20 0 m 1
 175 714 l 1
 518 714 l 1
 518 634 l 1
 347 634 l 1
 347 413 l 1
 501 413 l 1
 501 333 l 1
 347 333 l 1
 347 80 l 1
 518 80 l 1
 518 0 l 1
 264 0 l 1
 264 222 l 1
 150 222 l 1
 104 0 l 1
 20 0 l 1
235 634 m 1
 166 299 l 1
 264 299 l 1
 264 634 l 1
 235 634 l 1
EndSplineSet
Substitution2: "'c2sc' Capitals to Small Capitals lookup 34 subtable" ae.sc
Substitution2: "'aalt' Access All Alternates lookup 0 subtable" ae.sc
EndChar

StartChar: Ccedilla
Encoding: 199 199 137
Width: 563
GlyphClass: 2
Flags: HW
AnchorPoint: "Anchor-2" 543 714 basechar 0
AnchorPoint: "Anchor-1" 340 714 basechar 0
AnchorPoint: "Anchor-0" 309 -240 basechar 0
LayerCount: 2
Fore
SplineSet
281 -240 m 0
 261 -240 242 -238 230 -235 c 1
 230 -180 l 1
 242 -183 262 -185 279 -185 c 0
 324 -185 349 -171 349 -140 c 0
 349 -106 318 -91 264 -83 c 1
 299 -7 l 1
 134 14 56 155 56 357 c 0
 56 577 160 725 350 725 c 0
 415 725 473 710 523 684 c 1
 489 612 l 1
 450 634 399 647 350 647 c 0
 216 647 146 535 146 357 c 0
 146 180 208 70 349 70 c 0
 396 70 446 80 494 99 c 1
 494 18 l 1
 447 -1 404 -9 352 -10 c 1
 333 -52 l 1
 384 -63 419 -88 419 -141 c 0
 419 -203 371 -240 281 -240 c 0
EndSplineSet
Substitution2: "'c2sc' Capitals to Small Capitals lookup 34 subtable" ccedilla.sc
Substitution2: "'aalt' Access All Alternates lookup 0 subtable" ccedilla.sc
EndChar

StartChar: Egrave
Encoding: 200 200 138
Width: 563
GlyphClass: 2
Flags: HW
AnchorPoint: "Anchor-2" 543 714 basechar 0
AnchorPoint: "Anchor-1" 282 944 basechar 0
AnchorPoint: "Anchor-0" 282 0 basechar 0
LayerCount: 2
Fore
SplineSet
300 784 m 1
 256 819 185 895 161 934 c 1
 161 944 l 1
 263 944 l 1
 284 899 326 833 356 796 c 1
 356 784 l 1
 300 784 l 1
84 0 m 1
 84 714 l 1
 488 714 l 1
 488 635 l 1
 172 635 l 1
 172 412 l 1
 469 412 l 1
 469 332 l 1
 172 332 l 1
 172 79 l 1
 488 79 l 1
 488 0 l 1
 84 0 l 1
EndSplineSet
Substitution2: "'c2sc' Capitals to Small Capitals lookup 34 subtable" egrave.sc
Substitution2: "'aalt' Access All Alternates lookup 0 subtable" egrave.sc
EndChar

StartChar: Eacute
Encoding: 201 201 139
Width: 563
GlyphClass: 2
Flags: HW
AnchorPoint: "Anchor-2" 543 714 basechar 0
AnchorPoint: "Anchor-1" 290 944 basechar 0
AnchorPoint: "Anchor-0" 282 0 basechar 0
LayerCount: 2
Fore
SplineSet
240 796 m 1
 272 839 310 899 333 944 c 1
 435 944 l 1
 435 934 l 1
 410 896 340 820 296 784 c 1
 240 784 l 1
 240 796 l 1
84 0 m 1
 84 714 l 1
 488 714 l 1
 488 635 l 1
 172 635 l 1
 172 412 l 1
 469 412 l 1
 469 332 l 1
 172 332 l 1
 172 79 l 1
 488 79 l 1
 488 0 l 1
 84 0 l 1
EndSplineSet
Substitution2: "'c2sc' Capitals to Small Capitals lookup 34 subtable" eacute.sc
Substitution2: "'aalt' Access All Alternates lookup 0 subtable" eacute.sc
EndChar

StartChar: Ecircumflex
Encoding: 202 202 140
Width: 563
GlyphClass: 2
Flags: HW
AnchorPoint: "Anchor-2" 543 714 basechar 0
AnchorPoint: "Anchor-1" 282 944 basechar 0
AnchorPoint: "Anchor-0" 282 0 basechar 0
LayerCount: 2
Fore
SplineSet
130 795 m 1
 167 837 218 900 242 944 c 1
 327 944 l 1
 350 899 404 835 440 795 c 1
 440 784 l 1
 384 784 l 1
 352 807 318 844 284 880 c 1
 250 844 216 806 185 784 c 1
 130 784 l 1
 130 795 l 1
84 0 m 1
 84 714 l 1
 488 714 l 1
 488 635 l 1
 172 635 l 1
 172 412 l 1
 469 412 l 1
 469 332 l 1
 172 332 l 1
 172 79 l 1
 488 79 l 1
 488 0 l 1
 84 0 l 1
EndSplineSet
Substitution2: "'c2sc' Capitals to Small Capitals lookup 34 subtable" ecircumflex.sc
Substitution2: "'aalt' Access All Alternates lookup 0 subtable" ecircumflex.sc
EndChar

StartChar: Edieresis
Encoding: 203 203 141
Width: 563
GlyphClass: 2
Flags: HW
AnchorPoint: "Anchor-2" 543 714 basechar 0
AnchorPoint: "Anchor-1" 289 915 basechar 0
AnchorPoint: "Anchor-0" 282 0 basechar 0
LayerCount: 2
Fore
SplineSet
392 797 m 0
 363 797 339 816 339 857 c 0
 339 898 363 915 392 915 c 0
 421 915 445 898 445 857 c 0
 445 816 421 797 392 797 c 0
177 797 m 0
 148 797 125 816 125 857 c 0
 125 898 148 915 177 915 c 0
 206 915 231 898 231 857 c 0
 231 816 206 797 177 797 c 0
84 0 m 1
 84 714 l 1
 488 714 l 1
 488 635 l 1
 172 635 l 1
 172 412 l 1
 469 412 l 1
 469 332 l 1
 172 332 l 1
 172 79 l 1
 488 79 l 1
 488 0 l 1
 84 0 l 1
EndSplineSet
Substitution2: "'c2sc' Capitals to Small Capitals lookup 34 subtable" edieresis.sc
Substitution2: "'aalt' Access All Alternates lookup 0 subtable" edieresis.sc
EndChar

StartChar: Igrave
Encoding: 204 204 142
Width: 563
GlyphClass: 2
Flags: HW
AnchorPoint: "Anchor-2" 543 714 basechar 0
AnchorPoint: "Anchor-1" 282 944 basechar 0
AnchorPoint: "Anchor-0" 282 0 basechar 0
LayerCount: 2
Fore
SplineSet
296 784 m 1
 253 819 181 895 157 934 c 1
 157 944 l 1
 259 944 l 1
 281 899 323 833 353 796 c 1
 353 784 l 1
 296 784 l 1
97 0 m 1
 97 61 l 1
 237 73 l 1
 237 641 l 1
 97 653 l 1
 97 714 l 1
 466 714 l 1
 466 653 l 1
 324 641 l 1
 324 73 l 1
 466 61 l 1
 466 0 l 1
 97 0 l 1
EndSplineSet
Substitution2: "'c2sc' Capitals to Small Capitals lookup 34 subtable" igrave.sc
Substitution2: "'aalt' Access All Alternates lookup 0 subtable" igrave.sc
EndChar

StartChar: Iacute
Encoding: 205 205 143
Width: 563
GlyphClass: 2
Flags: HW
AnchorPoint: "Anchor-2" 543 714 basechar 0
AnchorPoint: "Anchor-1" 282 944 basechar 0
AnchorPoint: "Anchor-0" 282 0 basechar 0
LayerCount: 2
Fore
SplineSet
236 796 m 1
 269 839 307 899 329 944 c 1
 432 944 l 1
 432 934 l 1
 407 896 337 820 292 784 c 1
 236 784 l 1
 236 796 l 1
97 0 m 1
 97 61 l 1
 237 73 l 1
 237 641 l 1
 97 653 l 1
 97 714 l 1
 466 714 l 1
 466 653 l 1
 324 641 l 1
 324 73 l 1
 466 61 l 1
 466 0 l 1
 97 0 l 1
EndSplineSet
Substitution2: "'c2sc' Capitals to Small Capitals lookup 34 subtable" iacute.sc
Substitution2: "'aalt' Access All Alternates lookup 0 subtable" iacute.sc
EndChar

StartChar: Icircumflex
Encoding: 206 206 144
Width: 563
GlyphClass: 2
Flags: HW
AnchorPoint: "Anchor-2" 543 714 basechar 0
AnchorPoint: "Anchor-1" 282 944 basechar 0
AnchorPoint: "Anchor-0" 282 0 basechar 0
LayerCount: 2
Fore
SplineSet
127 795 m 1
 163 837 215 900 238 944 c 1
 323 944 l 1
 346 899 401 835 437 795 c 1
 437 784 l 1
 381 784 l 1
 349 807 314 844 280 880 c 1
 246 844 212 806 181 784 c 1
 127 784 l 1
 127 795 l 1
97 0 m 1
 97 61 l 1
 237 73 l 1
 237 641 l 1
 97 653 l 1
 97 714 l 1
 466 714 l 1
 466 653 l 1
 324 641 l 1
 324 73 l 1
 466 61 l 1
 466 0 l 1
 97 0 l 1
EndSplineSet
Substitution2: "'c2sc' Capitals to Small Capitals lookup 34 subtable" icircumflex.sc
Substitution2: "'aalt' Access All Alternates lookup 0 subtable" icircumflex.sc
EndChar

StartChar: Idieresis
Encoding: 207 207 145
Width: 563
GlyphClass: 2
Flags: HW
AnchorPoint: "Anchor-2" 543 714 basechar 0
AnchorPoint: "Anchor-1" 282 915 basechar 0
AnchorPoint: "Anchor-0" 282 0 basechar 0
LayerCount: 2
Fore
SplineSet
388 797 m 0
 359 797 335 816 335 857 c 0
 335 898 359 915 388 915 c 0
 417 915 442 898 442 857 c 0
 442 816 417 797 388 797 c 0
174 797 m 0
 145 797 121 816 121 857 c 0
 121 898 145 915 174 915 c 0
 203 915 227 898 227 857 c 0
 227 816 203 797 174 797 c 0
97 0 m 1
 97 61 l 1
 237 73 l 1
 237 641 l 1
 97 653 l 1
 97 714 l 1
 466 714 l 1
 466 653 l 1
 324 641 l 1
 324 73 l 1
 466 61 l 1
 466 0 l 1
 97 0 l 1
EndSplineSet
Substitution2: "'c2sc' Capitals to Small Capitals lookup 34 subtable" idieresis.sc
Substitution2: "'aalt' Access All Alternates lookup 0 subtable" idieresis.sc
EndChar

StartChar: Eth
Encoding: 208 208 146
Width: 563
GlyphClass: 2
Flags: HW
AnchorPoint: "Anchor-3" 295 357 basechar 0
AnchorPoint: "Anchor-2" 573 714 basechar 0
AnchorPoint: "Anchor-1" 282 714 basechar 0
AnchorPoint: "Anchor-0" 282 0 basechar 0
LayerCount: 2
Fore
SplineSet
71 0 m 1
 71 320 l 1
 0 320 l 1
 0 396 l 1
 71 396 l 1
 71 714 l 1
 250 714 l 2
 426 714 536 593 536 365 c 0
 536 124 426 0 232 0 c 2
 71 0 l 1
225 78 m 2
 376 78 446 175 446 363 c 0
 446 554 372 636 236 636 c 2
 158 636 l 1
 158 396 l 1
 290 396 l 1
 290 320 l 1
 158 320 l 1
 158 78 l 1
 225 78 l 2
EndSplineSet
Substitution2: "'c2sc' Capitals to Small Capitals lookup 34 subtable" eth.sc
Substitution2: "'aalt' Access All Alternates lookup 0 subtable" eth.sc
EndChar

StartChar: Ntilde
Encoding: 209 209 147
Width: 563
GlyphClass: 2
Flags: HW
AnchorPoint: "Anchor-2" 563 714 basechar 0
AnchorPoint: "Anchor-1" 282 912 basechar 0
AnchorPoint: "Anchor-0" 282 0 basechar 0
LayerCount: 2
Fore
SplineSet
118 785 m 1
 126 858 158 911 219 911 c 0
 272 911 317 854 357 854 c 0
 385 854 396 874 405 912 c 1
 455 912 l 1
 448 834 412 786 356 786 c 0
 303 786 258 843 218 843 c 0
 189 843 177 823 169 785 c 1
 118 785 l 1
61 0 m 1
 61 714 l 1
 179 714 l 1
 425 107 l 1
 429 107 l 1
 424 165 419 231 419 307 c 2
 419 714 l 1
 503 714 l 1
 503 0 l 1
 393 0 l 1
 137 625 l 1
 132 625 l 1
 138 555 144 486 144 412 c 2
 144 0 l 1
 61 0 l 1
EndSplineSet
Substitution2: "'c2sc' Capitals to Small Capitals lookup 34 subtable" ntilde.sc
Substitution2: "'aalt' Access All Alternates lookup 0 subtable" ntilde.sc
EndChar

StartChar: Ograve
Encoding: 210 210 148
Width: 563
GlyphClass: 2
Flags: HW
AnchorPoint: "Anchor-3" 282 357 basechar 0
AnchorPoint: "Anchor-2" 563 714 basechar 0
AnchorPoint: "Anchor-1" 282 944 basechar 0
AnchorPoint: "Anchor-0" 282 0 basechar 0
LayerCount: 2
Fore
SplineSet
296 784 m 1
 253 819 181 895 157 934 c 1
 157 944 l 1
 259 944 l 1
 281 899 323 833 353 796 c 1
 353 784 l 1
 296 784 l 1
281 -10 m 0
 106 -10 38 145 38 358 c 0
 38 584 113 726 282 726 c 0
 455 726 526 573 526 359 c 0
 526 143 456 -10 281 -10 c 0
283 68 m 0
 393 68 436 173 436 358 c 0
 436 543 392 648 283 648 c 0
 170 648 127 541 127 358 c 0
 127 174 173 68 283 68 c 0
EndSplineSet
Substitution2: "'c2sc' Capitals to Small Capitals lookup 34 subtable" ograve.sc
Substitution2: "'aalt' Access All Alternates lookup 0 subtable" ograve.sc
EndChar

StartChar: Oacute
Encoding: 211 211 149
Width: 563
GlyphClass: 2
Flags: HW
AnchorPoint: "Anchor-3" 282 357 basechar 0
AnchorPoint: "Anchor-2" 563 714 basechar 0
AnchorPoint: "Anchor-1" 282 944 basechar 0
AnchorPoint: "Anchor-0" 282 0 basechar 0
LayerCount: 2
Fore
SplineSet
236 796 m 1
 269 839 307 899 329 944 c 1
 432 944 l 1
 432 934 l 1
 407 896 337 820 292 784 c 1
 236 784 l 1
 236 796 l 1
281 -10 m 0
 106 -10 38 145 38 358 c 0
 38 584 113 726 282 726 c 0
 455 726 526 573 526 359 c 0
 526 143 456 -10 281 -10 c 0
283 68 m 0
 393 68 436 173 436 358 c 0
 436 543 392 648 283 648 c 0
 170 648 127 541 127 358 c 0
 127 174 173 68 283 68 c 0
EndSplineSet
Substitution2: "'c2sc' Capitals to Small Capitals lookup 34 subtable" oacute.sc
Substitution2: "'aalt' Access All Alternates lookup 0 subtable" oacute.sc
EndChar

StartChar: Ocircumflex
Encoding: 212 212 150
Width: 563
GlyphClass: 2
Flags: HW
AnchorPoint: "Anchor-3" 282 357 basechar 0
AnchorPoint: "Anchor-2" 563 714 basechar 0
AnchorPoint: "Anchor-1" 282 944 basechar 0
AnchorPoint: "Anchor-0" 282 0 basechar 0
LayerCount: 2
Fore
SplineSet
127 795 m 1
 163 837 215 900 238 944 c 1
 323 944 l 1
 346 899 401 835 437 795 c 1
 437 784 l 1
 381 784 l 1
 349 807 314 844 280 880 c 1
 246 844 212 806 181 784 c 1
 127 784 l 1
 127 795 l 1
281 -10 m 0
 106 -10 38 145 38 358 c 0
 38 584 113 726 282 726 c 0
 455 726 526 573 526 359 c 0
 526 143 456 -10 281 -10 c 0
283 68 m 0
 393 68 436 173 436 358 c 0
 436 543 392 648 283 648 c 0
 170 648 127 541 127 358 c 0
 127 174 173 68 283 68 c 0
EndSplineSet
Substitution2: "'c2sc' Capitals to Small Capitals lookup 34 subtable" ocircumflex.sc
Substitution2: "'aalt' Access All Alternates lookup 0 subtable" ocircumflex.sc
EndChar

StartChar: Otilde
Encoding: 213 213 151
Width: 563
GlyphClass: 2
Flags: HW
AnchorPoint: "Anchor-3" 282 357 basechar 0
AnchorPoint: "Anchor-2" 563 714 basechar 0
AnchorPoint: "Anchor-1" 282 912 basechar 0
AnchorPoint: "Anchor-0" 282 0 basechar 0
LayerCount: 2
Fore
SplineSet
113 785 m 1
 121 858 153 911 214 911 c 0
 267 911 312 854 352 854 c 0
 380 854 391 874 400 912 c 1
 450 912 l 1
 443 834 407 786 351 786 c 0
 298 786 253 843 213 843 c 0
 184 843 172 823 164 785 c 1
 113 785 l 1
281 -10 m 0
 106 -10 38 145 38 358 c 0
 38 584 113 726 282 726 c 0
 455 726 526 573 526 359 c 0
 526 143 456 -10 281 -10 c 0
283 68 m 0
 393 68 436 173 436 358 c 0
 436 543 392 648 283 648 c 0
 170 648 127 541 127 358 c 0
 127 174 173 68 283 68 c 0
EndSplineSet
Substitution2: "'c2sc' Capitals to Small Capitals lookup 34 subtable" otilde.sc
Substitution2: "'aalt' Access All Alternates lookup 0 subtable" otilde.sc
EndChar

StartChar: Odieresis
Encoding: 214 214 152
Width: 563
GlyphClass: 2
Flags: HW
AnchorPoint: "Anchor-3" 282 357 basechar 0
AnchorPoint: "Anchor-2" 563 714 basechar 0
AnchorPoint: "Anchor-1" 282 915 basechar 0
AnchorPoint: "Anchor-0" 282 0 basechar 0
LayerCount: 2
Fore
SplineSet
388 797 m 0
 359 797 335 816 335 857 c 0
 335 898 359 915 388 915 c 0
 417 915 442 898 442 857 c 0
 442 816 417 797 388 797 c 0
174 797 m 0
 145 797 121 816 121 857 c 0
 121 898 145 915 174 915 c 0
 203 915 227 898 227 857 c 0
 227 816 203 797 174 797 c 0
281 -10 m 0
 106 -10 38 145 38 358 c 0
 38 584 113 726 282 726 c 0
 455 726 526 573 526 359 c 0
 526 143 456 -10 281 -10 c 0
283 68 m 0
 393 68 436 173 436 358 c 0
 436 543 392 648 283 648 c 0
 170 648 127 541 127 358 c 0
 127 174 173 68 283 68 c 0
EndSplineSet
Substitution2: "'c2sc' Capitals to Small Capitals lookup 34 subtable" odieresis.sc
Substitution2: "'aalt' Access All Alternates lookup 0 subtable" odieresis.sc
EndChar

StartChar: multiply
Encoding: 215 215 153
Width: 563
Flags: HW
LayerCount: 2
Fore
SplineSet
128 150 m 1
 79 198 l 1
 232 353 l 1
 78 507 l 1
 127 556 l 1
 281 401 l 1
 437 557 l 1
 486 509 l 1
 331 353 l 1
 484 198 l 1
 436 150 l 1
 281 303 l 1
 128 150 l 1
EndSplineSet
EndChar

StartChar: Oslash
Encoding: 216 216 154
Width: 563
GlyphClass: 2
Flags: HW
AnchorPoint: "Anchor-3" 282 357 basechar 0
AnchorPoint: "Anchor-2" 563 714 basechar 0
AnchorPoint: "Anchor-1" 282 714 basechar 0
AnchorPoint: "Anchor-0" 282 0 basechar 0
LayerCount: 2
Fore
SplineSet
94 -39 m 1
 32 -5 l 1
 92 98 l 1
 54 163 38 253 38 358 c 0
 38 584 113 726 282 726 c 0
 342 726 390 707 427 674 c 1
 471 749 l 1
 532 715 l 1
 473 615 l 1
 509 550 526 462 526 359 c 0
 526 143 456 -10 281 -10 c 0
 222 -10 175 8 139 39 c 1
 94 -39 l 1
127 358 m 0
 127 292 133 236 146 191 c 1
 384 600 l 1
 359 631 326 648 283 648 c 0
 170 648 127 541 127 358 c 0
283 68 m 0
 393 68 436 173 436 358 c 0
 436 423 431 478 419 522 c 1
 183 114 l 1
 207 84 240 68 283 68 c 0
EndSplineSet
Substitution2: "'c2sc' Capitals to Small Capitals lookup 34 subtable" oslash.sc
Substitution2: "'aalt' Access All Alternates lookup 0 subtable" oslash.sc
EndChar

StartChar: Ugrave
Encoding: 217 217 155
Width: 563
GlyphClass: 2
Flags: HW
AnchorPoint: "Anchor-2" 543 714 basechar 0
AnchorPoint: "Anchor-1" 282 944 basechar 0
AnchorPoint: "Anchor-0" 282 0 basechar 0
LayerCount: 2
Fore
SplineSet
296 784 m 1
 253 819 181 895 157 934 c 1
 157 944 l 1
 259 944 l 1
 281 899 323 833 353 796 c 1
 353 784 l 1
 296 784 l 1
281 -10 m 0
 126 -10 61 83 61 241 c 2
 61 714 l 1
 149 714 l 1
 149 245 l 2
 149 133 185 68 282 68 c 0
 384 68 415 138 415 246 c 2
 415 714 l 1
 503 714 l 1
 503 240 l 2
 503 88 439 -10 281 -10 c 0
EndSplineSet
Substitution2: "'c2sc' Capitals to Small Capitals lookup 34 subtable" ugrave.sc
Substitution2: "'aalt' Access All Alternates lookup 0 subtable" ugrave.sc
EndChar

StartChar: Uacute
Encoding: 218 218 156
Width: 563
GlyphClass: 2
Flags: HW
AnchorPoint: "Anchor-2" 543 714 basechar 0
AnchorPoint: "Anchor-1" 282 944 basechar 0
AnchorPoint: "Anchor-0" 282 0 basechar 0
LayerCount: 2
Fore
SplineSet
236 796 m 1
 269 839 307 899 329 944 c 1
 432 944 l 1
 432 934 l 1
 407 896 337 820 292 784 c 1
 236 784 l 1
 236 796 l 1
281 -10 m 0
 126 -10 61 83 61 241 c 2
 61 714 l 1
 149 714 l 1
 149 245 l 2
 149 133 185 68 282 68 c 0
 384 68 415 138 415 246 c 2
 415 714 l 1
 503 714 l 1
 503 240 l 2
 503 88 439 -10 281 -10 c 0
EndSplineSet
Substitution2: "'c2sc' Capitals to Small Capitals lookup 34 subtable" uacute.sc
Substitution2: "'aalt' Access All Alternates lookup 0 subtable" uacute.sc
EndChar

StartChar: Ucircumflex
Encoding: 219 219 157
Width: 563
GlyphClass: 2
Flags: HW
AnchorPoint: "Anchor-2" 543 714 basechar 0
AnchorPoint: "Anchor-1" 282 944 basechar 0
AnchorPoint: "Anchor-0" 282 0 basechar 0
LayerCount: 2
Fore
SplineSet
127 795 m 1
 163 837 215 900 238 944 c 1
 323 944 l 1
 346 899 401 835 437 795 c 1
 437 784 l 1
 381 784 l 1
 349 807 314 844 280 880 c 1
 246 844 212 806 181 784 c 1
 127 784 l 1
 127 795 l 1
281 -10 m 0
 126 -10 61 83 61 241 c 2
 61 714 l 1
 149 714 l 1
 149 245 l 2
 149 133 185 68 282 68 c 0
 384 68 415 138 415 246 c 2
 415 714 l 1
 503 714 l 1
 503 240 l 2
 503 88 439 -10 281 -10 c 0
EndSplineSet
Substitution2: "'c2sc' Capitals to Small Capitals lookup 34 subtable" ucircumflex.sc
Substitution2: "'aalt' Access All Alternates lookup 0 subtable" ucircumflex.sc
EndChar

StartChar: Udieresis
Encoding: 220 220 158
Width: 563
GlyphClass: 2
Flags: HW
AnchorPoint: "Anchor-2" 543 714 basechar 0
AnchorPoint: "Anchor-1" 282 915 basechar 0
AnchorPoint: "Anchor-0" 282 0 basechar 0
LayerCount: 2
Fore
SplineSet
388 797 m 0
 359 797 335 816 335 857 c 0
 335 898 359 915 388 915 c 0
 417 915 442 898 442 857 c 0
 442 816 417 797 388 797 c 0
174 797 m 0
 145 797 121 816 121 857 c 0
 121 898 145 915 174 915 c 0
 203 915 227 898 227 857 c 0
 227 816 203 797 174 797 c 0
281 -10 m 0
 126 -10 61 83 61 241 c 2
 61 714 l 1
 149 714 l 1
 149 245 l 2
 149 133 185 68 282 68 c 0
 384 68 415 138 415 246 c 2
 415 714 l 1
 503 714 l 1
 503 240 l 2
 503 88 439 -10 281 -10 c 0
EndSplineSet
Substitution2: "'c2sc' Capitals to Small Capitals lookup 34 subtable" udieresis.sc
Substitution2: "'aalt' Access All Alternates lookup 0 subtable" udieresis.sc
EndChar

StartChar: Yacute
Encoding: 221 221 159
Width: 563
GlyphClass: 2
Flags: HW
AnchorPoint: "Anchor-2" 543 714 basechar 0
AnchorPoint: "Anchor-1" 282 944 basechar 0
AnchorPoint: "Anchor-0" 282 0 basechar 0
LayerCount: 2
Fore
SplineSet
236 796 m 1
 269 839 307 899 329 944 c 1
 432 944 l 1
 432 934 l 1
 407 896 337 820 292 784 c 1
 236 784 l 1
 236 796 l 1
239 0 m 1
 239 276 l 1
 30 714 l 1
 126 714 l 1
 282 352 l 1
 440 714 l 1
 534 714 l 1
 324 276 l 1
 324 0 l 1
 239 0 l 1
EndSplineSet
Substitution2: "'c2sc' Capitals to Small Capitals lookup 34 subtable" yacute.sc
Substitution2: "'aalt' Access All Alternates lookup 0 subtable" yacute.sc
EndChar

StartChar: Thorn
Encoding: 222 222 160
Width: 563
GlyphClass: 2
Flags: HW
AnchorPoint: "Anchor-1" 282 714 basechar 0
AnchorPoint: "Anchor-0" 282 0 basechar 0
LayerCount: 2
Fore
SplineSet
84 0 m 1
 84 714 l 1
 171 714 l 1
 171 588 l 1
 281 588 l 2
 441 588 512 512 512 379 c 0
 512 255 449 150 269 150 c 2
 171 150 l 1
 171 0 l 1
 84 0 l 1
260 227 m 2
 369 227 422 268 422 374 c 0
 422 465 375 510 275 510 c 2
 171 510 l 1
 171 227 l 1
 260 227 l 2
EndSplineSet
Substitution2: "'c2sc' Capitals to Small Capitals lookup 34 subtable" thorn.sc
Substitution2: "'aalt' Access All Alternates lookup 0 subtable" thorn.sc
EndChar

StartChar: germandbls
Encoding: 223 223 161
Width: 563
GlyphClass: 2
Flags: HW
AnchorPoint: "Anchor-1" 282 765 basechar 0
AnchorPoint: "Anchor-0" 282 0 basechar 0
LayerCount: 2
Fore
SplineSet
357 -10 m 0
 309 -10 264 1 232 21 c 1
 232 102 l 1
 263 82 308 63 356 63 c 0
 418 63 444 95 444 150 c 0
 444 199 423 218 361 266 c 0
 302 311 266 346 266 404 c 0
 266 512 385 522 385 611 c 0
 385 664 343 691 277 691 c 0
 210 691 162 661 162 577 c 2
 162 0 l 1
 76 0 l 1
 76 585 l 2
 76 709 157 765 278 765 c 0
 396 765 474 713 474 619 c 0
 474 502 353 482 353 408 c 0
 353 379 371 365 426 320 c 0
 491 264 530 230 530 149 c 0
 530 43 463 -10 357 -10 c 0
EndSplineSet
Substitution2: "'smcp' Lowercase to Small Capitals lookup 35 subtable" germandbls.sc
Substitution2: "'aalt' Access All Alternates lookup 0 subtable" germandbls.sc
EndChar

StartChar: agrave
Encoding: 224 224 162
Width: 563
GlyphClass: 2
Flags: HW
AnchorPoint: "Anchor-2" 543 536 basechar 0
AnchorPoint: "Anchor-1" 282 766 basechar 0
AnchorPoint: "Anchor-0" 282 0 basechar 0
LayerCount: 2
Fore
SplineSet
305 606 m 1
 261 641 190 717 166 756 c 1
 166 766 l 1
 268 766 l 1
 290 721 332 655 361 618 c 1
 361 606 l 1
 305 606 l 1
232 -10 m 0
 135 -10 66 42 66 148 c 0
 66 263 146 318 295 322 c 2
 403 325 l 1
 403 351 l 2
 403 444 353 473 279 473 c 0
 225 473 174 457 131 432 c 1
 100 499 l 1
 151 525 208 546 284 546 c 0
 412 546 484 488 484 362 c 2
 484 0 l 1
 416 0 l 1
 403 75 l 1
 399 75 l 1
 358 19 306 -10 232 -10 c 0
250 63 m 0
 330 63 402 111 402 214 c 2
 402 262 l 1
 315 259 l 2
 199 255 152 218 152 151 c 0
 152 88 193 63 250 63 c 0
EndSplineSet
Substitution2: "'smcp' Lowercase to Small Capitals lookup 35 subtable" agrave.sc
Substitution2: "'aalt' Access All Alternates lookup 0 subtable" agrave.sc
EndChar

StartChar: aacute
Encoding: 225 225 163
Width: 563
GlyphClass: 2
Flags: HW
AnchorPoint: "Anchor-2" 543 536 basechar 0
AnchorPoint: "Anchor-1" 282 766 basechar 0
AnchorPoint: "Anchor-0" 282 0 basechar 0
LayerCount: 2
Fore
SplineSet
245 618 m 1
 277 661 315 721 338 766 c 1
 440 766 l 1
 440 756 l 1
 415 718 346 642 301 606 c 1
 245 606 l 1
 245 618 l 1
232 -10 m 0
 135 -10 66 42 66 148 c 0
 66 263 146 318 295 322 c 2
 403 325 l 1
 403 351 l 2
 403 444 353 473 279 473 c 0
 225 473 174 457 131 432 c 1
 100 499 l 1
 151 525 208 546 284 546 c 0
 412 546 484 488 484 362 c 2
 484 0 l 1
 416 0 l 1
 403 75 l 1
 399 75 l 1
 358 19 306 -10 232 -10 c 0
250 63 m 0
 330 63 402 111 402 214 c 2
 402 262 l 1
 315 259 l 2
 199 255 152 218 152 151 c 0
 152 88 193 63 250 63 c 0
EndSplineSet
Substitution2: "'smcp' Lowercase to Small Capitals lookup 35 subtable" aacute.sc
Substitution2: "'aalt' Access All Alternates lookup 0 subtable" aacute.sc
EndChar

StartChar: acircumflex
Encoding: 226 226 164
Width: 563
GlyphClass: 2
Flags: HW
AnchorPoint: "Anchor-2" 543 536 basechar 0
AnchorPoint: "Anchor-1" 282 766 basechar 0
AnchorPoint: "Anchor-0" 282 0 basechar 0
LayerCount: 2
Fore
SplineSet
135 617 m 1
 172 659 223 722 247 766 c 1
 332 766 l 1
 355 721 409 657 445 617 c 1
 445 606 l 1
 390 606 l 1
 357 629 323 666 289 702 c 1
 255 666 221 628 190 606 c 1
 135 606 l 1
 135 617 l 1
232 -10 m 0
 135 -10 66 42 66 148 c 0
 66 263 146 318 295 322 c 2
 403 325 l 1
 403 351 l 2
 403 444 353 473 279 473 c 0
 225 473 174 457 131 432 c 1
 100 499 l 1
 151 525 208 546 284 546 c 0
 412 546 484 488 484 362 c 2
 484 0 l 1
 416 0 l 1
 403 75 l 1
 399 75 l 1
 358 19 306 -10 232 -10 c 0
250 63 m 0
 330 63 402 111 402 214 c 2
 402 262 l 1
 315 259 l 2
 199 255 152 218 152 151 c 0
 152 88 193 63 250 63 c 0
EndSplineSet
Substitution2: "'smcp' Lowercase to Small Capitals lookup 35 subtable" acircumflex.sc
Substitution2: "'aalt' Access All Alternates lookup 0 subtable" acircumflex.sc
EndChar

StartChar: atilde
Encoding: 227 227 165
Width: 563
GlyphClass: 2
Flags: HW
AnchorPoint: "Anchor-2" 543 536 basechar 0
AnchorPoint: "Anchor-1" 282 734 basechar 0
AnchorPoint: "Anchor-0" 282 0 basechar 0
LayerCount: 2
Fore
SplineSet
122 607 m 1
 129 680 162 733 222 733 c 0
 276 733 320 676 361 676 c 0
 388 676 400 696 408 734 c 1
 459 734 l 1
 452 656 416 608 359 608 c 0
 306 608 261 665 221 665 c 0
 193 665 181 645 173 607 c 1
 122 607 l 1
232 -10 m 0
 135 -10 66 42 66 148 c 0
 66 263 146 318 295 322 c 2
 403 325 l 1
 403 351 l 2
 403 444 353 473 279 473 c 0
 225 473 174 457 131 432 c 1
 100 499 l 1
 151 525 208 546 284 546 c 0
 412 546 484 488 484 362 c 2
 484 0 l 1
 416 0 l 1
 403 75 l 1
 399 75 l 1
 358 19 306 -10 232 -10 c 0
250 63 m 0
 330 63 402 111 402 214 c 2
 402 262 l 1
 315 259 l 2
 199 255 152 218 152 151 c 0
 152 88 193 63 250 63 c 0
EndSplineSet
Substitution2: "'smcp' Lowercase to Small Capitals lookup 35 subtable" atilde.sc
Substitution2: "'aalt' Access All Alternates lookup 0 subtable" atilde.sc
EndChar

StartChar: adieresis
Encoding: 228 228 166
Width: 563
GlyphClass: 2
Flags: HW
AnchorPoint: "Anchor-2" 543 536 basechar 0
AnchorPoint: "Anchor-1" 290 737 basechar 0
AnchorPoint: "Anchor-0" 282 0 basechar 0
LayerCount: 2
Fore
SplineSet
397 619 m 0
 368 619 344 638 344 679 c 0
 344 720 368 737 397 737 c 0
 426 737 451 720 451 679 c 0
 451 638 426 619 397 619 c 0
183 619 m 0
 154 619 130 638 130 679 c 0
 130 720 154 737 183 737 c 0
 211 737 236 720 236 679 c 0
 236 638 211 619 183 619 c 0
232 -10 m 0
 135 -10 66 42 66 148 c 0
 66 263 146 318 295 322 c 2
 403 325 l 1
 403 351 l 2
 403 444 353 473 279 473 c 0
 225 473 174 457 131 432 c 1
 100 499 l 1
 151 525 208 546 284 546 c 0
 412 546 484 488 484 362 c 2
 484 0 l 1
 416 0 l 1
 403 75 l 1
 399 75 l 1
 358 19 306 -10 232 -10 c 0
250 63 m 0
 330 63 402 111 402 214 c 2
 402 262 l 1
 315 259 l 2
 199 255 152 218 152 151 c 0
 152 88 193 63 250 63 c 0
EndSplineSet
Substitution2: "'smcp' Lowercase to Small Capitals lookup 35 subtable" adieresis.sc
Substitution2: "'aalt' Access All Alternates lookup 0 subtable" adieresis.sc
EndChar

StartChar: aring
Encoding: 229 229 167
Width: 563
GlyphClass: 2
Flags: HW
AnchorPoint: "Anchor-2" 543 536 basechar 0
AnchorPoint: "Anchor-1" 282 814 basechar 0
AnchorPoint: "Anchor-0" 282 0 basechar 0
LayerCount: 2
Fore
SplineSet
290 607 m 0
 225 607 182 646 182 711 c 0
 182 775 225 814 290 814 c 0
 352 814 398 775 398 712 c 0
 398 647 354 607 290 607 c 0
290 658 m 0
 322 658 344 678 344 711 c 0
 344 744 322 765 290 765 c 0
 259 765 237 744 237 711 c 0
 237 678 259 658 290 658 c 0
232 -10 m 0
 135 -10 66 42 66 148 c 0
 66 263 146 318 295 322 c 2
 403 325 l 1
 403 351 l 2
 403 444 353 473 279 473 c 0
 225 473 174 457 131 432 c 1
 100 499 l 1
 151 525 208 546 284 546 c 0
 412 546 484 488 484 362 c 2
 484 0 l 1
 416 0 l 1
 403 75 l 1
 399 75 l 1
 358 19 306 -10 232 -10 c 0
250 63 m 0
 330 63 402 111 402 214 c 2
 402 262 l 1
 315 259 l 2
 199 255 152 218 152 151 c 0
 152 88 193 63 250 63 c 0
EndSplineSet
Substitution2: "'smcp' Lowercase to Small Capitals lookup 35 subtable" aring.sc
Substitution2: "'aalt' Access All Alternates lookup 0 subtable" aring.sc
EndChar

StartChar: ae
Encoding: 230 230 168
Width: 563
GlyphClass: 2
Flags: HW
AnchorPoint: "Anchor-1" 282 536 basechar 0
AnchorPoint: "Anchor-0" 282 0 basechar 0
LayerCount: 2
Fore
SplineSet
140 -10 m 0
 70 -10 18 42 18 149 c 0
 18 256 74 316 169 320 c 2
 238 322 l 1
 238 356 l 2
 238 443 213 473 165 473 c 0
 135 473 101 458 76 436 c 1
 46 499 l 1
 78 525 129 546 172 546 c 0
 230 546 271 522 292 466 c 1
 313 516 351 546 406 546 c 0
 494 546 545 459 545 306 c 2
 545 251 l 1
 317 251 l 1
 319 109 363 63 428 63 c 0
 466 63 496 75 532 105 c 1
 532 26 l 1
 496 0 465 -10 422 -10 c 0
 361 -10 306 17 278 100 c 1
 248 20 206 -10 140 -10 c 0
467 322 m 1
 467 422 446 473 398 473 c 0
 353 473 322 420 319 322 c 1
 467 322 l 1
154 63 m 0
 199 63 237 101 237 214 c 2
 237 259 l 1
 197 256 l 2
 130 252 96 218 96 149 c 0
 96 89 122 63 154 63 c 0
EndSplineSet
Substitution2: "'smcp' Lowercase to Small Capitals lookup 35 subtable" ae.sc
Substitution2: "'aalt' Access All Alternates lookup 0 subtable" ae.sc
EndChar

StartChar: ccedilla
Encoding: 231 231 169
Width: 563
GlyphClass: 2
Flags: HW
AnchorPoint: "Anchor-2" 543 536 basechar 0
AnchorPoint: "Anchor-1" 325 536 basechar 0
AnchorPoint: "Anchor-0" 303 -240 basechar 0
LayerCount: 2
Fore
SplineSet
270 -240 m 0
 250 -240 231 -238 219 -235 c 1
 219 -180 l 1
 231 -183 251 -185 268 -185 c 0
 313 -185 338 -171 338 -140 c 0
 338 -106 307 -91 253 -83 c 1
 287 -8 l 1
 159 4 80 87 80 264 c 0
 80 470 185 546 330 546 c 0
 389 546 437 534 481 512 c 1
 454 440 l 1
 414 462 379 470 335 470 c 0
 220 470 169 404 169 266 c 0
 169 124 225 66 332 66 c 0
 385 66 435 80 474 98 c 1
 474 20 l 1
 439 3 390 -8 341 -10 c 1
 323 -52 l 1
 373 -63 408 -88 408 -141 c 0
 408 -203 360 -240 270 -240 c 0
EndSplineSet
Substitution2: "'smcp' Lowercase to Small Capitals lookup 35 subtable" ccedilla.sc
Substitution2: "'aalt' Access All Alternates lookup 0 subtable" ccedilla.sc
EndChar

StartChar: egrave
Encoding: 232 232 170
Width: 563
GlyphClass: 2
Flags: HW
AnchorPoint: "Anchor-2" 543 536 basechar 0
AnchorPoint: "Anchor-1" 282 766 basechar 0
AnchorPoint: "Anchor-0" 282 0 basechar 0
LayerCount: 2
Fore
SplineSet
300 606 m 1
 257 641 185 717 161 756 c 1
 161 766 l 1
 263 766 l 1
 285 721 327 655 357 618 c 1
 357 606 l 1
 300 606 l 1
318 -10 m 0
 155 -10 55 88 55 265 c 0
 55 441 148 546 292 546 c 0
 428 546 509 448 509 296 c 2
 509 250 l 1
 143 250 l 1
 147 116 214 64 322 64 c 0
 379 64 431 80 486 107 c 1
 486 28 l 1
 430 1 374 -10 318 -10 c 0
422 322 m 1
 419 414 374 473 292 473 c 0
 209 473 156 416 145 322 c 1
 422 322 l 1
EndSplineSet
Substitution2: "'smcp' Lowercase to Small Capitals lookup 35 subtable" egrave.sc
Substitution2: "'aalt' Access All Alternates lookup 0 subtable" egrave.sc
EndChar

StartChar: eacute
Encoding: 233 233 171
Width: 563
GlyphClass: 2
Flags: HW
AnchorPoint: "Anchor-2" 543 536 basechar 0
AnchorPoint: "Anchor-1" 282 766 basechar 0
AnchorPoint: "Anchor-0" 282 0 basechar 0
LayerCount: 2
Fore
SplineSet
240 618 m 1
 273 661 311 721 333 766 c 1
 436 766 l 1
 436 756 l 1
 411 718 341 642 296 606 c 1
 240 606 l 1
 240 618 l 1
318 -10 m 0
 155 -10 55 88 55 265 c 0
 55 441 148 546 292 546 c 0
 428 546 509 448 509 296 c 2
 509 250 l 1
 143 250 l 1
 147 116 214 64 322 64 c 0
 379 64 431 80 486 107 c 1
 486 28 l 1
 430 1 374 -10 318 -10 c 0
422 322 m 1
 419 414 374 473 292 473 c 0
 209 473 156 416 145 322 c 1
 422 322 l 1
EndSplineSet
Substitution2: "'smcp' Lowercase to Small Capitals lookup 35 subtable" eacute.sc
Substitution2: "'aalt' Access All Alternates lookup 0 subtable" eacute.sc
EndChar

StartChar: ecircumflex
Encoding: 234 234 172
Width: 563
GlyphClass: 2
Flags: HW
AnchorPoint: "Anchor-2" 543 536 basechar 0
AnchorPoint: "Anchor-1" 282 766 basechar 0
AnchorPoint: "Anchor-0" 282 0 basechar 0
LayerCount: 2
Fore
SplineSet
131 617 m 1
 167 659 219 722 242 766 c 1
 327 766 l 1
 350 721 405 657 441 617 c 1
 441 606 l 1
 385 606 l 1
 353 629 318 666 284 702 c 1
 250 666 216 628 185 606 c 1
 131 606 l 1
 131 617 l 1
318 -10 m 0
 155 -10 55 88 55 265 c 0
 55 441 148 546 292 546 c 0
 428 546 509 448 509 296 c 2
 509 250 l 1
 143 250 l 1
 147 116 214 64 322 64 c 0
 379 64 431 80 486 107 c 1
 486 28 l 1
 430 1 374 -10 318 -10 c 0
422 322 m 1
 419 414 374 473 292 473 c 0
 209 473 156 416 145 322 c 1
 422 322 l 1
EndSplineSet
Substitution2: "'smcp' Lowercase to Small Capitals lookup 35 subtable" ecircumflex.sc
Substitution2: "'aalt' Access All Alternates lookup 0 subtable" ecircumflex.sc
EndChar

StartChar: edieresis
Encoding: 235 235 173
Width: 563
GlyphClass: 2
Flags: HW
AnchorPoint: "Anchor-2" 543 536 basechar 0
AnchorPoint: "Anchor-1" 282 737 basechar 0
AnchorPoint: "Anchor-0" 282 0 basechar 0
LayerCount: 2
Fore
SplineSet
392 619 m 0
 363 619 339 638 339 679 c 0
 339 720 363 737 392 737 c 0
 421 737 446 720 446 679 c 0
 446 638 421 619 392 619 c 0
178 619 m 0
 149 619 125 638 125 679 c 0
 125 720 149 737 178 737 c 0
 207 737 231 720 231 679 c 0
 231 638 207 619 178 619 c 0
318 -10 m 0
 155 -10 55 88 55 265 c 0
 55 441 148 546 292 546 c 0
 428 546 509 448 509 296 c 2
 509 250 l 1
 143 250 l 1
 147 116 214 64 322 64 c 0
 379 64 431 80 486 107 c 1
 486 28 l 1
 430 1 374 -10 318 -10 c 0
422 322 m 1
 419 414 374 473 292 473 c 0
 209 473 156 416 145 322 c 1
 422 322 l 1
EndSplineSet
Substitution2: "'smcp' Lowercase to Small Capitals lookup 35 subtable" edieresis.sc
Substitution2: "'aalt' Access All Alternates lookup 0 subtable" edieresis.sc
EndChar

StartChar: igrave
Encoding: 236 236 174
Width: 563
GlyphClass: 2
Flags: HW
AnchorPoint: "Anchor-3" 297 284 basechar 0
AnchorPoint: "Anchor-1" 282 766 basechar 0
AnchorPoint: "Anchor-0" 282 0 basechar 0
LayerCount: 2
Fore
SplineSet
296 606 m 1
 253 641 181 717 157 756 c 1
 157 766 l 1
 259 766 l 1
 281 721 323 655 353 618 c 1
 353 606 l 1
 296 606 l 1
78 0 m 1
 78 60 l 1
 251 73 l 1
 251 462 l 1
 90 475 l 1
 90 536 l 1
 338 536 l 1
 338 73 l 1
 498 60 l 1
 498 0 l 1
 78 0 l 1
EndSplineSet
Substitution2: "'smcp' Lowercase to Small Capitals lookup 35 subtable" igrave.sc
Substitution2: "'aalt' Access All Alternates lookup 0 subtable" igrave.sc
EndChar

StartChar: iacute
Encoding: 237 237 175
Width: 563
GlyphClass: 2
Flags: HW
AnchorPoint: "Anchor-3" 297 284 basechar 0
AnchorPoint: "Anchor-1" 282 766 basechar 0
AnchorPoint: "Anchor-0" 282 0 basechar 0
LayerCount: 2
Fore
SplineSet
236 618 m 1
 269 661 307 721 329 766 c 1
 432 766 l 1
 432 756 l 1
 407 718 337 642 292 606 c 1
 236 606 l 1
 236 618 l 1
78 0 m 1
 78 60 l 1
 251 73 l 1
 251 462 l 1
 90 475 l 1
 90 536 l 1
 338 536 l 1
 338 73 l 1
 498 60 l 1
 498 0 l 1
 78 0 l 1
EndSplineSet
Substitution2: "'smcp' Lowercase to Small Capitals lookup 35 subtable" iacute.sc
Substitution2: "'aalt' Access All Alternates lookup 0 subtable" iacute.sc
EndChar

StartChar: icircumflex
Encoding: 238 238 176
Width: 563
GlyphClass: 2
Flags: HW
AnchorPoint: "Anchor-3" 297 284 basechar 0
AnchorPoint: "Anchor-1" 282 766 basechar 0
AnchorPoint: "Anchor-0" 282 0 basechar 0
LayerCount: 2
Fore
SplineSet
127 617 m 1
 163 659 215 722 238 766 c 1
 323 766 l 1
 346 721 401 657 437 617 c 1
 437 606 l 1
 381 606 l 1
 349 629 314 666 280 702 c 1
 246 666 212 628 181 606 c 1
 127 606 l 1
 127 617 l 1
78 0 m 1
 78 60 l 1
 251 73 l 1
 251 462 l 1
 90 475 l 1
 90 536 l 1
 338 536 l 1
 338 73 l 1
 498 60 l 1
 498 0 l 1
 78 0 l 1
EndSplineSet
Substitution2: "'smcp' Lowercase to Small Capitals lookup 35 subtable" icircumflex.sc
Substitution2: "'aalt' Access All Alternates lookup 0 subtable" icircumflex.sc
EndChar

StartChar: idieresis
Encoding: 239 239 177
Width: 563
GlyphClass: 2
Flags: HW
AnchorPoint: "Anchor-3" 297 284 basechar 0
AnchorPoint: "Anchor-1" 282 737 basechar 0
AnchorPoint: "Anchor-0" 282 0 basechar 0
LayerCount: 2
Fore
SplineSet
388 619 m 0
 359 619 335 638 335 679 c 0
 335 720 359 737 388 737 c 0
 417 737 442 720 442 679 c 0
 442 638 417 619 388 619 c 0
174 619 m 0
 145 619 121 638 121 679 c 0
 121 720 145 737 174 737 c 0
 203 737 227 720 227 679 c 0
 227 638 203 619 174 619 c 0
78 0 m 1
 78 60 l 1
 251 73 l 1
 251 462 l 1
 90 475 l 1
 90 536 l 1
 338 536 l 1
 338 73 l 1
 498 60 l 1
 498 0 l 1
 78 0 l 1
EndSplineSet
Substitution2: "'smcp' Lowercase to Small Capitals lookup 35 subtable" idieresis.sc
Substitution2: "'aalt' Access All Alternates lookup 0 subtable" idieresis.sc
EndChar

StartChar: eth
Encoding: 240 240 178
Width: 563
GlyphClass: 2
Flags: HW
AnchorPoint: "Anchor-3" 282 268 basechar 0
AnchorPoint: "Anchor-2" 543 760 basechar 0
AnchorPoint: "Anchor-1" 282 765 basechar 0
AnchorPoint: "Anchor-0" 282 0 basechar 0
LayerCount: 2
Fore
SplineSet
283 -10 m 0
 144 -10 50 86 50 233 c 0
 50 383 136 473 272 473 c 0
 337 473 387 456 417 418 c 1
 421 420 l 1
 399 493 355 557 299 610 c 1
 182 541 l 1
 145 596 l 1
 246 655 l 1
 221 674 194 691 166 707 c 1
 202 765 l 1
 243 745 280 721 313 694 c 1
 429 762 l 1
 465 708 l 1
 364 648 l 1
 460 549 514 418 514 272 c 0
 514 85 427 -10 283 -10 c 0
285 62 m 0
 383 62 426 127 426 249 c 0
 426 333 381 402 285 402 c 0
 182 402 137 342 137 230 c 0
 137 133 182 62 285 62 c 0
EndSplineSet
Substitution2: "'smcp' Lowercase to Small Capitals lookup 35 subtable" eth.sc
Substitution2: "'aalt' Access All Alternates lookup 0 subtable" eth.sc
EndChar

StartChar: ntilde
Encoding: 241 241 179
Width: 563
GlyphClass: 2
Flags: HW
AnchorPoint: "Anchor-2" 543 536 basechar 0
AnchorPoint: "Anchor-1" 282 734 basechar 0
AnchorPoint: "Anchor-0" 282 0 basechar 0
LayerCount: 2
Fore
SplineSet
125 607 m 1
 132 680 165 733 225 733 c 0
 279 733 323 676 364 676 c 0
 391 676 403 696 411 734 c 1
 462 734 l 1
 455 656 419 608 362 608 c 0
 309 608 264 665 224 665 c 0
 196 665 184 645 176 607 c 1
 125 607 l 1
73 0 m 1
 73 536 l 1
 143 536 l 1
 155 460 l 1
 160 460 l 1
 190 519 250 546 323 546 c 0
 429 546 496 487 496 355 c 2
 496 0 l 1
 409 0 l 1
 409 343 l 2
 409 431 376 473 301 473 c 0
 202 473 160 401 160 276 c 2
 160 0 l 1
 73 0 l 1
EndSplineSet
Substitution2: "'smcp' Lowercase to Small Capitals lookup 35 subtable" ntilde.sc
Substitution2: "'aalt' Access All Alternates lookup 0 subtable" ntilde.sc
EndChar

StartChar: ograve
Encoding: 242 242 180
Width: 563
GlyphClass: 2
Flags: HW
AnchorPoint: "Anchor-3" 282 268 basechar 0
AnchorPoint: "Anchor-2" 543 536 basechar 0
AnchorPoint: "Anchor-1" 282 766 basechar 0
AnchorPoint: "Anchor-0" 282 0 basechar 0
LayerCount: 2
Fore
SplineSet
296 606 m 1
 253 641 181 717 157 756 c 1
 157 766 l 1
 259 766 l 1
 281 721 323 655 353 618 c 1
 353 606 l 1
 296 606 l 1
283 -10 m 0
 146 -10 50 85 50 270 c 0
 50 452 143 546 280 546 c 0
 416 546 514 452 514 267 c 0
 514 85 419 -10 283 -10 c 0
282 62 m 0
 377 62 425 138 425 269 c 0
 425 400 376 474 281 474 c 0
 186 474 137 400 137 269 c 0
 137 138 186 62 282 62 c 0
EndSplineSet
Substitution2: "'smcp' Lowercase to Small Capitals lookup 35 subtable" ograve.sc
Substitution2: "'aalt' Access All Alternates lookup 0 subtable" ograve.sc
EndChar

StartChar: oacute
Encoding: 243 243 181
Width: 563
GlyphClass: 2
Flags: HW
AnchorPoint: "Anchor-3" 282 268 basechar 0
AnchorPoint: "Anchor-2" 543 536 basechar 0
AnchorPoint: "Anchor-1" 282 766 basechar 0
AnchorPoint: "Anchor-0" 282 0 basechar 0
LayerCount: 2
Fore
SplineSet
236 618 m 1
 269 661 307 721 329 766 c 1
 432 766 l 1
 432 756 l 1
 407 718 337 642 292 606 c 1
 236 606 l 1
 236 618 l 1
283 -10 m 0
 146 -10 50 85 50 270 c 0
 50 452 143 546 280 546 c 0
 416 546 514 452 514 267 c 0
 514 85 419 -10 283 -10 c 0
282 62 m 0
 377 62 425 138 425 269 c 0
 425 400 376 474 281 474 c 0
 186 474 137 400 137 269 c 0
 137 138 186 62 282 62 c 0
EndSplineSet
Substitution2: "'smcp' Lowercase to Small Capitals lookup 35 subtable" oacute.sc
Substitution2: "'aalt' Access All Alternates lookup 0 subtable" oacute.sc
EndChar

StartChar: ocircumflex
Encoding: 244 244 182
Width: 563
GlyphClass: 2
Flags: HW
AnchorPoint: "Anchor-3" 282 268 basechar 0
AnchorPoint: "Anchor-2" 543 536 basechar 0
AnchorPoint: "Anchor-1" 282 766 basechar 0
AnchorPoint: "Anchor-0" 282 0 basechar 0
LayerCount: 2
Fore
SplineSet
127 617 m 1
 163 659 215 722 238 766 c 1
 323 766 l 1
 346 721 401 657 437 617 c 1
 437 606 l 1
 381 606 l 1
 349 629 314 666 280 702 c 1
 246 666 212 628 181 606 c 1
 127 606 l 1
 127 617 l 1
283 -10 m 0
 146 -10 50 85 50 270 c 0
 50 452 143 546 280 546 c 0
 416 546 514 452 514 267 c 0
 514 85 419 -10 283 -10 c 0
282 62 m 0
 377 62 425 138 425 269 c 0
 425 400 376 474 281 474 c 0
 186 474 137 400 137 269 c 0
 137 138 186 62 282 62 c 0
EndSplineSet
Substitution2: "'smcp' Lowercase to Small Capitals lookup 35 subtable" ocircumflex.sc
Substitution2: "'aalt' Access All Alternates lookup 0 subtable" ocircumflex.sc
EndChar

StartChar: otilde
Encoding: 245 245 183
Width: 563
GlyphClass: 2
Flags: HW
AnchorPoint: "Anchor-3" 282 268 basechar 0
AnchorPoint: "Anchor-2" 543 536 basechar 0
AnchorPoint: "Anchor-1" 282 734 basechar 0
AnchorPoint: "Anchor-0" 282 0 basechar 0
LayerCount: 2
Fore
SplineSet
113 607 m 1
 121 680 153 733 214 733 c 0
 267 733 312 676 352 676 c 0
 380 676 391 696 400 734 c 1
 450 734 l 1
 443 656 407 608 351 608 c 0
 298 608 253 665 213 665 c 0
 184 665 172 645 164 607 c 1
 113 607 l 1
283 -10 m 0
 146 -10 50 85 50 270 c 0
 50 452 143 546 280 546 c 0
 416 546 514 452 514 267 c 0
 514 85 419 -10 283 -10 c 0
282 62 m 0
 377 62 425 138 425 269 c 0
 425 400 376 474 281 474 c 0
 186 474 137 400 137 269 c 0
 137 138 186 62 282 62 c 0
EndSplineSet
Substitution2: "'smcp' Lowercase to Small Capitals lookup 35 subtable" otilde.sc
Substitution2: "'aalt' Access All Alternates lookup 0 subtable" otilde.sc
EndChar

StartChar: odieresis
Encoding: 246 246 184
Width: 563
GlyphClass: 2
Flags: HW
AnchorPoint: "Anchor-3" 282 268 basechar 0
AnchorPoint: "Anchor-2" 543 536 basechar 0
AnchorPoint: "Anchor-1" 282 737 basechar 0
AnchorPoint: "Anchor-0" 282 0 basechar 0
LayerCount: 2
Fore
SplineSet
388 619 m 0
 359 619 335 638 335 679 c 0
 335 720 359 737 388 737 c 0
 417 737 442 720 442 679 c 0
 442 638 417 619 388 619 c 0
174 619 m 0
 145 619 121 638 121 679 c 0
 121 720 145 737 174 737 c 0
 203 737 227 720 227 679 c 0
 227 638 203 619 174 619 c 0
283 -10 m 0
 146 -10 50 85 50 270 c 0
 50 452 143 546 280 546 c 0
 416 546 514 452 514 267 c 0
 514 85 419 -10 283 -10 c 0
282 62 m 0
 377 62 425 138 425 269 c 0
 425 400 376 474 281 474 c 0
 186 474 137 400 137 269 c 0
 137 138 186 62 282 62 c 0
EndSplineSet
Substitution2: "'smcp' Lowercase to Small Capitals lookup 35 subtable" odieresis.sc
Substitution2: "'aalt' Access All Alternates lookup 0 subtable" odieresis.sc
EndChar

StartChar: divide
Encoding: 247 247 185
Width: 563
Flags: HW
LayerCount: 2
Fore
SplineSet
282 465 m 0
 250 465 228 484 228 526 c 0
 228 569 250 587 282 587 c 0
 313 587 335 569 335 526 c 0
 335 483 311 465 282 465 c 0
75 318 m 1
 75 388 l 1
 488 388 l 1
 488 318 l 1
 75 318 l 1
282 118 m 0
 250 118 228 137 228 179 c 0
 228 223 250 240 282 240 c 0
 313 240 335 223 335 179 c 0
 335 136 311 118 282 118 c 0
EndSplineSet
EndChar

StartChar: oslash
Encoding: 248 248 186
Width: 563
GlyphClass: 2
Flags: HW
AnchorPoint: "Anchor-3" 282 268 basechar 0
AnchorPoint: "Anchor-2" 543 536 basechar 0
AnchorPoint: "Anchor-1" 282 536 basechar 0
AnchorPoint: "Anchor-0" 282 0 basechar 0
LayerCount: 2
Fore
SplineSet
124 -39 m 1
 68 -3 l 1
 112 63 l 1
 73 110 50 179 50 270 c 0
 50 452 143 546 280 546 c 0
 330 546 374 534 411 509 c 1
 452 570 l 1
 509 534 l 1
 460 461 l 1
 494 415 514 350 514 267 c 0
 514 85 419 -10 283 -10 c 0
 238 -10 198 0 164 20 c 1
 124 -39 l 1
137 269 m 0
 137 215 146 171 162 137 c 1
 368 444 l 1
 345 464 316 474 281 474 c 0
 186 474 137 400 137 269 c 0
282 62 m 0
 377 62 425 138 425 269 c 0
 425 314 419 352 407 383 c 1
 207 84 l 1
 227 70 252 62 282 62 c 0
EndSplineSet
Substitution2: "'smcp' Lowercase to Small Capitals lookup 35 subtable" oslash.sc
Substitution2: "'aalt' Access All Alternates lookup 0 subtable" oslash.sc
EndChar

StartChar: ugrave
Encoding: 249 249 187
Width: 563
GlyphClass: 2
Flags: HW
AnchorPoint: "Anchor-2" 543 536 basechar 0
AnchorPoint: "Anchor-1" 282 766 basechar 0
AnchorPoint: "Anchor-0" 282 0 basechar 0
LayerCount: 2
Fore
SplineSet
296 606 m 1
 253 641 181 717 157 756 c 1
 157 766 l 1
 259 766 l 1
 281 721 323 655 353 618 c 1
 353 606 l 1
 296 606 l 1
243 -10 m 0
 126 -10 68 52 68 177 c 2
 68 536 l 1
 155 536 l 1
 155 192 l 2
 155 103 187 63 267 63 c 0
 367 63 404 135 404 259 c 2
 404 536 l 1
 491 536 l 1
 491 0 l 1
 420 0 l 1
 407 72 l 1
 402 72 l 1
 368 13 314 -10 243 -10 c 0
EndSplineSet
Substitution2: "'smcp' Lowercase to Small Capitals lookup 35 subtable" ugrave.sc
Substitution2: "'aalt' Access All Alternates lookup 0 subtable" ugrave.sc
EndChar

StartChar: uacute
Encoding: 250 250 188
Width: 563
GlyphClass: 2
Flags: HW
AnchorPoint: "Anchor-2" 543 536 basechar 0
AnchorPoint: "Anchor-1" 282 766 basechar 0
AnchorPoint: "Anchor-0" 282 0 basechar 0
LayerCount: 2
Fore
SplineSet
236 618 m 1
 269 661 307 721 329 766 c 1
 432 766 l 1
 432 756 l 1
 407 718 337 642 292 606 c 1
 236 606 l 1
 236 618 l 1
243 -10 m 0
 126 -10 68 52 68 177 c 2
 68 536 l 1
 155 536 l 1
 155 192 l 2
 155 103 187 63 267 63 c 0
 367 63 404 135 404 259 c 2
 404 536 l 1
 491 536 l 1
 491 0 l 1
 420 0 l 1
 407 72 l 1
 402 72 l 1
 368 13 314 -10 243 -10 c 0
EndSplineSet
Substitution2: "'smcp' Lowercase to Small Capitals lookup 35 subtable" uacute.sc
Substitution2: "'aalt' Access All Alternates lookup 0 subtable" uacute.sc
EndChar

StartChar: ucircumflex
Encoding: 251 251 189
Width: 563
GlyphClass: 2
Flags: HW
AnchorPoint: "Anchor-2" 543 536 basechar 0
AnchorPoint: "Anchor-1" 282 766 basechar 0
AnchorPoint: "Anchor-0" 282 0 basechar 0
LayerCount: 2
Fore
SplineSet
127 617 m 1
 163 659 215 722 238 766 c 1
 323 766 l 1
 346 721 401 657 437 617 c 1
 437 606 l 1
 381 606 l 1
 349 629 314 666 280 702 c 1
 246 666 212 628 181 606 c 1
 127 606 l 1
 127 617 l 1
243 -10 m 0
 126 -10 68 52 68 177 c 2
 68 536 l 1
 155 536 l 1
 155 192 l 2
 155 103 187 63 267 63 c 0
 367 63 404 135 404 259 c 2
 404 536 l 1
 491 536 l 1
 491 0 l 1
 420 0 l 1
 407 72 l 1
 402 72 l 1
 368 13 314 -10 243 -10 c 0
EndSplineSet
Substitution2: "'smcp' Lowercase to Small Capitals lookup 35 subtable" ucircumflex.sc
Substitution2: "'aalt' Access All Alternates lookup 0 subtable" ucircumflex.sc
EndChar

StartChar: udieresis
Encoding: 252 252 190
Width: 563
GlyphClass: 2
Flags: HW
AnchorPoint: "Anchor-2" 543 536 basechar 0
AnchorPoint: "Anchor-1" 282 737 basechar 0
AnchorPoint: "Anchor-0" 282 0 basechar 0
LayerCount: 2
Fore
SplineSet
388 619 m 0
 359 619 335 638 335 679 c 0
 335 720 359 737 388 737 c 0
 417 737 442 720 442 679 c 0
 442 638 417 619 388 619 c 0
174 619 m 0
 145 619 121 638 121 679 c 0
 121 720 145 737 174 737 c 0
 203 737 227 720 227 679 c 0
 227 638 203 619 174 619 c 0
243 -10 m 0
 126 -10 68 52 68 177 c 2
 68 536 l 1
 155 536 l 1
 155 192 l 2
 155 103 187 63 267 63 c 0
 367 63 404 135 404 259 c 2
 404 536 l 1
 491 536 l 1
 491 0 l 1
 420 0 l 1
 407 72 l 1
 402 72 l 1
 368 13 314 -10 243 -10 c 0
EndSplineSet
Substitution2: "'smcp' Lowercase to Small Capitals lookup 35 subtable" udieresis.sc
Substitution2: "'aalt' Access All Alternates lookup 0 subtable" udieresis.sc
EndChar

StartChar: yacute
Encoding: 253 253 191
Width: 563
GlyphClass: 2
Flags: HW
AnchorPoint: "Anchor-2" 543 536 basechar 0
AnchorPoint: "Anchor-1" 282 766 basechar 0
AnchorPoint: "Anchor-0" 282 -245 basechar 0
LayerCount: 2
Fore
SplineSet
236 618 m 1
 269 661 307 721 329 766 c 1
 432 766 l 1
 432 756 l 1
 407 718 337 642 292 606 c 1
 236 606 l 1
 236 618 l 1
126 -245 m 0
 101 -245 77 -241 57 -237 c 1
 57 -168 l 1
 73 -171 96 -174 116 -174 c 0
 172 -174 198 -147 223 -78 c 2
 251 -5 l 1
 40 536 l 1
 126 536 l 1
 245 222 l 2
 262 177 278 124 290 79 c 1
 293 79 l 1
 304 125 321 181 334 223 c 2
 433 536 l 1
 523 536 l 1
 310 -70 l 2
 273 -174 231 -245 126 -245 c 0
EndSplineSet
Substitution2: "'smcp' Lowercase to Small Capitals lookup 35 subtable" yacute.sc
Substitution2: "'aalt' Access All Alternates lookup 0 subtable" yacute.sc
EndChar

StartChar: thorn
Encoding: 254 254 192
Width: 563
GlyphClass: 2
Flags: HW
AnchorPoint: "Anchor-1" 302 760 basechar 0
AnchorPoint: "Anchor-0" 302 -240 basechar 0
LayerCount: 2
Fore
SplineSet
73 -240 m 1
 73 760 l 1
 159 760 l 1
 159 549 l 2
 159 518 158 492 155 463 c 1
 159 463 l 1
 189 513 237 546 312 546 c 0
 435 546 514 451 514 269 c 0
 514 86 434 -10 311 -10 c 0
 238 -10 190 27 159 69 c 1
 153 69 l 1
 157 42 159 15 159 -11 c 2
 159 -240 l 1
 73 -240 l 1
292 63 m 0
 382 63 424 133 424 271 c 0
 424 407 383 473 291 473 c 0
 198 473 159 407 159 289 c 2
 159 269 l 2
 159 141 194 63 292 63 c 0
EndSplineSet
Substitution2: "'smcp' Lowercase to Small Capitals lookup 35 subtable" thorn.sc
Substitution2: "'aalt' Access All Alternates lookup 0 subtable" thorn.sc
EndChar

StartChar: ydieresis
Encoding: 255 255 193
Width: 563
GlyphClass: 2
Flags: HW
AnchorPoint: "Anchor-2" 543 536 basechar 0
AnchorPoint: "Anchor-1" 282 737 basechar 0
AnchorPoint: "Anchor-0" 282 -245 basechar 0
LayerCount: 2
Fore
SplineSet
388 619 m 0
 359 619 335 638 335 679 c 0
 335 720 359 737 388 737 c 0
 417 737 442 720 442 679 c 0
 442 638 417 619 388 619 c 0
174 619 m 0
 145 619 121 638 121 679 c 0
 121 720 145 737 174 737 c 0
 203 737 227 720 227 679 c 0
 227 638 203 619 174 619 c 0
126 -245 m 0
 101 -245 77 -241 57 -237 c 1
 57 -168 l 1
 73 -171 96 -174 116 -174 c 0
 172 -174 198 -147 223 -78 c 2
 251 -5 l 1
 40 536 l 1
 126 536 l 1
 245 222 l 2
 262 177 278 124 290 79 c 1
 293 79 l 1
 304 125 321 181 334 223 c 2
 433 536 l 1
 523 536 l 1
 310 -70 l 2
 273 -174 231 -245 126 -245 c 0
EndSplineSet
Substitution2: "'smcp' Lowercase to Small Capitals lookup 35 subtable" ydieresis.sc
Substitution2: "'aalt' Access All Alternates lookup 0 subtable" ydieresis.sc
EndChar

StartChar: Amacron
Encoding: 256 256 194
Width: 563
GlyphClass: 2
Flags: HW
AnchorPoint: "Anchor-2" 543 714 basechar 0
AnchorPoint: "Anchor-1" 282 867 basechar 0
AnchorPoint: "Anchor-0" 282 0 basechar 0
LayerCount: 2
Fore
SplineSet
143 800 m 1
 143 867 l 1
 420 867 l 1
 420 800 l 1
 143 800 l 1
20 0 m 1
 231 716 l 1
 331 716 l 1
 543 0 l 1
 454 0 l 1
 392 222 l 1
 171 222 l 1
 109 0 l 1
 20 0 l 1
254 521 m 2
 192 300 l 1
 370 300 l 1
 308 521 l 2
 300 549 288 594 280 631 c 1
 273 594 261 548 254 521 c 2
EndSplineSet
Substitution2: "'c2sc' Capitals to Small Capitals lookup 34 subtable" amacron.sc
Substitution2: "'aalt' Access All Alternates lookup 0 subtable" amacron.sc
EndChar

StartChar: amacron
Encoding: 257 257 195
Width: 563
GlyphClass: 2
Flags: HW
AnchorPoint: "Anchor-2" 543 536 basechar 0
AnchorPoint: "Anchor-1" 282 689 basechar 0
AnchorPoint: "Anchor-0" 282 0 basechar 0
LayerCount: 2
Fore
SplineSet
152 622 m 1
 152 689 l 1
 429 689 l 1
 429 622 l 1
 152 622 l 1
232 -10 m 0
 135 -10 66 42 66 148 c 0
 66 263 146 318 295 322 c 2
 403 325 l 1
 403 351 l 2
 403 444 353 473 279 473 c 0
 225 473 174 457 131 432 c 1
 100 499 l 1
 151 525 208 546 284 546 c 0
 412 546 484 488 484 362 c 2
 484 0 l 1
 416 0 l 1
 403 75 l 1
 399 75 l 1
 358 19 306 -10 232 -10 c 0
250 63 m 0
 330 63 402 111 402 214 c 2
 402 262 l 1
 315 259 l 2
 199 255 152 218 152 151 c 0
 152 88 193 63 250 63 c 0
EndSplineSet
Substitution2: "'smcp' Lowercase to Small Capitals lookup 35 subtable" amacron.sc
Substitution2: "'aalt' Access All Alternates lookup 0 subtable" amacron.sc
EndChar

StartChar: Abreve
Encoding: 258 258 196
Width: 563
GlyphClass: 2
Flags: HW
AnchorPoint: "Anchor-2" 543 714 basechar 0
AnchorPoint: "Anchor-1" 282 918 basechar 0
AnchorPoint: "Anchor-0" 282 0 basechar 0
LayerCount: 2
Fore
SplineSet
279 786 m 0
 192 786 141 837 138 918 c 1
 194 918 l 1
 204 863 242 847 281 847 c 0
 322 847 359 863 368 918 c 1
 425 918 l 1
 423 839 370 786 279 786 c 0
20 0 m 1
 231 716 l 1
 331 716 l 1
 543 0 l 1
 454 0 l 1
 392 222 l 1
 171 222 l 1
 109 0 l 1
 20 0 l 1
254 521 m 2
 192 300 l 1
 370 300 l 1
 308 521 l 2
 300 549 288 594 280 631 c 1
 273 594 261 548 254 521 c 2
EndSplineSet
Substitution2: "'c2sc' Capitals to Small Capitals lookup 34 subtable" abreve.sc
Substitution2: "'aalt' Access All Alternates lookup 0 subtable" abreve.sc
EndChar

StartChar: abreve
Encoding: 259 259 197
Width: 563
GlyphClass: 2
Flags: HW
AnchorPoint: "Anchor-2" 543 536 basechar 0
AnchorPoint: "Anchor-1" 282 740 basechar 0
AnchorPoint: "Anchor-0" 282 0 basechar 0
LayerCount: 2
Fore
SplineSet
288 608 m 0
 201 608 150 659 147 740 c 1
 203 740 l 1
 213 685 251 669 290 669 c 0
 330 669 367 685 377 740 c 1
 433 740 l 1
 432 661 378 608 288 608 c 0
232 -10 m 0
 135 -10 66 42 66 148 c 0
 66 263 146 318 295 322 c 2
 403 325 l 1
 403 351 l 2
 403 444 353 473 279 473 c 0
 225 473 174 457 131 432 c 1
 100 499 l 1
 151 525 208 546 284 546 c 0
 412 546 484 488 484 362 c 2
 484 0 l 1
 416 0 l 1
 403 75 l 1
 399 75 l 1
 358 19 306 -10 232 -10 c 0
250 63 m 0
 330 63 402 111 402 214 c 2
 402 262 l 1
 315 259 l 2
 199 255 152 218 152 151 c 0
 152 88 193 63 250 63 c 0
EndSplineSet
Substitution2: "'smcp' Lowercase to Small Capitals lookup 35 subtable" abreve.sc
Substitution2: "'aalt' Access All Alternates lookup 0 subtable" abreve.sc
EndChar

StartChar: Aogonek
Encoding: 260 260 198
Width: 563
GlyphClass: 2
Flags: HW
AnchorPoint: "Anchor-2" 543 714 basechar 0
AnchorPoint: "Anchor-1" 282 714 basechar 0
AnchorPoint: "Anchor-0" 282 -221 basechar 0
LayerCount: 2
Fore
SplineSet
20 0 m 1
 231 716 l 1
 331 716 l 1
 543 0 l 1
 499 -43 478 -77 478 -115 c 0
 478 -149 495 -163 527 -163 c 0
 541 -163 556 -160 565 -157 c 1
 565 -213 l 1
 549 -218 532 -221 509 -221 c 0
 440 -221 408 -186 408 -132 c 0
 408 -77 442 -32 479 0 c 1
 454 0 l 1
 392 222 l 1
 171 222 l 1
 109 0 l 1
 20 0 l 1
254 521 m 2
 192 300 l 1
 370 300 l 1
 308 521 l 2
 300 549 288 594 280 631 c 1
 273 594 261 548 254 521 c 2
EndSplineSet
Substitution2: "'c2sc' Capitals to Small Capitals lookup 34 subtable" aogonek.sc
Substitution2: "'locl' Localized Forms in Latin lookup 10 subtable" Aogonek.loclNAV
Ligature2: "'ccmp' Glyph Composition/Decomposition lookup 6 subtable" A uni0328
AlternateSubs2: "'aalt' Access All Alternates lookup 1 subtable" Aogonek.loclNAV aogonek.sc
EndChar

StartChar: aogonek
Encoding: 261 261 199
Width: 563
GlyphClass: 2
Flags: HW
AnchorPoint: "Anchor-2" 543 536 basechar 0
AnchorPoint: "Anchor-1" 282 536 basechar 0
AnchorPoint: "Anchor-0" 282 -221 basechar 0
LayerCount: 2
Fore
SplineSet
232 -10 m 0
 135 -10 66 42 66 148 c 0
 66 263 146 318 295 322 c 2
 403 325 l 1
 403 351 l 2
 403 444 353 473 279 473 c 0
 225 473 174 457 131 432 c 1
 100 499 l 1
 151 525 208 546 284 546 c 0
 412 546 484 488 484 362 c 2
 484 0 l 1
 480 0 l 1
 435 -43 415 -77 415 -115 c 0
 415 -149 431 -163 464 -163 c 0
 478 -163 492 -160 502 -157 c 1
 502 -213 l 1
 485 -218 468 -221 446 -221 c 0
 377 -221 345 -186 345 -132 c 0
 345 -77 379 -32 416 0 c 1
 403 75 l 1
 399 75 l 1
 358 19 306 -10 232 -10 c 0
250 63 m 0
 330 63 402 111 402 214 c 2
 402 262 l 1
 315 259 l 2
 199 255 152 218 152 151 c 0
 152 88 193 63 250 63 c 0
EndSplineSet
Substitution2: "'smcp' Lowercase to Small Capitals lookup 35 subtable" aogonek.sc
Substitution2: "'locl' Localized Forms in Latin lookup 10 subtable" aogonek.loclNAV
Ligature2: "'ccmp' Glyph Composition/Decomposition lookup 6 subtable" a uni0328
AlternateSubs2: "'aalt' Access All Alternates lookup 1 subtable" aogonek.loclNAV aogonek.sc
EndChar

StartChar: Cacute
Encoding: 262 262 200
Width: 563
GlyphClass: 2
Flags: HW
AnchorPoint: "Anchor-2" 543 714 basechar 0
AnchorPoint: "Anchor-1" 347 944 basechar 0
AnchorPoint: "Anchor-0" 340 0 basechar 0
LayerCount: 2
Fore
SplineSet
295 796 m 1
 327 839 365 899 388 944 c 1
 490 944 l 1
 490 934 l 1
 465 896 396 820 351 784 c 1
 295 784 l 1
 295 796 l 1
344 -10 m 0
 148 -10 56 137 56 357 c 0
 56 577 160 725 350 725 c 0
 415 725 473 710 523 684 c 1
 489 612 l 1
 450 634 399 647 350 647 c 0
 216 647 146 535 146 357 c 0
 146 180 208 70 349 70 c 0
 396 70 446 80 494 99 c 1
 494 18 l 1
 444 -2 400 -10 344 -10 c 0
EndSplineSet
Substitution2: "'c2sc' Capitals to Small Capitals lookup 34 subtable" cacute.sc
Substitution2: "'aalt' Access All Alternates lookup 0 subtable" cacute.sc
EndChar

StartChar: cacute
Encoding: 263 263 201
Width: 563
GlyphClass: 2
Flags: HW
AnchorPoint: "Anchor-2" 543 536 basechar 0
AnchorPoint: "Anchor-1" 331 766 basechar 0
AnchorPoint: "Anchor-0" 310 0 basechar 0
LayerCount: 2
Fore
SplineSet
267 618 m 1
 299 661 337 721 360 766 c 1
 462 766 l 1
 462 756 l 1
 437 718 367 642 323 606 c 1
 267 606 l 1
 267 618 l 1
324 -10 m 0
 174 -10 80 71 80 264 c 0
 80 470 185 546 330 546 c 0
 389 546 437 534 481 512 c 1
 454 440 l 1
 414 462 379 470 335 470 c 0
 220 470 169 404 169 266 c 0
 169 124 225 66 332 66 c 0
 385 66 435 80 474 98 c 1
 474 20 l 1
 434 1 379 -10 324 -10 c 0
EndSplineSet
Substitution2: "'smcp' Lowercase to Small Capitals lookup 35 subtable" cacute.sc
Substitution2: "'aalt' Access All Alternates lookup 0 subtable" cacute.sc
EndChar

StartChar: Ccircumflex
Encoding: 264 264 202
Width: 563
GlyphClass: 2
Flags: HW
AnchorPoint: "Anchor-2" 543 714 basechar 0
AnchorPoint: "Anchor-1" 338 944 basechar 0
AnchorPoint: "Anchor-0" 340 0 basechar 0
LayerCount: 2
Fore
SplineSet
185 795 m 1
 222 837 273 900 297 944 c 1
 382 944 l 1
 405 899 459 835 495 795 c 1
 495 784 l 1
 440 784 l 1
 407 807 373 844 339 880 c 1
 305 844 271 806 240 784 c 1
 185 784 l 1
 185 795 l 1
344 -10 m 0
 148 -10 56 137 56 357 c 0
 56 577 160 725 350 725 c 0
 415 725 473 710 523 684 c 1
 489 612 l 1
 450 634 399 647 350 647 c 0
 216 647 146 535 146 357 c 0
 146 180 208 70 349 70 c 0
 396 70 446 80 494 99 c 1
 494 18 l 1
 444 -2 400 -10 344 -10 c 0
EndSplineSet
Substitution2: "'c2sc' Capitals to Small Capitals lookup 34 subtable" ccircumflex.sc
Substitution2: "'aalt' Access All Alternates lookup 0 subtable" ccircumflex.sc
EndChar

StartChar: ccircumflex
Encoding: 265 265 203
Width: 563
GlyphClass: 2
Flags: HW
AnchorPoint: "Anchor-2" 543 536 basechar 0
AnchorPoint: "Anchor-1" 315 764 basechar 0
AnchorPoint: "Anchor-0" 337 0 basechar 0
LayerCount: 2
Fore
SplineSet
157 617 m 1
 194 659 245 722 269 766 c 1
 354 766 l 1
 377 721 431 657 467 617 c 1
 467 606 l 1
 412 606 l 1
 379 629 345 666 311 702 c 1
 277 666 243 628 212 606 c 1
 157 606 l 1
 157 617 l 1
324 -10 m 0
 174 -10 80 71 80 264 c 0
 80 470 185 546 330 546 c 0
 389 546 437 534 481 512 c 1
 454 440 l 1
 414 462 379 470 335 470 c 0
 220 470 169 404 169 266 c 0
 169 124 225 66 332 66 c 0
 385 66 435 80 474 98 c 1
 474 20 l 1
 434 1 379 -10 324 -10 c 0
EndSplineSet
Substitution2: "'smcp' Lowercase to Small Capitals lookup 35 subtable" ccircumflex.sc
Substitution2: "'aalt' Access All Alternates lookup 0 subtable" ccircumflex.sc
EndChar

StartChar: Cdot
Encoding: 266 266 204
Width: 563
GlyphClass: 2
Flags: HW
AnchorPoint: "Anchor-2" 543 714 basechar 0
AnchorPoint: "Anchor-1" 340 910 basechar 0
AnchorPoint: "Anchor-0" 340 0 basechar 0
LayerCount: 2
Fore
SplineSet
339 803 m 0
 304 803 279 825 279 867 c 0
 279 912 305 932 339 932 c 0
 373 932 400 912 400 867 c 0
 400 824 373 803 339 803 c 0
344 -10 m 0
 148 -10 56 137 56 357 c 0
 56 577 160 725 350 725 c 0
 415 725 473 710 523 684 c 1
 489 612 l 1
 450 634 399 647 350 647 c 0
 216 647 146 535 146 357 c 0
 146 180 208 70 349 70 c 0
 396 70 446 80 494 99 c 1
 494 18 l 1
 444 -2 400 -10 344 -10 c 0
EndSplineSet
Substitution2: "'c2sc' Capitals to Small Capitals lookup 34 subtable" cdotaccent.sc
Substitution2: "'aalt' Access All Alternates lookup 0 subtable" cdotaccent.sc
EndChar

StartChar: cdot
Encoding: 267 267 205
Width: 563
GlyphClass: 2
Flags: HW
AnchorPoint: "Anchor-2" 543 536 basechar 0
AnchorPoint: "Anchor-1" 312 732 basechar 0
AnchorPoint: "Anchor-0" 326 0 basechar 0
LayerCount: 2
Fore
SplineSet
311 633 m 0
 276 633 251 654 251 696 c 0
 251 741 277 761 311 761 c 0
 345 761 372 741 372 696 c 0
 372 654 345 633 311 633 c 0
324 -10 m 0
 174 -10 80 71 80 264 c 0
 80 470 185 546 330 546 c 0
 389 546 437 534 481 512 c 1
 454 440 l 1
 414 462 379 470 335 470 c 0
 220 470 169 404 169 266 c 0
 169 124 225 66 332 66 c 0
 385 66 435 80 474 98 c 1
 474 20 l 1
 434 1 379 -10 324 -10 c 0
EndSplineSet
EndChar

StartChar: Ccaron
Encoding: 268 268 206
Width: 563
GlyphClass: 2
Flags: HW
AnchorPoint: "Anchor-2" 543 714 basechar 0
AnchorPoint: "Anchor-1" 339 944 basechar 0
AnchorPoint: "Anchor-0" 332 0 basechar 0
LayerCount: 2
Fore
SplineSet
297 784 m 1
 273 829 221 891 185 932 c 1
 185 944 l 1
 240 944 l 1
 271 921 307 887 339 851 c 1
 374 889 405 917 440 944 c 1
 495 944 l 1
 495 932 l 1
 460 893 405 829 382 784 c 1
 297 784 l 1
344 -10 m 0
 148 -10 56 137 56 357 c 0
 56 577 160 725 350 725 c 0
 415 725 473 710 523 684 c 1
 489 612 l 1
 450 634 399 647 350 647 c 0
 216 647 146 535 146 357 c 0
 146 180 208 70 349 70 c 0
 396 70 446 80 494 99 c 1
 494 18 l 1
 444 -2 400 -10 344 -10 c 0
EndSplineSet
Substitution2: "'c2sc' Capitals to Small Capitals lookup 34 subtable" ccaron.sc
Substitution2: "'aalt' Access All Alternates lookup 0 subtable" ccaron.sc
EndChar

StartChar: ccaron
Encoding: 269 269 207
Width: 563
GlyphClass: 2
Flags: HW
AnchorPoint: "Anchor-2" 543 536 basechar 0
AnchorPoint: "Anchor-1" 313 766 basechar 0
AnchorPoint: "Anchor-0" 314 0 basechar 0
LayerCount: 2
Fore
SplineSet
269 606 m 1
 245 651 193 713 157 754 c 1
 157 766 l 1
 212 766 l 1
 243 743 279 709 311 673 c 1
 346 711 377 739 412 766 c 1
 467 766 l 1
 467 754 l 1
 432 715 377 651 354 606 c 1
 269 606 l 1
324 -10 m 0
 174 -10 80 71 80 264 c 0
 80 470 185 546 330 546 c 0
 389 546 437 534 481 512 c 1
 454 440 l 1
 414 462 379 470 335 470 c 0
 220 470 169 404 169 266 c 0
 169 124 225 66 332 66 c 0
 385 66 435 80 474 98 c 1
 474 20 l 1
 434 1 379 -10 324 -10 c 0
EndSplineSet
Substitution2: "'smcp' Lowercase to Small Capitals lookup 35 subtable" ccaron.sc
Substitution2: "'aalt' Access All Alternates lookup 0 subtable" ccaron.sc
EndChar

StartChar: Dcaron
Encoding: 270 270 208
Width: 563
GlyphClass: 2
Flags: HW
AnchorPoint: "Anchor-3" 285 357 basechar 0
AnchorPoint: "Anchor-2" 563 714 basechar 0
AnchorPoint: "Anchor-1" 260 944 basechar 0
AnchorPoint: "Anchor-0" 282 0 basechar 0
LayerCount: 2
Fore
SplineSet
218 784 m 1
 194 829 142 891 106 932 c 1
 106 944 l 1
 161 944 l 1
 192 921 228 887 260 851 c 1
 295 889 326 917 361 944 c 1
 416 944 l 1
 416 932 l 1
 381 893 326 829 303 784 c 1
 218 784 l 1
61 0 m 1
 61 714 l 1
 240 714 l 2
 416 714 526 593 526 365 c 0
 526 124 416 0 222 0 c 2
 61 0 l 1
215 78 m 2
 366 78 436 175 436 363 c 0
 436 554 362 636 226 636 c 2
 148 636 l 1
 148 78 l 1
 215 78 l 2
EndSplineSet
Substitution2: "'c2sc' Capitals to Small Capitals lookup 34 subtable" dcaron.sc
Substitution2: "'aalt' Access All Alternates lookup 0 subtable" dcaron.sc
EndChar

StartChar: dcaron
Encoding: 271 271 209
Width: 563
GlyphClass: 2
Flags: HW
AnchorPoint: "Anchor-3" 242 268 basechar 0
AnchorPoint: "Anchor-2" 529 760 basechar 0
AnchorPoint: "Anchor-1" 298 760 basechar 0
AnchorPoint: "Anchor-0" 267 0 basechar 0
LayerCount: 2
Fore
SplineSet
227 -10 m 0
 113 -10 40 83 40 268 c 0
 40 449 109 546 231 546 c 0
 304 546 342 512 368 468 c 1
 374 468 l 1
 371 492 368 520 368 550 c 2
 368 760 l 1
 454 760 l 1
 454 0 l 1
 384 0 l 1
 373 72 l 1
 369 72 l 1
 341 24 296 -10 227 -10 c 0
492 611 m 1
 504 646 519 719 523 760 c 1
 610 760 l 1
 610 752 l 1
 601 715 568 642 540 600 c 1
 492 600 l 1
 492 611 l 1
247 63 m 0
 332 63 369 135 369 247 c 2
 369 267 l 2
 369 387 339 473 250 473 c 0
 170 473 129 404 129 262 c 0
 129 129 165 63 247 63 c 0
EndSplineSet
Substitution2: "'smcp' Lowercase to Small Capitals lookup 35 subtable" dcaron.sc
Substitution2: "'aalt' Access All Alternates lookup 0 subtable" dcaron.sc
EndChar

StartChar: Dcroat
Encoding: 272 272 210
Width: 563
GlyphClass: 2
Flags: HW
AnchorPoint: "Anchor-3" 295 357 basechar 0
AnchorPoint: "Anchor-2" 573 714 basechar 0
AnchorPoint: "Anchor-1" 282 714 basechar 0
AnchorPoint: "Anchor-0" 282 0 basechar 0
LayerCount: 2
Fore
SplineSet
71 0 m 1
 71 320 l 1
 0 320 l 1
 0 396 l 1
 71 396 l 1
 71 714 l 1
 250 714 l 2
 426 714 536 593 536 365 c 0
 536 124 426 0 232 0 c 2
 71 0 l 1
225 78 m 2
 376 78 446 175 446 363 c 0
 446 554 372 636 236 636 c 2
 158 636 l 1
 158 396 l 1
 290 396 l 1
 290 320 l 1
 158 320 l 1
 158 78 l 1
 225 78 l 2
EndSplineSet
Substitution2: "'c2sc' Capitals to Small Capitals lookup 34 subtable" dcroat.sc
Substitution2: "'aalt' Access All Alternates lookup 0 subtable" dcroat.sc
EndChar

StartChar: dcroat
Encoding: 273 273 211
Width: 563
GlyphClass: 2
Flags: HW
AnchorPoint: "Anchor-3" 282 268 basechar 0
AnchorPoint: "Anchor-2" 543 760 basechar 0
AnchorPoint: "Anchor-1" 282 760 basechar 0
AnchorPoint: "Anchor-0" 282 0 basechar 0
LayerCount: 2
Fore
SplineSet
255 -10 m 0
 131 -10 50 81 50 266 c 0
 50 445 124 541 261 541 c 0
 333 541 379 507 405 463 c 1
 410 463 l 1
 408 487 404 516 404 542 c 2
 404 604 l 1
 229 604 l 1
 229 670 l 1
 404 670 l 1
 404 760 l 1
 491 760 l 1
 491 670 l 1
 563 670 l 1
 563 604 l 1
 491 604 l 1
 491 0 l 1
 421 0 l 1
 409 72 l 1
 405 72 l 1
 377 25 331 -10 255 -10 c 0
275 63 m 0
 366 63 405 133 405 244 c 2
 405 264 l 2
 405 385 374 468 278 468 c 0
 187 468 139 399 139 258 c 0
 139 128 180 63 275 63 c 0
EndSplineSet
Substitution2: "'smcp' Lowercase to Small Capitals lookup 35 subtable" dcroat.sc
Substitution2: "'aalt' Access All Alternates lookup 0 subtable" dcroat.sc
EndChar

StartChar: Emacron
Encoding: 274 274 212
Width: 563
GlyphClass: 2
Flags: HW
AnchorPoint: "Anchor-2" 543 714 basechar 0
AnchorPoint: "Anchor-1" 291 867 basechar 0
AnchorPoint: "Anchor-0" 282 0 basechar 0
LayerCount: 2
Fore
SplineSet
146 800 m 1
 146 867 l 1
 424 867 l 1
 424 800 l 1
 146 800 l 1
84 0 m 1
 84 714 l 1
 488 714 l 1
 488 635 l 1
 172 635 l 1
 172 412 l 1
 469 412 l 1
 469 332 l 1
 172 332 l 1
 172 79 l 1
 488 79 l 1
 488 0 l 1
 84 0 l 1
EndSplineSet
Substitution2: "'c2sc' Capitals to Small Capitals lookup 34 subtable" emacron.sc
Substitution2: "'aalt' Access All Alternates lookup 0 subtable" emacron.sc
EndChar

StartChar: emacron
Encoding: 275 275 213
Width: 563
GlyphClass: 2
Flags: HW
AnchorPoint: "Anchor-2" 543 536 basechar 0
AnchorPoint: "Anchor-1" 287 689 basechar 0
AnchorPoint: "Anchor-0" 282 0 basechar 0
LayerCount: 2
Fore
SplineSet
147 622 m 1
 147 689 l 1
 424 689 l 1
 424 622 l 1
 147 622 l 1
318 -10 m 0
 155 -10 55 88 55 265 c 0
 55 441 148 546 292 546 c 0
 428 546 509 448 509 296 c 2
 509 250 l 1
 143 250 l 1
 147 116 214 64 322 64 c 0
 379 64 431 80 486 107 c 1
 486 28 l 1
 430 1 374 -10 318 -10 c 0
422 322 m 1
 419 414 374 473 292 473 c 0
 209 473 156 416 145 322 c 1
 422 322 l 1
EndSplineSet
Substitution2: "'smcp' Lowercase to Small Capitals lookup 35 subtable" emacron.sc
Substitution2: "'aalt' Access All Alternates lookup 0 subtable" emacron.sc
EndChar

StartChar: Ebreve
Encoding: 276 276 214
Width: 563
GlyphClass: 2
Flags: HW
AnchorPoint: "Anchor-2" 543 714 basechar 0
AnchorPoint: "Anchor-1" 284 918 basechar 0
AnchorPoint: "Anchor-0" 282 0 basechar 0
LayerCount: 2
Fore
SplineSet
283 786 m 0
 196 786 145 837 142 918 c 1
 198 918 l 1
 207 863 245 847 284 847 c 0
 325 847 362 863 372 918 c 1
 428 918 l 1
 426 839 373 786 283 786 c 0
84 0 m 1
 84 714 l 1
 488 714 l 1
 488 635 l 1
 172 635 l 1
 172 412 l 1
 469 412 l 1
 469 332 l 1
 172 332 l 1
 172 79 l 1
 488 79 l 1
 488 0 l 1
 84 0 l 1
EndSplineSet
Substitution2: "'c2sc' Capitals to Small Capitals lookup 34 subtable" ebreve.sc
Substitution2: "'aalt' Access All Alternates lookup 0 subtable" ebreve.sc
EndChar

StartChar: ebreve
Encoding: 277 277 215
Width: 563
GlyphClass: 2
Flags: HW
AnchorPoint: "Anchor-2" 543 536 basechar 0
AnchorPoint: "Anchor-1" 286 740 basechar 0
AnchorPoint: "Anchor-0" 282 0 basechar 0
LayerCount: 2
Fore
SplineSet
283 608 m 0
 196 608 145 659 142 740 c 1
 198 740 l 1
 208 685 246 669 285 669 c 0
 326 669 363 685 372 740 c 1
 429 740 l 1
 427 661 374 608 283 608 c 0
318 -10 m 0
 155 -10 55 88 55 265 c 0
 55 441 148 546 292 546 c 0
 428 546 509 448 509 296 c 2
 509 250 l 1
 143 250 l 1
 147 116 214 64 322 64 c 0
 379 64 431 80 486 107 c 1
 486 28 l 1
 430 1 374 -10 318 -10 c 0
422 322 m 1
 419 414 374 473 292 473 c 0
 209 473 156 416 145 322 c 1
 422 322 l 1
EndSplineSet
Substitution2: "'smcp' Lowercase to Small Capitals lookup 35 subtable" ebreve.sc
Substitution2: "'aalt' Access All Alternates lookup 0 subtable" ebreve.sc
EndChar

StartChar: Edotaccent
Encoding: 278 278 216
Width: 563
GlyphClass: 2
Flags: HW
AnchorPoint: "Anchor-2" 543 714 basechar 0
AnchorPoint: "Anchor-1" 285 910 basechar 0
AnchorPoint: "Anchor-0" 282 0 basechar 0
LayerCount: 2
Fore
SplineSet
284 803 m 0
 249 803 224 825 224 867 c 0
 224 912 249 932 284 932 c 0
 318 932 345 912 345 867 c 0
 345 824 318 803 284 803 c 0
84 0 m 1
 84 714 l 1
 488 714 l 1
 488 635 l 1
 172 635 l 1
 172 412 l 1
 469 412 l 1
 469 332 l 1
 172 332 l 1
 172 79 l 1
 488 79 l 1
 488 0 l 1
 84 0 l 1
EndSplineSet
Substitution2: "'c2sc' Capitals to Small Capitals lookup 34 subtable" edotaccent.sc
Substitution2: "'aalt' Access All Alternates lookup 0 subtable" edotaccent.sc
EndChar

StartChar: edotaccent
Encoding: 279 279 217
Width: 563
GlyphClass: 2
Flags: HW
AnchorPoint: "Anchor-2" 543 536 basechar 0
AnchorPoint: "Anchor-1" 287 732 basechar 0
AnchorPoint: "Anchor-0" 282 0 basechar 0
LayerCount: 2
Fore
SplineSet
285 633 m 0
 250 633 224 654 224 696 c 0
 224 741 250 761 285 761 c 0
 319 761 345 741 345 696 c 0
 345 654 319 633 285 633 c 0
318 -10 m 0
 155 -10 55 88 55 265 c 0
 55 441 148 546 292 546 c 0
 428 546 509 448 509 296 c 2
 509 250 l 1
 143 250 l 1
 147 116 214 64 322 64 c 0
 379 64 431 80 486 107 c 1
 486 28 l 1
 430 1 374 -10 318 -10 c 0
422 322 m 1
 419 414 374 473 292 473 c 0
 209 473 156 416 145 322 c 1
 422 322 l 1
EndSplineSet
Substitution2: "'smcp' Lowercase to Small Capitals lookup 35 subtable" edotaccent.sc
Substitution2: "'aalt' Access All Alternates lookup 0 subtable" edotaccent.sc
EndChar

StartChar: Eogonek
Encoding: 280 280 218
Width: 563
GlyphClass: 2
Flags: HW
AnchorPoint: "Anchor-2" 543 714 basechar 0
AnchorPoint: "Anchor-1" 291 714 basechar 0
AnchorPoint: "Anchor-0" 303 -221 basechar 0
LayerCount: 2
Fore
SplineSet
84 0 m 1
 84 714 l 1
 488 714 l 1
 488 635 l 1
 172 635 l 1
 172 412 l 1
 469 412 l 1
 469 332 l 1
 172 332 l 1
 172 79 l 1
 488 79 l 1
 488 0 l 1
 440 0 l 1
 396 -43 375 -77 375 -115 c 0
 375 -149 392 -163 425 -163 c 0
 438 -163 453 -160 462 -157 c 1
 462 -213 l 1
 446 -218 429 -221 406 -221 c 0
 337 -221 305 -186 305 -132 c 0
 305 -77 339 -32 376 0 c 1
 84 0 l 1
EndSplineSet
Substitution2: "'c2sc' Capitals to Small Capitals lookup 34 subtable" eogonek.sc
Substitution2: "'locl' Localized Forms in Latin lookup 10 subtable" Eogonek.loclNAV
Ligature2: "'ccmp' Glyph Composition/Decomposition lookup 6 subtable" E uni0328
AlternateSubs2: "'aalt' Access All Alternates lookup 1 subtable" Eogonek.loclNAV eogonek.sc
EndChar

StartChar: eogonek
Encoding: 281 281 219
Width: 563
GlyphClass: 2
Flags: HW
AnchorPoint: "Anchor-2" 543 536 basechar 0
AnchorPoint: "Anchor-1" 282 536 basechar 0
AnchorPoint: "Anchor-0" 298 -221 basechar 0
LayerCount: 2
Fore
SplineSet
318 -10 m 0
 155 -10 55 88 55 265 c 0
 55 441 148 546 292 546 c 0
 428 546 509 448 509 296 c 2
 509 250 l 1
 143 250 l 1
 147 116 214 64 322 64 c 0
 379 64 431 80 486 107 c 1
 486 28 l 1
 435 -12 397 -58 397 -109 c 0
 397 -145 415 -163 447 -163 c 0
 459 -163 474 -160 484 -157 c 1
 484 -213 l 1
 468 -218 450 -221 429 -221 c 0
 359 -221 327 -178 327 -121 c 0
 327 -73 351 -35 383 -5 c 1
 361 -8 340 -10 318 -10 c 0
422 322 m 1
 419 414 374 473 292 473 c 0
 209 473 156 416 145 322 c 1
 422 322 l 1
EndSplineSet
Substitution2: "'smcp' Lowercase to Small Capitals lookup 35 subtable" eogonek.sc
Substitution2: "'locl' Localized Forms in Latin lookup 10 subtable" eogonek.loclNAV
Ligature2: "'ccmp' Glyph Composition/Decomposition lookup 6 subtable" e uni0328
AlternateSubs2: "'aalt' Access All Alternates lookup 1 subtable" eogonek.loclNAV eogonek.sc
EndChar

StartChar: Ecaron
Encoding: 282 282 220
Width: 563
GlyphClass: 2
Flags: HW
AnchorPoint: "Anchor-2" 543 714 basechar 0
AnchorPoint: "Anchor-1" 285 944 basechar 0
AnchorPoint: "Anchor-0" 282 0 basechar 0
LayerCount: 2
Fore
SplineSet
242 784 m 1
 218 829 166 891 130 932 c 1
 130 944 l 1
 185 944 l 1
 216 921 252 887 284 851 c 1
 319 889 350 917 384 944 c 1
 440 944 l 1
 440 932 l 1
 405 893 350 829 327 784 c 1
 242 784 l 1
84 0 m 1
 84 714 l 1
 488 714 l 1
 488 635 l 1
 172 635 l 1
 172 412 l 1
 469 412 l 1
 469 332 l 1
 172 332 l 1
 172 79 l 1
 488 79 l 1
 488 0 l 1
 84 0 l 1
EndSplineSet
Substitution2: "'c2sc' Capitals to Small Capitals lookup 34 subtable" ecaron.sc
Substitution2: "'aalt' Access All Alternates lookup 0 subtable" ecaron.sc
EndChar

StartChar: ecaron
Encoding: 283 283 221
Width: 563
GlyphClass: 2
Flags: HW
AnchorPoint: "Anchor-2" 543 536 basechar 0
AnchorPoint: "Anchor-1" 285 766 basechar 0
AnchorPoint: "Anchor-0" 282 0 basechar 0
LayerCount: 2
Fore
SplineSet
242 606 m 1
 218 651 166 713 131 754 c 1
 131 766 l 1
 185 766 l 1
 216 743 253 709 284 673 c 1
 320 711 350 739 385 766 c 1
 441 766 l 1
 441 754 l 1
 406 715 350 651 327 606 c 1
 242 606 l 1
318 -10 m 0
 155 -10 55 88 55 265 c 0
 55 441 148 546 292 546 c 0
 428 546 509 448 509 296 c 2
 509 250 l 1
 143 250 l 1
 147 116 214 64 322 64 c 0
 379 64 431 80 486 107 c 1
 486 28 l 1
 430 1 374 -10 318 -10 c 0
422 322 m 1
 419 414 374 473 292 473 c 0
 209 473 156 416 145 322 c 1
 422 322 l 1
EndSplineSet
Substitution2: "'smcp' Lowercase to Small Capitals lookup 35 subtable" ecaron.sc
Substitution2: "'aalt' Access All Alternates lookup 0 subtable" ecaron.sc
EndChar

StartChar: Gcircumflex
Encoding: 284 284 222
Width: 563
GlyphClass: 2
Flags: HW
AnchorPoint: "Anchor-2" 543 714 basechar 0
AnchorPoint: "Anchor-1" 299 944 basechar 0
AnchorPoint: "Anchor-0" 282 0 basechar 0
LayerCount: 2
Fore
SplineSet
149 795 m 1
 185 837 237 900 260 944 c 1
 345 944 l 1
 368 899 423 835 459 795 c 1
 459 784 l 1
 403 784 l 1
 371 807 336 844 302 880 c 1
 268 844 234 806 203 784 c 1
 149 784 l 1
 149 795 l 1
319 -10 m 0
 129 -10 38 126 38 351 c 0
 38 580 136 725 328 725 c 0
 393 725 448 710 497 682 c 1
 465 609 l 1
 427 633 385 646 330 646 c 0
 196 646 127 540 127 353 c 0
 127 191 179 68 321 68 c 0
 360 68 390 75 416 83 c 1
 416 298 l 1
 297 298 l 1
 297 377 l 1
 501 377 l 1
 501 26 l 1
 449 5 389 -10 319 -10 c 0
EndSplineSet
Substitution2: "'c2sc' Capitals to Small Capitals lookup 34 subtable" gcircumflex.sc
Substitution2: "'aalt' Access All Alternates lookup 0 subtable" gcircumflex.sc
EndChar

StartChar: gcircumflex
Encoding: 285 285 223
Width: 563
GlyphClass: 2
Flags: HW
AnchorPoint: "Anchor-2" 543 536 basechar 0
AnchorPoint: "Anchor-1" 282 766 basechar 0
AnchorPoint: "Anchor-0" 282 -245 basechar 0
LayerCount: 2
Fore
SplineSet
127 617 m 1
 163 659 215 722 238 766 c 1
 323 766 l 1
 346 721 401 657 437 617 c 1
 437 606 l 1
 381 606 l 1
 349 629 314 666 280 702 c 1
 246 666 212 628 181 606 c 1
 127 606 l 1
 127 617 l 1
259 -245 m 0
 193 -245 132 -231 80 -208 c 1
 80 -128 l 1
 132 -158 203 -173 258 -173 c 0
 366 -173 407 -113 407 -17 c 2
 407 5 l 2
 407 21 408 41 410 65 c 1
 407 65 l 1
 372 10 324 -10 259 -10 c 0
 127 -10 50 92 50 265 c 0
 50 439 127 546 256 546 c 0
 322 546 369 523 405 468 c 1
 410 468 l 1
 421 536 l 1
 491 536 l 1
 491 -14 l 2
 491 -167 417 -245 259 -245 c 0
280 63 m 0
 364 63 411 119 411 246 c 2
 411 267 l 2
 411 412 362 473 277 473 c 0
 183 473 139 399 139 268 c 0
 139 134 185 63 280 63 c 0
EndSplineSet
Substitution2: "'smcp' Lowercase to Small Capitals lookup 35 subtable" gcircumflex.sc
Substitution2: "'aalt' Access All Alternates lookup 0 subtable" gcircumflex.sc
EndChar

StartChar: Gbreve
Encoding: 286 286 224
Width: 563
GlyphClass: 2
Flags: HW
AnchorPoint: "Anchor-2" 543 714 basechar 0
AnchorPoint: "Anchor-1" 305 917 basechar 0
AnchorPoint: "Anchor-0" 282 0 basechar 0
LayerCount: 2
Fore
SplineSet
301 786 m 0
 214 786 163 837 160 918 c 1
 216 918 l 1
 226 863 264 847 303 847 c 0
 344 847 381 863 390 918 c 1
 447 918 l 1
 445 839 392 786 301 786 c 0
319 -10 m 0
 129 -10 38 126 38 351 c 0
 38 580 136 725 328 725 c 0
 393 725 448 710 497 682 c 1
 465 609 l 1
 427 633 385 646 330 646 c 0
 196 646 127 540 127 353 c 0
 127 191 179 68 321 68 c 0
 360 68 390 75 416 83 c 1
 416 298 l 1
 297 298 l 1
 297 377 l 1
 501 377 l 1
 501 26 l 1
 449 5 389 -10 319 -10 c 0
EndSplineSet
Substitution2: "'c2sc' Capitals to Small Capitals lookup 34 subtable" gbreve.sc
Substitution2: "'aalt' Access All Alternates lookup 0 subtable" gbreve.sc
EndChar

StartChar: gbreve
Encoding: 287 287 225
Width: 563
GlyphClass: 2
Flags: HW
AnchorPoint: "Anchor-2" 543 536 basechar 0
AnchorPoint: "Anchor-1" 282 740 basechar 0
AnchorPoint: "Anchor-0" 282 -245 basechar 0
LayerCount: 2
Fore
SplineSet
279 608 m 0
 192 608 141 659 138 740 c 1
 194 740 l 1
 204 685 242 669 281 669 c 0
 322 669 359 685 368 740 c 1
 425 740 l 1
 423 661 370 608 279 608 c 0
259 -245 m 0
 193 -245 132 -231 80 -208 c 1
 80 -128 l 1
 132 -158 203 -173 258 -173 c 0
 366 -173 407 -113 407 -17 c 2
 407 5 l 2
 407 21 408 41 410 65 c 1
 407 65 l 1
 372 10 324 -10 259 -10 c 0
 127 -10 50 92 50 265 c 0
 50 439 127 546 256 546 c 0
 322 546 369 523 405 468 c 1
 410 468 l 1
 421 536 l 1
 491 536 l 1
 491 -14 l 2
 491 -167 417 -245 259 -245 c 0
280 63 m 0
 364 63 411 119 411 246 c 2
 411 267 l 2
 411 412 362 473 277 473 c 0
 183 473 139 399 139 268 c 0
 139 134 185 63 280 63 c 0
EndSplineSet
Substitution2: "'smcp' Lowercase to Small Capitals lookup 35 subtable" gbreve.sc
Substitution2: "'aalt' Access All Alternates lookup 0 subtable" gbreve.sc
EndChar

StartChar: Gdot
Encoding: 288 288 226
Width: 563
GlyphClass: 2
Flags: HW
AnchorPoint: "Anchor-2" 543 714 basechar 0
AnchorPoint: "Anchor-1" 304 910 basechar 0
AnchorPoint: "Anchor-0" 282 0 basechar 0
LayerCount: 2
Fore
SplineSet
303 803 m 0
 268 803 242 825 242 867 c 0
 242 912 268 932 303 932 c 0
 337 932 363 912 363 867 c 0
 363 824 337 803 303 803 c 0
319 -10 m 0
 129 -10 38 126 38 351 c 0
 38 580 136 725 328 725 c 0
 393 725 448 710 497 682 c 1
 465 609 l 1
 427 633 385 646 330 646 c 0
 196 646 127 540 127 353 c 0
 127 191 179 68 321 68 c 0
 360 68 390 75 416 83 c 1
 416 298 l 1
 297 298 l 1
 297 377 l 1
 501 377 l 1
 501 26 l 1
 449 5 389 -10 319 -10 c 0
EndSplineSet
Substitution2: "'c2sc' Capitals to Small Capitals lookup 34 subtable" gdotaccent.sc
Substitution2: "'aalt' Access All Alternates lookup 0 subtable" gdotaccent.sc
EndChar

StartChar: gdot
Encoding: 289 289 227
Width: 563
GlyphClass: 2
Flags: HW
AnchorPoint: "Anchor-2" 543 536 basechar 0
AnchorPoint: "Anchor-1" 282 732 basechar 0
AnchorPoint: "Anchor-0" 282 -245 basechar 0
LayerCount: 2
Fore
SplineSet
281 633 m 0
 246 633 220 654 220 696 c 0
 220 741 246 761 281 761 c 0
 315 761 341 741 341 696 c 0
 341 654 315 633 281 633 c 0
259 -245 m 0
 193 -245 132 -231 80 -208 c 1
 80 -128 l 1
 132 -158 203 -173 258 -173 c 0
 366 -173 407 -113 407 -17 c 2
 407 5 l 2
 407 21 408 41 410 65 c 1
 407 65 l 1
 372 10 324 -10 259 -10 c 0
 127 -10 50 92 50 265 c 0
 50 439 127 546 256 546 c 0
 322 546 369 523 405 468 c 1
 410 468 l 1
 421 536 l 1
 491 536 l 1
 491 -14 l 2
 491 -167 417 -245 259 -245 c 0
280 63 m 0
 364 63 411 119 411 246 c 2
 411 267 l 2
 411 412 362 473 277 473 c 0
 183 473 139 399 139 268 c 0
 139 134 185 63 280 63 c 0
EndSplineSet
EndChar

StartChar: uni0122
Encoding: 290 290 228
Width: 563
GlyphClass: 2
Flags: HW
AnchorPoint: "Anchor-2" 543 714 basechar 0
AnchorPoint: "Anchor-1" 317 714 basechar 0
AnchorPoint: "Anchor-0" 282 -221 basechar 0
LayerCount: 2
Fore
SplineSet
319 -10 m 0
 129 -10 38 126 38 351 c 0
 38 580 136 725 328 725 c 0
 393 725 448 710 497 682 c 1
 465 609 l 1
 427 633 385 646 330 646 c 0
 196 646 127 540 127 353 c 0
 127 191 179 68 321 68 c 0
 360 68 390 75 416 83 c 1
 416 298 l 1
 297 298 l 1
 297 377 l 1
 501 377 l 1
 501 26 l 1
 449 5 389 -10 319 -10 c 0
235 -209 m 1
 250 -176 270 -104 275 -61 c 1
 361 -61 l 1
 361 -68 l 1
 351 -107 317 -179 283 -221 c 1
 235 -221 l 1
 235 -209 l 1
EndSplineSet
Substitution2: "'c2sc' Capitals to Small Capitals lookup 34 subtable" uni0123.sc
Substitution2: "'aalt' Access All Alternates lookup 0 subtable" uni0123.sc
EndChar

StartChar: uni0123
Encoding: 291 291 229
Width: 563
GlyphClass: 2
Flags: HW
AnchorPoint: "Anchor-2" 543 536 basechar 0
AnchorPoint: "Anchor-1" 284 766 basechar 0
AnchorPoint: "Anchor-0" 282 -245 basechar 0
LayerCount: 2
Fore
SplineSet
217 614 m 1
 227 652 261 723 296 766 c 1
 345 766 l 1
 345 754 l 1
 329 720 309 648 304 606 c 1
 217 606 l 1
 217 614 l 1
259 -245 m 0
 193 -245 132 -231 80 -208 c 1
 80 -128 l 1
 132 -158 203 -173 258 -173 c 0
 366 -173 407 -113 407 -17 c 2
 407 5 l 2
 407 21 408 41 410 65 c 1
 407 65 l 1
 372 10 324 -10 259 -10 c 0
 127 -10 50 92 50 265 c 0
 50 439 127 546 256 546 c 0
 322 546 369 523 405 468 c 1
 410 468 l 1
 421 536 l 1
 491 536 l 1
 491 -14 l 2
 491 -167 417 -245 259 -245 c 0
280 63 m 0
 364 63 411 119 411 246 c 2
 411 267 l 2
 411 412 362 473 277 473 c 0
 183 473 139 399 139 268 c 0
 139 134 185 63 280 63 c 0
EndSplineSet
Substitution2: "'smcp' Lowercase to Small Capitals lookup 35 subtable" uni0123.sc
Substitution2: "'aalt' Access All Alternates lookup 0 subtable" uni0123.sc
EndChar

StartChar: Hcircumflex
Encoding: 292 292 230
Width: 563
GlyphClass: 2
Flags: HW
AnchorPoint: "Anchor-3" 282 373 basechar 0
AnchorPoint: "Anchor-2" 563 714 basechar 0
AnchorPoint: "Anchor-1" 282 944 basechar 0
AnchorPoint: "Anchor-0" 282 0 basechar 0
LayerCount: 2
Fore
SplineSet
127 795 m 1
 163 837 215 900 238 944 c 1
 323 944 l 1
 346 899 401 835 437 795 c 1
 437 784 l 1
 381 784 l 1
 349 807 314 844 280 880 c 1
 246 844 212 806 181 784 c 1
 127 784 l 1
 127 795 l 1
61 0 m 1
 61 714 l 1
 149 714 l 1
 149 411 l 1
 415 411 l 1
 415 714 l 1
 503 714 l 1
 503 0 l 1
 415 0 l 1
 415 332 l 1
 149 332 l 1
 149 0 l 1
 61 0 l 1
EndSplineSet
Substitution2: "'c2sc' Capitals to Small Capitals lookup 34 subtable" hcircumflex.sc
Substitution2: "'aalt' Access All Alternates lookup 0 subtable" hcircumflex.sc
EndChar

StartChar: hcircumflex
Encoding: 293 293 231
Width: 563
GlyphClass: 2
Flags: HW
AnchorPoint: "Anchor-3" 282 268 basechar 0
AnchorPoint: "Anchor-2" 543 760 basechar 0
AnchorPoint: "Anchor-1" 116 990 basechar 0
AnchorPoint: "Anchor-0" 282 0 basechar 0
LayerCount: 2
Fore
SplineSet
-39 841 m 1
 -2 883 50 946 73 990 c 1
 158 990 l 1
 181 945 235 881 272 841 c 1
 272 830 l 1
 216 830 l 1
 183 853 149 890 115 926 c 1
 81 890 47 852 16 830 c 1
 -39 830 l 1
 -39 841 l 1
73 0 m 1
 73 760 l 1
 160 760 l 1
 160 540 l 2
 160 515 157 478 156 455 c 1
 161 455 l 1
 192 515 246 546 318 546 c 0
 423 546 496 487 496 350 c 2
 496 0 l 1
 409 0 l 1
 409 332 l 2
 409 428 369 473 296 473 c 0
 210 473 160 402 160 278 c 2
 160 0 l 1
 73 0 l 1
EndSplineSet
Substitution2: "'smcp' Lowercase to Small Capitals lookup 35 subtable" hcircumflex.sc
Substitution2: "'aalt' Access All Alternates lookup 0 subtable" hcircumflex.sc
EndChar

StartChar: Hbar
Encoding: 294 294 232
Width: 563
GlyphClass: 2
Flags: HW
AnchorPoint: "Anchor-3" 282 357 basechar 0
AnchorPoint: "Anchor-1" 282 714 basechar 0
AnchorPoint: "Anchor-0" 282 0 basechar 0
LayerCount: 2
Fore
SplineSet
61 0 m 1
 61 524 l 1
 0 524 l 1
 0 595 l 1
 61 595 l 1
 61 714 l 1
 149 714 l 1
 149 595 l 1
 415 595 l 1
 415 714 l 1
 503 714 l 1
 503 595 l 1
 563 595 l 1
 563 524 l 1
 503 524 l 1
 503 0 l 1
 415 0 l 1
 415 332 l 1
 149 332 l 1
 149 0 l 1
 61 0 l 1
149 411 m 1
 415 411 l 1
 415 524 l 1
 149 524 l 1
 149 411 l 1
EndSplineSet
Substitution2: "'c2sc' Capitals to Small Capitals lookup 34 subtable" hbar.sc
Substitution2: "'aalt' Access All Alternates lookup 0 subtable" hbar.sc
EndChar

StartChar: hbar
Encoding: 295 295 233
Width: 563
GlyphClass: 2
Flags: HW
AnchorPoint: "Anchor-3" 282 268 basechar 0
AnchorPoint: "Anchor-1" 116 760 basechar 0
AnchorPoint: "Anchor-0" 282 0 basechar 0
LayerCount: 2
Fore
SplineSet
73 0 m 1
 73 604 l 1
 0 604 l 1
 0 670 l 1
 73 670 l 1
 73 760 l 1
 160 760 l 1
 160 670 l 1
 335 670 l 1
 335 604 l 1
 160 604 l 1
 160 540 l 2
 160 515 157 478 156 455 c 1
 161 455 l 1
 192 515 246 546 318 546 c 0
 423 546 496 487 496 350 c 2
 496 0 l 1
 409 0 l 1
 409 332 l 2
 409 428 369 473 296 473 c 0
 210 473 160 402 160 278 c 2
 160 0 l 1
 73 0 l 1
EndSplineSet
Substitution2: "'smcp' Lowercase to Small Capitals lookup 35 subtable" hbar.sc
Substitution2: "'aalt' Access All Alternates lookup 0 subtable" hbar.sc
EndChar

StartChar: Itilde
Encoding: 296 296 234
Width: 563
GlyphClass: 2
Flags: HW
AnchorPoint: "Anchor-2" 543 714 basechar 0
AnchorPoint: "Anchor-1" 282 912 basechar 0
AnchorPoint: "Anchor-0" 282 0 basechar 0
LayerCount: 2
Fore
SplineSet
113 785 m 1
 121 858 153 911 214 911 c 0
 267 911 312 854 352 854 c 0
 380 854 391 874 400 912 c 1
 450 912 l 1
 443 834 407 786 351 786 c 0
 298 786 253 843 213 843 c 0
 184 843 172 823 164 785 c 1
 113 785 l 1
97 0 m 1
 97 61 l 1
 237 73 l 1
 237 641 l 1
 97 653 l 1
 97 714 l 1
 466 714 l 1
 466 653 l 1
 324 641 l 1
 324 73 l 1
 466 61 l 1
 466 0 l 1
 97 0 l 1
EndSplineSet
Substitution2: "'c2sc' Capitals to Small Capitals lookup 34 subtable" itilde.sc
Substitution2: "'aalt' Access All Alternates lookup 0 subtable" itilde.sc
EndChar

StartChar: itilde
Encoding: 297 297 235
Width: 563
GlyphClass: 2
Flags: HW
AnchorPoint: "Anchor-3" 297 284 basechar 0
AnchorPoint: "Anchor-1" 282 734 basechar 0
AnchorPoint: "Anchor-0" 282 0 basechar 0
LayerCount: 2
Fore
SplineSet
113 607 m 1
 121 680 153 733 214 733 c 0
 267 733 312 676 352 676 c 0
 380 676 391 696 400 734 c 1
 450 734 l 1
 443 656 407 608 351 608 c 0
 298 608 253 665 213 665 c 0
 184 665 172 645 164 607 c 1
 113 607 l 1
78 0 m 1
 78 60 l 1
 251 73 l 1
 251 462 l 1
 90 475 l 1
 90 536 l 1
 338 536 l 1
 338 73 l 1
 498 60 l 1
 498 0 l 1
 78 0 l 1
EndSplineSet
Substitution2: "'smcp' Lowercase to Small Capitals lookup 35 subtable" itilde.sc
Substitution2: "'aalt' Access All Alternates lookup 0 subtable" itilde.sc
EndChar

StartChar: Imacron
Encoding: 298 298 236
Width: 563
GlyphClass: 2
Flags: HW
AnchorPoint: "Anchor-2" 543 714 basechar 0
AnchorPoint: "Anchor-1" 282 867 basechar 0
AnchorPoint: "Anchor-0" 282 0 basechar 0
LayerCount: 2
Fore
SplineSet
143 800 m 1
 143 867 l 1
 420 867 l 1
 420 800 l 1
 143 800 l 1
97 0 m 1
 97 61 l 1
 237 73 l 1
 237 641 l 1
 97 653 l 1
 97 714 l 1
 466 714 l 1
 466 653 l 1
 324 641 l 1
 324 73 l 1
 466 61 l 1
 466 0 l 1
 97 0 l 1
EndSplineSet
Substitution2: "'c2sc' Capitals to Small Capitals lookup 34 subtable" imacron.sc
Substitution2: "'aalt' Access All Alternates lookup 0 subtable" imacron.sc
EndChar

StartChar: imacron
Encoding: 299 299 237
Width: 563
GlyphClass: 2
Flags: HW
AnchorPoint: "Anchor-3" 297 284 basechar 0
AnchorPoint: "Anchor-1" 282 689 basechar 0
AnchorPoint: "Anchor-0" 282 0 basechar 0
LayerCount: 2
Fore
SplineSet
143 622 m 1
 143 689 l 1
 420 689 l 1
 420 622 l 1
 143 622 l 1
78 0 m 1
 78 60 l 1
 251 73 l 1
 251 462 l 1
 90 475 l 1
 90 536 l 1
 338 536 l 1
 338 73 l 1
 498 60 l 1
 498 0 l 1
 78 0 l 1
EndSplineSet
Substitution2: "'smcp' Lowercase to Small Capitals lookup 35 subtable" imacron.sc
Substitution2: "'aalt' Access All Alternates lookup 0 subtable" imacron.sc
EndChar

StartChar: Ibreve
Encoding: 300 300 238
Width: 563
GlyphClass: 2
Flags: HW
AnchorPoint: "Anchor-2" 543 714 basechar 0
AnchorPoint: "Anchor-1" 282 918 basechar 0
AnchorPoint: "Anchor-0" 282 0 basechar 0
LayerCount: 2
Fore
SplineSet
279 786 m 0
 192 786 141 837 138 918 c 1
 194 918 l 1
 204 863 242 847 281 847 c 0
 322 847 359 863 368 918 c 1
 425 918 l 1
 423 839 370 786 279 786 c 0
97 0 m 1
 97 61 l 1
 237 73 l 1
 237 641 l 1
 97 653 l 1
 97 714 l 1
 466 714 l 1
 466 653 l 1
 324 641 l 1
 324 73 l 1
 466 61 l 1
 466 0 l 1
 97 0 l 1
EndSplineSet
Substitution2: "'c2sc' Capitals to Small Capitals lookup 34 subtable" ibreve.sc
Substitution2: "'aalt' Access All Alternates lookup 0 subtable" ibreve.sc
EndChar

StartChar: ibreve
Encoding: 301 301 239
Width: 563
GlyphClass: 2
Flags: HW
AnchorPoint: "Anchor-3" 297 284 basechar 0
AnchorPoint: "Anchor-1" 282 740 basechar 0
AnchorPoint: "Anchor-0" 282 0 basechar 0
LayerCount: 2
Fore
SplineSet
279 608 m 0
 192 608 141 659 138 740 c 1
 194 740 l 1
 204 685 242 669 281 669 c 0
 322 669 359 685 368 740 c 1
 425 740 l 1
 423 661 370 608 279 608 c 0
78 0 m 1
 78 60 l 1
 251 73 l 1
 251 462 l 1
 90 475 l 1
 90 536 l 1
 338 536 l 1
 338 73 l 1
 498 60 l 1
 498 0 l 1
 78 0 l 1
EndSplineSet
Substitution2: "'smcp' Lowercase to Small Capitals lookup 35 subtable" ibreve.sc
Substitution2: "'aalt' Access All Alternates lookup 0 subtable" ibreve.sc
EndChar

StartChar: Iogonek
Encoding: 302 302 240
Width: 563
GlyphClass: 2
Flags: HW
AnchorPoint: "Anchor-2" 543 714 basechar 0
AnchorPoint: "Anchor-1" 282 714 basechar 0
AnchorPoint: "Anchor-0" 282 -221 basechar 0
LayerCount: 2
Fore
SplineSet
97 0 m 1
 97 61 l 1
 237 73 l 1
 237 641 l 1
 97 653 l 1
 97 714 l 1
 466 714 l 1
 466 653 l 1
 324 641 l 1
 324 73 l 1
 466 61 l 1
 466 0 l 1
 418 0 l 1
 374 -43 353 -77 353 -115 c 0
 353 -149 369 -163 402 -163 c 0
 416 -163 430 -160 440 -157 c 1
 440 -213 l 1
 424 -218 406 -221 384 -221 c 0
 315 -221 283 -186 283 -132 c 0
 283 -77 317 -32 354 0 c 1
 97 0 l 1
EndSplineSet
Substitution2: "'c2sc' Capitals to Small Capitals lookup 34 subtable" iogonek.sc
Substitution2: "'locl' Localized Forms in Latin lookup 10 subtable" Iogonek.loclNAV
Ligature2: "'ccmp' Glyph Composition/Decomposition lookup 6 subtable" I uni0328
AlternateSubs2: "'aalt' Access All Alternates lookup 1 subtable" Iogonek.loclNAV iogonek.sc
EndChar

StartChar: iogonek
Encoding: 303 303 241
Width: 563
GlyphClass: 2
Flags: HW
AnchorPoint: "Anchor-3" 297 284 basechar 0
AnchorPoint: "Anchor-2" 465 762 basechar 0
AnchorPoint: "Anchor-1" 298 762 basechar 0
AnchorPoint: "Anchor-0" 298 -221 basechar 0
LayerCount: 2
Fore
SplineSet
287 633 m 0
 252 633 226 654 226 697 c 0
 226 741 252 762 287 762 c 0
 321 762 348 741 348 697 c 0
 348 654 321 633 287 633 c 0
78 0 m 1
 78 60 l 1
 251 73 l 1
 251 462 l 1
 90 475 l 1
 90 536 l 1
 338 536 l 1
 338 73 l 1
 498 60 l 1
 498 0 l 1
 433 0 l 1
 389 -43 368 -77 368 -115 c 0
 368 -149 384 -163 417 -163 c 0
 431 -163 445 -160 455 -157 c 1
 455 -213 l 1
 439 -218 422 -221 399 -221 c 0
 330 -221 298 -186 298 -132 c 0
 298 -77 332 -32 369 0 c 1
 78 0 l 1
EndSplineSet
Substitution2: "'smcp' Lowercase to Small Capitals lookup 35 subtable" iogonek.sc
Substitution2: "'locl' Localized Forms in Latin lookup 10 subtable" iogonek.loclNAV
Ligature2: "'ccmp' Glyph Composition/Decomposition lookup 6 subtable" i uni0328
Substitution2: "Single Substitution lookup 5 subtable" iogonekdotless
Substitution2: "Single Substitution lookup 4 subtable" iogonekdotless
AlternateSubs2: "'aalt' Access All Alternates lookup 1 subtable" iogonekdotless iogonek.loclNAV iogonek.sc
EndChar

StartChar: Idotaccent
Encoding: 304 304 242
Width: 563
GlyphClass: 2
Flags: HW
AnchorPoint: "Anchor-2" 543 714 basechar 0
AnchorPoint: "Anchor-1" 282 910 basechar 0
AnchorPoint: "Anchor-0" 282 0 basechar 0
LayerCount: 2
Fore
SplineSet
281 803 m 0
 246 803 220 825 220 867 c 0
 220 912 246 932 281 932 c 0
 315 932 341 912 341 867 c 0
 341 824 315 803 281 803 c 0
97 0 m 1
 97 61 l 1
 237 73 l 1
 237 641 l 1
 97 653 l 1
 97 714 l 1
 466 714 l 1
 466 653 l 1
 324 641 l 1
 324 73 l 1
 466 61 l 1
 466 0 l 1
 97 0 l 1
EndSplineSet
Substitution2: "'c2sc' Capitals to Small Capitals lookup 34 subtable" i.loclTRK.sc
Substitution2: "'aalt' Access All Alternates lookup 0 subtable" i.loclTRK.sc
EndChar

StartChar: IJ
Encoding: 306 306 243
Width: 563
GlyphClass: 2
Flags: HW
AnchorPoint: "Anchor-1" 282 714 basechar 0
AnchorPoint: "Anchor-0" 282 0 basechar 0
LayerCount: 2
Fore
SplineSet
258 -10 m 0
 202 -10 131 2 100 19 c 1
 100 103 l 1
 124 91 192 72 249 72 c 0
 328 72 381 113 381 225 c 2
 381 714 l 1
 469 714 l 1
 469 213 l 2
 469 71 394 -10 258 -10 c 0
98 193 m 1
 98 714 l 1
 186 714 l 1
 186 193 l 1
 98 193 l 1
EndSplineSet
Substitution2: "'c2sc' Capitals to Small Capitals lookup 34 subtable" ij.sc
Substitution2: "'aalt' Access All Alternates lookup 0 subtable" ij.sc
EndChar

StartChar: ij
Encoding: 307 307 244
Width: 563
GlyphClass: 2
Flags: HW
AnchorPoint: "Anchor-1" 284 762 basechar 0
AnchorPoint: "Anchor-0" 291 -245 basechar 0
LayerCount: 2
Fore
SplineSet
153 633 m 0
 118 633 93 654 93 698 c 0
 93 741 118 762 153 762 c 0
 187 762 214 741 214 698 c 0
 214 653 186 633 153 633 c 0
410 633 m 0
 375 633 350 654 350 698 c 0
 350 741 375 762 410 762 c 0
 444 762 471 741 471 698 c 0
 471 653 443 633 410 633 c 0
253 -245 m 0
 211 -245 156 -238 121 -228 c 1
 121 -150 l 1
 157 -162 207 -171 247 -171 c 0
 332 -171 371 -130 371 -48 c 2
 371 536 l 1
 458 536 l 1
 458 -56 l 2
 458 -180 384 -245 253 -245 c 0
109 0 m 1
 109 536 l 1
 196 536 l 1
 196 0 l 1
 109 0 l 1
EndSplineSet
Substitution2: "'smcp' Lowercase to Small Capitals lookup 35 subtable" ij.sc
Substitution2: "'aalt' Access All Alternates lookup 0 subtable" ij.sc
EndChar

StartChar: Jcircumflex
Encoding: 308 308 245
Width: 563
GlyphClass: 2
Flags: HW
AnchorPoint: "Anchor-2" 543 714 basechar 0
AnchorPoint: "Anchor-1" 391 944 basechar 0
AnchorPoint: "Anchor-0" 302 0 basechar 0
LayerCount: 2
Fore
SplineSet
239 795 m 1
 275 837 327 900 350 944 c 1
 435 944 l 1
 458 899 513 835 549 795 c 1
 549 784 l 1
 493 784 l 1
 460 807 426 844 392 880 c 1
 358 844 324 806 293 784 c 1
 239 784 l 1
 239 795 l 1
225 -10 m 0
 174 -10 117 2 82 19 c 1
 82 101 l 1
 115 86 169 70 218 70 c 0
 301 70 350 118 350 225 c 2
 350 714 l 1
 438 714 l 1
 438 212 l 2
 438 75 365 -10 225 -10 c 0
EndSplineSet
Substitution2: "'c2sc' Capitals to Small Capitals lookup 34 subtable" jcircumflex.sc
Substitution2: "'aalt' Access All Alternates lookup 0 subtable" jcircumflex.sc
EndChar

StartChar: jcircumflex
Encoding: 309 309 246
Width: 563
GlyphClass: 2
Flags: HW
AnchorPoint: "Anchor-1" 319 766 basechar 0
AnchorPoint: "Anchor-0" 282 -245 basechar 0
LayerCount: 2
Fore
SplineSet
167 617 m 1
 203 659 255 722 278 766 c 1
 363 766 l 1
 386 721 441 657 477 617 c 1
 477 606 l 1
 421 606 l 1
 389 629 354 666 320 702 c 1
 286 666 252 628 221 606 c 1
 167 606 l 1
 167 617 l 1
180 -245 m 0
 139 -245 88 -238 55 -228 c 1
 55 -150 l 1
 88 -162 135 -171 172 -171 c 0
 252 -171 288 -130 288 -48 c 2
 288 462 l 1
 114 475 l 1
 114 536 l 1
 375 536 l 1
 375 -56 l 2
 375 -180 305 -245 180 -245 c 0
EndSplineSet
Substitution2: "'smcp' Lowercase to Small Capitals lookup 35 subtable" jcircumflex.sc
Substitution2: "'aalt' Access All Alternates lookup 0 subtable" jcircumflex.sc
EndChar

StartChar: uni0136
Encoding: 310 310 247
Width: 563
GlyphClass: 2
Flags: HW
AnchorPoint: "Anchor-2" 543 714 basechar 0
AnchorPoint: "Anchor-1" 282 714 basechar 0
AnchorPoint: "Anchor-0" 282 -221 basechar 0
LayerCount: 2
Fore
SplineSet
61 0 m 1
 61 714 l 1
 148 714 l 1
 148 339 l 1
 171 373 195 410 225 453 c 2
 413 714 l 1
 513 714 l 1
 284 392 l 1
 523 0 l 1
 423 0 l 1
 224 331 l 1
 148 247 l 1
 148 0 l 1
 61 0 l 1
211 -209 m 1
 225 -176 245 -104 250 -61 c 1
 337 -61 l 1
 337 -68 l 1
 327 -107 293 -179 259 -221 c 1
 211 -221 l 1
 211 -209 l 1
EndSplineSet
Substitution2: "'c2sc' Capitals to Small Capitals lookup 34 subtable" uni0137.sc
Substitution2: "'aalt' Access All Alternates lookup 0 subtable" uni0137.sc
EndChar

StartChar: uni0137
Encoding: 311 311 248
Width: 563
GlyphClass: 2
Flags: HW
AnchorPoint: "Anchor-2" 474 849 basechar 0
AnchorPoint: "Anchor-1" 282 760 basechar 0
AnchorPoint: "Anchor-0" 282 -221 basechar 0
LayerCount: 2
Fore
SplineSet
90 0 m 1
 90 760 l 1
 177 760 l 1
 177 400 l 2
 177 356 174 303 171 255 c 1
 172 255 l 1
 194 285 214 308 238 335 c 2
 416 536 l 1
 523 536 l 1
 312 305 l 1
 536 0 l 1
 434 0 l 1
 253 248 l 1
 177 179 l 1
 177 0 l 1
 90 0 l 1
234 -209 m 1
 249 -176 269 -104 274 -61 c 1
 360 -61 l 1
 360 -68 l 1
 350 -107 317 -179 282 -221 c 1
 234 -221 l 1
 234 -209 l 1
EndSplineSet
Substitution2: "'smcp' Lowercase to Small Capitals lookup 35 subtable" uni0137.sc
Substitution2: "'aalt' Access All Alternates lookup 0 subtable" uni0137.sc
EndChar

StartChar: kgreenlandic
Encoding: 312 312 249
Width: 563
GlyphClass: 2
Flags: HW
AnchorPoint: "Anchor-1" 282 536 basechar 0
AnchorPoint: "Anchor-0" 282 0 basechar 0
LayerCount: 2
Fore
SplineSet
90 0 m 1
 90 536 l 1
 177 536 l 1
 177 400 l 2
 177 356 174 303 171 255 c 1
 172 255 l 1
 194 285 213 308 238 335 c 2
 416 536 l 1
 523 536 l 1
 312 305 l 1
 536 0 l 1
 434 0 l 1
 253 248 l 1
 177 179 l 1
 177 0 l 1
 90 0 l 1
EndSplineSet
EndChar

StartChar: Lacute
Encoding: 313 313 250
Width: 563
GlyphClass: 2
Flags: HW
AnchorPoint: "Anchor-3" 282 357 basechar 0
AnchorPoint: "Anchor-2" 416 714 basechar 0
AnchorPoint: "Anchor-1" 154 944 basechar 0
AnchorPoint: "Anchor-0" 282 0 basechar 0
LayerCount: 2
Fore
SplineSet
100 796 m 1
 133 839 171 899 193 944 c 1
 296 944 l 1
 296 934 l 1
 271 896 201 820 156 784 c 1
 100 784 l 1
 100 796 l 1
100 0 m 1
 100 714 l 1
 188 714 l 1
 188 82 l 1
 488 82 l 1
 488 0 l 1
 100 0 l 1
EndSplineSet
Substitution2: "'c2sc' Capitals to Small Capitals lookup 34 subtable" lacute.sc
Substitution2: "'aalt' Access All Alternates lookup 0 subtable" lacute.sc
EndChar

StartChar: lacute
Encoding: 314 314 251
Width: 563
GlyphClass: 2
Flags: HW
AnchorPoint: "Anchor-3" 296 381 basechar 0
AnchorPoint: "Anchor-2" 463 760 basechar 0
AnchorPoint: "Anchor-1" 282 990 basechar 0
AnchorPoint: "Anchor-0" 282 0 basechar 0
LayerCount: 2
Fore
SplineSet
236 842 m 1
 269 885 307 945 329 990 c 1
 432 990 l 1
 432 980 l 1
 407 942 337 866 292 830 c 1
 236 830 l 1
 236 842 l 1
78 0 m 1
 78 60 l 1
 252 73 l 1
 252 687 l 1
 83 699 l 1
 83 760 l 1
 339 760 l 1
 339 73 l 1
 498 60 l 1
 498 0 l 1
 78 0 l 1
EndSplineSet
Substitution2: "'smcp' Lowercase to Small Capitals lookup 35 subtable" lacute.sc
Substitution2: "'aalt' Access All Alternates lookup 0 subtable" lacute.sc
EndChar

StartChar: uni013B
Encoding: 315 315 252
Width: 563
GlyphClass: 2
Flags: HW
AnchorPoint: "Anchor-3" 282 357 basechar 0
AnchorPoint: "Anchor-2" 416 714 basechar 0
AnchorPoint: "Anchor-1" 143 714 basechar 0
AnchorPoint: "Anchor-0" 282 -221 basechar 0
LayerCount: 2
Fore
SplineSet
100 0 m 1
 100 714 l 1
 188 714 l 1
 188 82 l 1
 488 82 l 1
 488 0 l 1
 100 0 l 1
228 -209 m 1
 242 -176 262 -104 267 -61 c 1
 353 -61 l 1
 353 -68 l 1
 343 -107 310 -179 275 -221 c 1
 228 -221 l 1
 228 -209 l 1
EndSplineSet
Substitution2: "'c2sc' Capitals to Small Capitals lookup 34 subtable" uni013C.sc
Substitution2: "'locl' Localized Forms in Latin lookup 13 subtable" uni013B.loclMAH
AlternateSubs2: "'aalt' Access All Alternates lookup 1 subtable" uni013B.loclMAH uni013C.sc
EndChar

StartChar: uni013C
Encoding: 316 316 253
Width: 563
GlyphClass: 2
Flags: HW
AnchorPoint: "Anchor-3" 296 381 basechar 0
AnchorPoint: "Anchor-2" 463 760 basechar 0
AnchorPoint: "Anchor-1" 282 760 basechar 0
AnchorPoint: "Anchor-0" 282 -221 basechar 0
LayerCount: 2
Fore
SplineSet
78 0 m 1
 78 60 l 1
 252 73 l 1
 252 687 l 1
 83 699 l 1
 83 760 l 1
 339 760 l 1
 339 73 l 1
 498 60 l 1
 498 0 l 1
 78 0 l 1
216 -209 m 1
 230 -176 250 -104 255 -61 c 1
 342 -61 l 1
 342 -68 l 1
 332 -107 298 -179 264 -221 c 1
 216 -221 l 1
 216 -209 l 1
EndSplineSet
Substitution2: "'smcp' Lowercase to Small Capitals lookup 35 subtable" uni013C.sc
Substitution2: "'locl' Localized Forms in Latin lookup 13 subtable" uni013C.loclMAH
AlternateSubs2: "'aalt' Access All Alternates lookup 1 subtable" uni013C.loclMAH uni013C.sc
EndChar

StartChar: Lcaron
Encoding: 317 317 254
Width: 563
GlyphClass: 2
Flags: HW
AnchorPoint: "Anchor-3" 282 357 basechar 0
AnchorPoint: "Anchor-2" 416 714 basechar 0
AnchorPoint: "Anchor-1" 143 714 basechar 0
AnchorPoint: "Anchor-0" 282 0 basechar 0
LayerCount: 2
Fore
SplineSet
367 565 m 1
 378 600 393 673 398 714 c 1
 484 714 l 1
 484 706 l 1
 475 669 443 596 414 554 c 1
 367 554 l 1
 367 565 l 1
100 0 m 1
 100 714 l 1
 188 714 l 1
 188 82 l 1
 488 82 l 1
 488 0 l 1
 100 0 l 1
EndSplineSet
Substitution2: "'c2sc' Capitals to Small Capitals lookup 34 subtable" lcaron.sc
Substitution2: "'aalt' Access All Alternates lookup 0 subtable" lcaron.sc
EndChar

StartChar: lcaron
Encoding: 318 318 255
Width: 563
GlyphClass: 2
Flags: HW
AnchorPoint: "Anchor-3" 296 381 basechar 0
AnchorPoint: "Anchor-2" 463 760 basechar 0
AnchorPoint: "Anchor-1" 282 760 basechar 0
AnchorPoint: "Anchor-0" 282 0 basechar 0
LayerCount: 2
Fore
SplineSet
411 611 m 1
 423 646 438 719 442 760 c 1
 529 760 l 1
 529 752 l 1
 520 715 487 642 458 600 c 1
 411 600 l 1
 411 611 l 1
78 0 m 1
 78 60 l 1
 252 73 l 1
 252 687 l 1
 83 699 l 1
 83 760 l 1
 339 760 l 1
 339 73 l 1
 498 60 l 1
 498 0 l 1
 78 0 l 1
EndSplineSet
Substitution2: "'smcp' Lowercase to Small Capitals lookup 35 subtable" lcaron.sc
Substitution2: "'aalt' Access All Alternates lookup 0 subtable" lcaron.sc
EndChar

StartChar: Ldot
Encoding: 319 319 256
Width: 563
GlyphClass: 2
Flags: HW
AnchorPoint: "Anchor-3" 282 357 basechar 0
AnchorPoint: "Anchor-2" 416 714 basechar 0
AnchorPoint: "Anchor-1" 142 714 basechar 0
AnchorPoint: "Anchor-0" 282 0 basechar 0
LayerCount: 2
Fore
SplineSet
100 0 m 1
 100 714 l 1
 188 714 l 1
 188 82 l 1
 488 82 l 1
 488 0 l 1
 100 0 l 1
419 307 m 0
 385 307 359 327 359 374 c 0
 359 422 385 441 419 441 c 0
 453 441 480 423 480 374 c 0
 480 327 453 307 419 307 c 0
EndSplineSet
Substitution2: "'c2sc' Capitals to Small Capitals lookup 34 subtable" ldot.sc
Ligature2: "Ligature Substitution lookup 16 subtable" L periodcentered
Substitution2: "'aalt' Access All Alternates lookup 0 subtable" ldot.sc
EndChar

StartChar: ldot
Encoding: 320 320 257
Width: 563
GlyphClass: 2
Flags: HW
AnchorPoint: "Anchor-3" 296 381 basechar 0
AnchorPoint: "Anchor-2" 463 760 basechar 0
AnchorPoint: "Anchor-1" 282 760 basechar 0
AnchorPoint: "Anchor-0" 282 0 basechar 0
LayerCount: 2
Fore
SplineSet
78 0 m 1
 78 60 l 1
 252 73 l 1
 252 687 l 1
 83 699 l 1
 83 760 l 1
 339 760 l 1
 339 73 l 1
 498 60 l 1
 498 0 l 1
 78 0 l 1
563 339 m 0
 529 339 503 360 503 407 c 0
 503 455 529 474 563 474 c 0
 597 474 624 456 624 407 c 0
 624 360 597 339 563 339 c 0
EndSplineSet
Substitution2: "'smcp' Lowercase to Small Capitals lookup 35 subtable" ldot.sc
Ligature2: "Ligature Substitution lookup 15 subtable" l periodcentered
Substitution2: "'aalt' Access All Alternates lookup 0 subtable" ldot.sc
EndChar

StartChar: Lslash
Encoding: 321 321 258
Width: 563
GlyphClass: 2
Flags: HW
AnchorPoint: "Anchor-3" 318 357 basechar 0
AnchorPoint: "Anchor-2" 452 714 basechar 0
AnchorPoint: "Anchor-1" 183 714 basechar 0
AnchorPoint: "Anchor-0" 338 0 basechar 0
LayerCount: 2
Fore
SplineSet
137 0 m 1
 137 263 l 1
 78 228 l 1
 43 288 l 1
 137 345 l 1
 137 714 l 1
 224 714 l 1
 224 398 l 1
 348 472 l 1
 384 411 l 1
 224 316 l 1
 224 82 l 1
 524 82 l 1
 524 0 l 1
 137 0 l 1
EndSplineSet
Substitution2: "'c2sc' Capitals to Small Capitals lookup 34 subtable" lslash.sc
Substitution2: "'aalt' Access All Alternates lookup 0 subtable" lslash.sc
EndChar

StartChar: lslash
Encoding: 322 322 259
Width: 563
GlyphClass: 2
Flags: HW
AnchorPoint: "Anchor-3" 296 381 basechar 0
AnchorPoint: "Anchor-2" 463 760 basechar 0
AnchorPoint: "Anchor-1" 282 760 basechar 0
AnchorPoint: "Anchor-0" 282 0 basechar 0
LayerCount: 2
Fore
SplineSet
78 0 m 1
 78 60 l 1
 252 73 l 1
 252 296 l 1
 164 239 l 1
 127 297 l 1
 252 377 l 1
 252 687 l 1
 83 699 l 1
 83 760 l 1
 339 760 l 1
 339 434 l 1
 423 488 l 1
 461 430 l 1
 339 352 l 1
 339 73 l 1
 498 60 l 1
 498 0 l 1
 78 0 l 1
EndSplineSet
Substitution2: "'smcp' Lowercase to Small Capitals lookup 35 subtable" lslash.sc
Substitution2: "'aalt' Access All Alternates lookup 0 subtable" lslash.sc
EndChar

StartChar: Nacute
Encoding: 323 323 260
Width: 563
GlyphClass: 2
Flags: HW
AnchorPoint: "Anchor-2" 563 714 basechar 0
AnchorPoint: "Anchor-1" 282 944 basechar 0
AnchorPoint: "Anchor-0" 282 0 basechar 0
LayerCount: 2
Fore
SplineSet
241 796 m 1
 274 839 312 899 334 944 c 1
 437 944 l 1
 437 934 l 1
 412 896 342 820 297 784 c 1
 241 784 l 1
 241 796 l 1
61 0 m 1
 61 714 l 1
 179 714 l 1
 425 107 l 1
 429 107 l 1
 424 165 419 231 419 307 c 2
 419 714 l 1
 503 714 l 1
 503 0 l 1
 393 0 l 1
 137 625 l 1
 132 625 l 1
 138 555 144 486 144 412 c 2
 144 0 l 1
 61 0 l 1
EndSplineSet
Substitution2: "'c2sc' Capitals to Small Capitals lookup 34 subtable" nacute.sc
Substitution2: "'aalt' Access All Alternates lookup 0 subtable" nacute.sc
EndChar

StartChar: nacute
Encoding: 324 324 261
Width: 563
GlyphClass: 2
Flags: HW
AnchorPoint: "Anchor-2" 543 536 basechar 0
AnchorPoint: "Anchor-1" 282 766 basechar 0
AnchorPoint: "Anchor-0" 282 0 basechar 0
LayerCount: 2
Fore
SplineSet
248 618 m 1
 280 661 318 721 341 766 c 1
 443 766 l 1
 443 756 l 1
 418 718 349 642 304 606 c 1
 248 606 l 1
 248 618 l 1
73 0 m 1
 73 536 l 1
 143 536 l 1
 155 460 l 1
 160 460 l 1
 190 519 250 546 323 546 c 0
 429 546 496 487 496 355 c 2
 496 0 l 1
 409 0 l 1
 409 343 l 2
 409 431 376 473 301 473 c 0
 202 473 160 401 160 276 c 2
 160 0 l 1
 73 0 l 1
EndSplineSet
Substitution2: "'smcp' Lowercase to Small Capitals lookup 35 subtable" nacute.sc
Substitution2: "'aalt' Access All Alternates lookup 0 subtable" nacute.sc
EndChar

StartChar: uni0145
Encoding: 325 325 262
Width: 563
GlyphClass: 2
Flags: HW
AnchorPoint: "Anchor-2" 563 714 basechar 0
AnchorPoint: "Anchor-1" 301 714 basechar 0
AnchorPoint: "Anchor-0" 272 -221 basechar 0
LayerCount: 2
Fore
SplineSet
61 0 m 1
 61 714 l 1
 179 714 l 1
 425 107 l 1
 429 107 l 1
 424 165 419 231 419 307 c 2
 419 714 l 1
 503 714 l 1
 503 0 l 1
 393 0 l 1
 137 625 l 1
 132 625 l 1
 138 555 144 486 144 412 c 2
 144 0 l 1
 61 0 l 1
201 -209 m 1
 216 -176 236 -104 241 -61 c 1
 327 -61 l 1
 327 -68 l 1
 317 -107 283 -179 249 -221 c 1
 201 -221 l 1
 201 -209 l 1
EndSplineSet
Substitution2: "'c2sc' Capitals to Small Capitals lookup 34 subtable" uni0146.sc
Substitution2: "'locl' Localized Forms in Latin lookup 13 subtable" uni0145.loclMAH
AlternateSubs2: "'aalt' Access All Alternates lookup 1 subtable" uni0145.loclMAH uni0146.sc
EndChar

StartChar: uni0146
Encoding: 326 326 263
Width: 563
GlyphClass: 2
Flags: HW
AnchorPoint: "Anchor-2" 543 536 basechar 0
AnchorPoint: "Anchor-1" 282 536 basechar 0
AnchorPoint: "Anchor-0" 282 -221 basechar 0
LayerCount: 2
Fore
SplineSet
73 0 m 1
 73 536 l 1
 143 536 l 1
 155 460 l 1
 160 460 l 1
 190 519 250 546 323 546 c 0
 429 546 496 487 496 355 c 2
 496 0 l 1
 409 0 l 1
 409 343 l 2
 409 431 376 473 301 473 c 0
 202 473 160 401 160 276 c 2
 160 0 l 1
 73 0 l 1
207 -209 m 1
 221 -176 241 -104 246 -61 c 1
 332 -61 l 1
 332 -68 l 1
 322 -107 289 -179 254 -221 c 1
 207 -221 l 1
 207 -209 l 1
EndSplineSet
Substitution2: "'smcp' Lowercase to Small Capitals lookup 35 subtable" uni0146.sc
Substitution2: "'locl' Localized Forms in Latin lookup 13 subtable" uni0146.loclMAH
AlternateSubs2: "'aalt' Access All Alternates lookup 1 subtable" uni0146.loclMAH uni0146.sc
EndChar

StartChar: Ncaron
Encoding: 327 327 264
Width: 563
GlyphClass: 2
Flags: HW
AnchorPoint: "Anchor-2" 563 714 basechar 0
AnchorPoint: "Anchor-1" 282 944 basechar 0
AnchorPoint: "Anchor-0" 282 0 basechar 0
LayerCount: 2
Fore
SplineSet
243 784 m 1
 219 829 167 891 132 932 c 1
 132 944 l 1
 186 944 l 1
 217 921 254 887 285 851 c 1
 321 889 351 917 386 944 c 1
 442 944 l 1
 442 932 l 1
 407 893 351 829 328 784 c 1
 243 784 l 1
61 0 m 1
 61 714 l 1
 179 714 l 1
 425 107 l 1
 429 107 l 1
 424 165 419 231 419 307 c 2
 419 714 l 1
 503 714 l 1
 503 0 l 1
 393 0 l 1
 137 625 l 1
 132 625 l 1
 138 555 144 486 144 412 c 2
 144 0 l 1
 61 0 l 1
EndSplineSet
Substitution2: "'c2sc' Capitals to Small Capitals lookup 34 subtable" ncaron.sc
Substitution2: "'aalt' Access All Alternates lookup 0 subtable" ncaron.sc
EndChar

StartChar: ncaron
Encoding: 328 328 265
Width: 563
GlyphClass: 2
Flags: HW
AnchorPoint: "Anchor-2" 543 536 basechar 0
AnchorPoint: "Anchor-1" 282 766 basechar 0
AnchorPoint: "Anchor-0" 282 0 basechar 0
LayerCount: 2
Fore
SplineSet
250 606 m 1
 226 651 174 713 138 754 c 1
 138 766 l 1
 193 766 l 1
 224 743 260 709 292 673 c 1
 327 711 358 739 393 766 c 1
 448 766 l 1
 448 754 l 1
 413 715 358 651 335 606 c 1
 250 606 l 1
73 0 m 1
 73 536 l 1
 143 536 l 1
 155 460 l 1
 160 460 l 1
 190 519 250 546 323 546 c 0
 429 546 496 487 496 355 c 2
 496 0 l 1
 409 0 l 1
 409 343 l 2
 409 431 376 473 301 473 c 0
 202 473 160 401 160 276 c 2
 160 0 l 1
 73 0 l 1
EndSplineSet
Substitution2: "'smcp' Lowercase to Small Capitals lookup 35 subtable" ncaron.sc
Substitution2: "'aalt' Access All Alternates lookup 0 subtable" ncaron.sc
EndChar

StartChar: napostrophe
Encoding: 329 329 266
Width: 563
GlyphClass: 2
Flags: HW
AnchorPoint: "Anchor-1" 296 536 basechar 0
AnchorPoint: "Anchor-0" 294 0 basechar 0
LayerCount: 2
Fore
SplineSet
-55 469 m 1
 -36 548 -16 645 -8 714 c 1
 89 714 l 1
 96 703 l 1
 77 628 46 542 13 469 c 1
 -55 469 l 1
86 0 m 1
 86 536 l 1
 156 536 l 1
 169 460 l 1
 174 460 l 1
 203 519 258 546 329 546 c 0
 430 546 496 487 496 355 c 2
 496 0 l 1
 409 0 l 1
 409 343 l 2
 409 431 369 473 302 473 c 0
 211 473 173 401 173 276 c 2
 173 0 l 1
 86 0 l 1
EndSplineSet
EndChar

StartChar: Eng
Encoding: 330 330 267
Width: 563
GlyphClass: 2
Flags: HW
AnchorPoint: "Anchor-2" 563 714 basechar 0
AnchorPoint: "Anchor-1" 287 714 basechar 0
AnchorPoint: "Anchor-0" 287 -191 basechar 0
LayerCount: 2
Fore
SplineSet
61 0 m 1
 61 714 l 1
 179 714 l 1
 425 107 l 1
 429 107 l 1
 424 165 419 231 419 307 c 2
 419 714 l 1
 503 714 l 1
 503 0 l 1
 502 0 l 1
 500 -130 434 -191 324 -191 c 0
 293 -191 269 -186 251 -178 c 1
 251 -108 l 1
 271 -114 297 -118 318 -118 c 0
 374 -118 424 -89 424 0 c 1
 393 0 l 1
 137 625 l 1
 132 625 l 1
 138 555 144 486 144 412 c 2
 144 0 l 1
 61 0 l 1
EndSplineSet
Substitution2: "'c2sc' Capitals to Small Capitals lookup 34 subtable" eng.sc
AlternateSubs2: "'aalt' Access All Alternates lookup 1 subtable" Eng.alt1 Eng.alt2 Eng.alt3 eng.sc
EndChar

StartChar: eng
Encoding: 331 331 268
Width: 563
GlyphClass: 2
Flags: HW
AnchorPoint: "Anchor-2" 543 536 basechar 0
AnchorPoint: "Anchor-1" 293 536 basechar 0
AnchorPoint: "Anchor-0" 291 -240 basechar 0
LayerCount: 2
Fore
SplineSet
73 0 m 1
 73 536 l 1
 143 536 l 1
 155 460 l 1
 160 460 l 1
 190 519 250 546 323 546 c 0
 429 546 496 487 496 355 c 2
 496 -80 l 2
 496 -180 453 -240 358 -240 c 0
 329 -240 308 -235 291 -229 c 1
 291 -157 l 1
 308 -163 325 -167 347 -167 c 0
 383 -167 409 -147 409 -83 c 2
 409 343 l 2
 409 431 376 473 301 473 c 0
 202 473 160 401 160 276 c 2
 160 0 l 1
 73 0 l 1
EndSplineSet
Substitution2: "'smcp' Lowercase to Small Capitals lookup 35 subtable" eng.sc
Substitution2: "'aalt' Access All Alternates lookup 0 subtable" eng.sc
EndChar

StartChar: Omacron
Encoding: 332 332 269
Width: 563
GlyphClass: 2
Flags: HW
AnchorPoint: "Anchor-3" 282 357 basechar 0
AnchorPoint: "Anchor-2" 563 714 basechar 0
AnchorPoint: "Anchor-1" 282 867 basechar 0
AnchorPoint: "Anchor-0" 282 0 basechar 0
LayerCount: 2
Fore
SplineSet
143 800 m 1
 143 867 l 1
 420 867 l 1
 420 800 l 1
 143 800 l 1
281 -10 m 0
 106 -10 38 145 38 358 c 0
 38 584 113 726 282 726 c 0
 455 726 526 573 526 359 c 0
 526 143 456 -10 281 -10 c 0
283 68 m 0
 393 68 436 173 436 358 c 0
 436 543 392 648 283 648 c 0
 170 648 127 541 127 358 c 0
 127 174 173 68 283 68 c 0
EndSplineSet
Substitution2: "'c2sc' Capitals to Small Capitals lookup 34 subtable" omacron.sc
Substitution2: "'aalt' Access All Alternates lookup 0 subtable" omacron.sc
EndChar

StartChar: omacron
Encoding: 333 333 270
Width: 563
GlyphClass: 2
Flags: HW
AnchorPoint: "Anchor-3" 282 268 basechar 0
AnchorPoint: "Anchor-2" 543 536 basechar 0
AnchorPoint: "Anchor-1" 282 689 basechar 0
AnchorPoint: "Anchor-0" 282 0 basechar 0
LayerCount: 2
Fore
SplineSet
143 622 m 1
 143 689 l 1
 420 689 l 1
 420 622 l 1
 143 622 l 1
283 -10 m 0
 146 -10 50 85 50 270 c 0
 50 452 143 546 280 546 c 0
 416 546 514 452 514 267 c 0
 514 85 419 -10 283 -10 c 0
282 62 m 0
 377 62 425 138 425 269 c 0
 425 400 376 474 281 474 c 0
 186 474 137 400 137 269 c 0
 137 138 186 62 282 62 c 0
EndSplineSet
Substitution2: "'smcp' Lowercase to Small Capitals lookup 35 subtable" omacron.sc
Substitution2: "'aalt' Access All Alternates lookup 0 subtable" omacron.sc
EndChar

StartChar: Obreve
Encoding: 334 334 271
Width: 563
GlyphClass: 2
Flags: HW
AnchorPoint: "Anchor-3" 282 357 basechar 0
AnchorPoint: "Anchor-2" 563 714 basechar 0
AnchorPoint: "Anchor-1" 282 918 basechar 0
AnchorPoint: "Anchor-0" 282 0 basechar 0
LayerCount: 2
Fore
SplineSet
279 786 m 0
 192 786 141 837 138 918 c 1
 194 918 l 1
 204 863 242 847 281 847 c 0
 322 847 359 863 368 918 c 1
 425 918 l 1
 423 839 370 786 279 786 c 0
281 -10 m 0
 106 -10 38 145 38 358 c 0
 38 584 113 726 282 726 c 0
 455 726 526 573 526 359 c 0
 526 143 456 -10 281 -10 c 0
283 68 m 0
 393 68 436 173 436 358 c 0
 436 543 392 648 283 648 c 0
 170 648 127 541 127 358 c 0
 127 174 173 68 283 68 c 0
EndSplineSet
Substitution2: "'c2sc' Capitals to Small Capitals lookup 34 subtable" obreve.sc
Substitution2: "'aalt' Access All Alternates lookup 0 subtable" obreve.sc
EndChar

StartChar: obreve
Encoding: 335 335 272
Width: 563
GlyphClass: 2
Flags: HW
AnchorPoint: "Anchor-3" 282 268 basechar 0
AnchorPoint: "Anchor-2" 543 536 basechar 0
AnchorPoint: "Anchor-1" 282 740 basechar 0
AnchorPoint: "Anchor-0" 282 0 basechar 0
LayerCount: 2
Fore
SplineSet
279 608 m 0
 192 608 141 659 138 740 c 1
 194 740 l 1
 204 685 242 669 281 669 c 0
 322 669 359 685 368 740 c 1
 425 740 l 1
 423 661 370 608 279 608 c 0
283 -10 m 0
 146 -10 50 85 50 270 c 0
 50 452 143 546 280 546 c 0
 416 546 514 452 514 267 c 0
 514 85 419 -10 283 -10 c 0
282 62 m 0
 377 62 425 138 425 269 c 0
 425 400 376 474 281 474 c 0
 186 474 137 400 137 269 c 0
 137 138 186 62 282 62 c 0
EndSplineSet
Substitution2: "'smcp' Lowercase to Small Capitals lookup 35 subtable" obreve.sc
Substitution2: "'aalt' Access All Alternates lookup 0 subtable" obreve.sc
EndChar

StartChar: Ohungarumlaut
Encoding: 336 336 273
Width: 563
GlyphClass: 2
Flags: HW
AnchorPoint: "Anchor-3" 282 357 basechar 0
AnchorPoint: "Anchor-2" 563 714 basechar 0
AnchorPoint: "Anchor-1" 282 944 basechar 0
AnchorPoint: "Anchor-0" 282 0 basechar 0
LayerCount: 2
Fore
SplineSet
299 795 m 1
 328 835 366 904 383 944 c 1
 475 944 l 1
 475 934 l 1
 453 896 388 819 346 784 c 1
 299 784 l 1
 299 795 l 1
135 795 m 1
 164 837 200 903 219 944 c 1
 311 944 l 1
 311 934 l 1
 289 895 227 821 181 784 c 1
 135 784 l 1
 135 795 l 1
281 -10 m 0
 106 -10 38 145 38 358 c 0
 38 584 113 726 282 726 c 0
 455 726 526 573 526 359 c 0
 526 143 456 -10 281 -10 c 0
283 68 m 0
 393 68 436 173 436 358 c 0
 436 543 392 648 283 648 c 0
 170 648 127 541 127 358 c 0
 127 174 173 68 283 68 c 0
EndSplineSet
Substitution2: "'c2sc' Capitals to Small Capitals lookup 34 subtable" ohungarumlaut.sc
Substitution2: "'aalt' Access All Alternates lookup 0 subtable" ohungarumlaut.sc
EndChar

StartChar: ohungarumlaut
Encoding: 337 337 274
Width: 563
GlyphClass: 2
Flags: HW
AnchorPoint: "Anchor-3" 282 268 basechar 0
AnchorPoint: "Anchor-2" 543 536 basechar 0
AnchorPoint: "Anchor-1" 282 766 basechar 0
AnchorPoint: "Anchor-0" 282 0 basechar 0
LayerCount: 2
Fore
SplineSet
299 617 m 1
 328 657 366 726 383 766 c 1
 475 766 l 1
 475 756 l 1
 453 718 388 641 346 606 c 1
 299 606 l 1
 299 617 l 1
135 617 m 1
 164 659 200 725 219 766 c 1
 311 766 l 1
 311 756 l 1
 289 717 227 643 181 606 c 1
 135 606 l 1
 135 617 l 1
283 -10 m 0
 146 -10 50 85 50 270 c 0
 50 452 143 546 280 546 c 0
 416 546 514 452 514 267 c 0
 514 85 419 -10 283 -10 c 0
282 62 m 0
 377 62 425 138 425 269 c 0
 425 400 376 474 281 474 c 0
 186 474 137 400 137 269 c 0
 137 138 186 62 282 62 c 0
EndSplineSet
Substitution2: "'smcp' Lowercase to Small Capitals lookup 35 subtable" ohungarumlaut.sc
Substitution2: "'aalt' Access All Alternates lookup 0 subtable" ohungarumlaut.sc
EndChar

StartChar: OE
Encoding: 338 338 275
Width: 563
GlyphClass: 2
Flags: HW
AnchorPoint: "Anchor-1" 282 714 basechar 0
AnchorPoint: "Anchor-0" 282 0 basechar 0
LayerCount: 2
Fore
SplineSet
229 -10 m 0
 90 -10 35 137 35 359 c 0
 35 580 94 724 239 724 c 0
 262 724 286 721 308 714 c 1
 535 714 l 1
 535 634 l 1
 376 634 l 1
 376 413 l 1
 518 413 l 1
 518 333 l 1
 376 333 l 1
 376 80 l 1
 535 80 l 1
 535 0 l 1
 295 0 l 1
 274 -6 252 -10 229 -10 c 0
233 69 m 0
 255 69 275 73 290 83 c 1
 290 632 l 1
 276 642 257 647 235 647 c 0
 154 647 123 537 123 358 c 0
 123 179 154 69 233 69 c 0
EndSplineSet
Substitution2: "'c2sc' Capitals to Small Capitals lookup 34 subtable" oe.sc
Substitution2: "'aalt' Access All Alternates lookup 0 subtable" oe.sc
EndChar

StartChar: oe
Encoding: 339 339 276
Width: 563
GlyphClass: 2
Flags: HW
AnchorPoint: "Anchor-1" 282 536 basechar 0
AnchorPoint: "Anchor-0" 282 0 basechar 0
LayerCount: 2
Fore
SplineSet
177 -10 m 0
 75 -10 21 88 21 270 c 0
 21 458 77 547 177 547 c 0
 234 547 269 517 295 451 c 1
 320 515 359 546 410 546 c 0
 502 546 545 447 545 308 c 2
 545 252 l 1
 333 252 l 1
 335 121 366 60 432 60 c 0
 461 60 492 73 527 97 c 1
 527 25 l 1
 494 1 460 -10 423 -10 c 0
 364 -10 321 19 295 87 c 1
 270 21 234 -10 177 -10 c 0
471 319 m 1
 471 413 450 477 406 477 c 0
 364 477 336 414 334 319 c 1
 471 319 l 1
180 61 m 0
 232 61 255 128 255 267 c 0
 255 407 231 475 178 475 c 0
 123 475 99 407 99 269 c 0
 99 131 124 61 180 61 c 0
EndSplineSet
Substitution2: "'smcp' Lowercase to Small Capitals lookup 35 subtable" oe.sc
Substitution2: "'aalt' Access All Alternates lookup 0 subtable" oe.sc
EndChar

StartChar: Racute
Encoding: 340 340 277
Width: 563
GlyphClass: 2
Flags: HW
AnchorPoint: "Anchor-2" 543 714 basechar 0
AnchorPoint: "Anchor-1" 282 944 basechar 0
AnchorPoint: "Anchor-0" 282 0 basechar 0
LayerCount: 2
Fore
SplineSet
236 796 m 1
 269 839 307 899 329 944 c 1
 432 944 l 1
 432 934 l 1
 407 896 337 820 292 784 c 1
 236 784 l 1
 236 796 l 1
84 0 m 1
 84 714 l 1
 247 714 l 2
 405 714 485 647 485 513 c 0
 485 400 429 344 359 317 c 1
 536 0 l 1
 439 0 l 1
 279 293 l 1
 171 293 l 1
 171 0 l 1
 84 0 l 1
245 370 m 2
 351 370 394 417 394 506 c 0
 394 600 346 637 242 637 c 2
 171 637 l 1
 171 370 l 1
 245 370 l 2
EndSplineSet
Substitution2: "'c2sc' Capitals to Small Capitals lookup 34 subtable" racute.sc
Substitution2: "'aalt' Access All Alternates lookup 0 subtable" racute.sc
EndChar

StartChar: racute
Encoding: 341 341 278
Width: 563
GlyphClass: 2
Flags: HW
AnchorPoint: "Anchor-2" 543 536 basechar 0
AnchorPoint: "Anchor-1" 310 766 basechar 0
AnchorPoint: "Anchor-0" 282 0 basechar 0
LayerCount: 2
Fore
SplineSet
265 618 m 1
 298 661 336 721 358 766 c 1
 461 766 l 1
 461 756 l 1
 436 718 366 642 321 606 c 1
 265 606 l 1
 265 618 l 1
53 0 m 1
 53 60 l 1
 201 73 l 1
 201 462 l 1
 65 475 l 1
 65 536 l 1
 271 536 l 1
 282 439 l 1
 286 439 l 1
 319 507 362 546 436 546 c 0
 474 546 506 539 535 526 c 1
 511 446 l 1
 489 458 460 465 432 465 c 0
 346 465 289 377 289 268 c 2
 289 73 l 1
 434 60 l 1
 434 0 l 1
 53 0 l 1
EndSplineSet
Substitution2: "'smcp' Lowercase to Small Capitals lookup 35 subtable" racute.sc
Substitution2: "'aalt' Access All Alternates lookup 0 subtable" racute.sc
EndChar

StartChar: uni0156
Encoding: 342 342 279
Width: 563
GlyphClass: 2
Flags: HW
AnchorPoint: "Anchor-2" 543 714 basechar 0
AnchorPoint: "Anchor-1" 282 714 basechar 0
AnchorPoint: "Anchor-0" 282 -221 basechar 0
LayerCount: 2
Fore
SplineSet
84 0 m 1
 84 714 l 1
 247 714 l 2
 405 714 485 647 485 513 c 0
 485 400 429 344 359 317 c 1
 536 0 l 1
 439 0 l 1
 279 293 l 1
 171 293 l 1
 171 0 l 1
 84 0 l 1
245 370 m 2
 351 370 394 417 394 506 c 0
 394 600 346 637 242 637 c 2
 171 637 l 1
 171 370 l 1
 245 370 l 2
225 -209 m 1
 239 -176 259 -104 264 -61 c 1
 350 -61 l 1
 350 -68 l 1
 340 -107 307 -179 272 -221 c 1
 225 -221 l 1
 225 -209 l 1
EndSplineSet
Substitution2: "'c2sc' Capitals to Small Capitals lookup 34 subtable" uni0157.sc
Substitution2: "'aalt' Access All Alternates lookup 0 subtable" uni0157.sc
EndChar

StartChar: uni0157
Encoding: 343 343 280
Width: 563
GlyphClass: 2
Flags: HW
AnchorPoint: "Anchor-2" 543 536 basechar 0
AnchorPoint: "Anchor-1" 282 536 basechar 0
AnchorPoint: "Anchor-0" 244 -221 basechar 0
LayerCount: 2
Fore
SplineSet
53 0 m 1
 53 60 l 1
 201 73 l 1
 201 462 l 1
 65 475 l 1
 65 536 l 1
 271 536 l 1
 282 439 l 1
 286 439 l 1
 319 507 362 546 436 546 c 0
 474 546 506 539 535 526 c 1
 511 446 l 1
 489 458 460 465 432 465 c 0
 346 465 289 377 289 268 c 2
 289 73 l 1
 434 60 l 1
 434 0 l 1
 53 0 l 1
165 -209 m 1
 180 -176 200 -104 205 -61 c 1
 291 -61 l 1
 291 -68 l 1
 281 -107 247 -179 213 -221 c 1
 165 -221 l 1
 165 -209 l 1
EndSplineSet
Substitution2: "'smcp' Lowercase to Small Capitals lookup 35 subtable" uni0157.sc
Substitution2: "'aalt' Access All Alternates lookup 0 subtable" uni0157.sc
EndChar

StartChar: Rcaron
Encoding: 344 344 281
Width: 563
GlyphClass: 2
Flags: HW
AnchorPoint: "Anchor-2" 543 714 basechar 0
AnchorPoint: "Anchor-1" 282 944 basechar 0
AnchorPoint: "Anchor-0" 282 0 basechar 0
LayerCount: 2
Fore
SplineSet
238 784 m 1
 214 829 162 891 127 932 c 1
 127 944 l 1
 181 944 l 1
 212 921 249 887 280 851 c 1
 316 889 346 917 381 944 c 1
 437 944 l 1
 437 932 l 1
 402 893 346 829 323 784 c 1
 238 784 l 1
84 0 m 1
 84 714 l 1
 247 714 l 2
 405 714 485 647 485 513 c 0
 485 400 429 344 359 317 c 1
 536 0 l 1
 439 0 l 1
 279 293 l 1
 171 293 l 1
 171 0 l 1
 84 0 l 1
245 370 m 2
 351 370 394 417 394 506 c 0
 394 600 346 637 242 637 c 2
 171 637 l 1
 171 370 l 1
 245 370 l 2
EndSplineSet
Substitution2: "'c2sc' Capitals to Small Capitals lookup 34 subtable" rcaron.sc
Substitution2: "'aalt' Access All Alternates lookup 0 subtable" rcaron.sc
EndChar

StartChar: rcaron
Encoding: 345 345 282
Width: 563
GlyphClass: 2
Flags: HW
AnchorPoint: "Anchor-2" 543 536 basechar 0
AnchorPoint: "Anchor-1" 310 766 basechar 0
AnchorPoint: "Anchor-0" 282 0 basechar 0
LayerCount: 2
Fore
SplineSet
267 606 m 1
 243 651 191 713 156 754 c 1
 156 766 l 1
 210 766 l 1
 241 743 278 709 309 673 c 1
 345 711 375 739 410 766 c 1
 466 766 l 1
 466 754 l 1
 431 715 375 651 352 606 c 1
 267 606 l 1
53 0 m 1
 53 60 l 1
 201 73 l 1
 201 462 l 1
 65 475 l 1
 65 536 l 1
 271 536 l 1
 282 439 l 1
 286 439 l 1
 319 507 362 546 436 546 c 0
 474 546 506 539 535 526 c 1
 511 446 l 1
 489 458 460 465 432 465 c 0
 346 465 289 377 289 268 c 2
 289 73 l 1
 434 60 l 1
 434 0 l 1
 53 0 l 1
EndSplineSet
Substitution2: "'smcp' Lowercase to Small Capitals lookup 35 subtable" rcaron.sc
Substitution2: "'aalt' Access All Alternates lookup 0 subtable" rcaron.sc
EndChar

